<?xml version="1.0" encoding="UTF-8"?>
<svg xmlns="http://www.w3.org/2000/svg" xmlns:xlink="http://www.w3.org/1999/xlink" width="4288" height="2500" viewBox="0 0 4288 2500">
<defs>
<clipPath id="clip-0">
<path clip-rule="nonzero" d="M 3323 1785 L 4288 1785 L 4288 1939 L 3323 1939 Z M 3323 1785 "/>
</clipPath>
<clipPath id="clip-1">
<path clip-rule="nonzero" d="M 3570.839844 1915.039062 C 3812.441406 1887.878906 4052.21875 1844.46875 4288 1785.171875 L 4288 1938.75 L 3323.75 1938.75 C 3406.199219 1931.648438 3488.628906 1924.289062 3570.839844 1915.039062 Z M 3570.839844 1915.039062 "/>
</clipPath>
<clipPath id="clip-2">
<path clip-rule="nonzero" d="M 3570.839844 1915.039062 C 3812.441406 1887.878906 4052.21875 1844.46875 4288 1785.171875 L 4288 1938.75 L 3323.75 1938.75 C 3406.199219 1931.648438 3488.628906 1924.289062 3570.839844 1915.039062 "/>
</clipPath>
<linearGradient id="linear-pattern-0" gradientUnits="userSpaceOnUse" x1="-0.173921" y1="0" x2="0.853932" y2="0" gradientTransform="matrix(5.48047, 178.115, -178.115, 5.48047, 3804.01, 1801.4)">
<stop offset="0" stop-color="rgb(38.822937%, 85.881042%, 81.175232%)" stop-opacity="1"/>
<stop offset="0.125" stop-color="rgb(38.822937%, 85.881042%, 81.175232%)" stop-opacity="1"/>
<stop offset="0.1875" stop-color="rgb(38.987732%, 85.906982%, 81.187439%)" stop-opacity="1"/>
<stop offset="0.203125" stop-color="rgb(39.328003%, 85.960388%, 81.214905%)" stop-opacity="1"/>
<stop offset="0.21875" stop-color="rgb(39.694214%, 86.018372%, 81.243896%)" stop-opacity="1"/>
<stop offset="0.226562" stop-color="rgb(39.984131%, 86.064148%, 81.266785%)" stop-opacity="1"/>
<stop offset="0.234375" stop-color="rgb(40.185547%, 86.094666%, 81.282043%)" stop-opacity="1"/>
<stop offset="0.242188" stop-color="rgb(40.391541%, 86.128235%, 81.298828%)" stop-opacity="1"/>
<stop offset="0.25" stop-color="rgb(40.602112%, 86.161804%, 81.315613%)" stop-opacity="1"/>
<stop offset="0.257812" stop-color="rgb(40.815735%, 86.195374%, 81.332397%)" stop-opacity="1"/>
<stop offset="0.265625" stop-color="rgb(41.03241%, 86.228943%, 81.349182%)" stop-opacity="1"/>
<stop offset="0.273438" stop-color="rgb(41.253662%, 86.264038%, 81.365967%)" stop-opacity="1"/>
<stop offset="0.28125" stop-color="rgb(41.47644%, 86.299133%, 81.384277%)" stop-opacity="1"/>
<stop offset="0.289062" stop-color="rgb(41.702271%, 86.334229%, 81.402588%)" stop-opacity="1"/>
<stop offset="0.296875" stop-color="rgb(41.931152%, 86.37085%, 81.420898%)" stop-opacity="1"/>
<stop offset="0.304688" stop-color="rgb(42.163086%, 86.407471%, 81.439209%)" stop-opacity="1"/>
<stop offset="0.3125" stop-color="rgb(42.396545%, 86.444092%, 81.45752%)" stop-opacity="1"/>
<stop offset="0.320312" stop-color="rgb(42.633057%, 86.480713%, 81.47583%)" stop-opacity="1"/>
<stop offset="0.328125" stop-color="rgb(42.871094%, 86.517334%, 81.494141%)" stop-opacity="1"/>
<stop offset="0.335938" stop-color="rgb(43.112183%, 86.555481%, 81.512451%)" stop-opacity="1"/>
<stop offset="0.34375" stop-color="rgb(43.353271%, 86.593628%, 81.532288%)" stop-opacity="1"/>
<stop offset="0.351562" stop-color="rgb(43.597412%, 86.631775%, 81.550598%)" stop-opacity="1"/>
<stop offset="0.359375" stop-color="rgb(43.844604%, 86.671448%, 81.570435%)" stop-opacity="1"/>
<stop offset="0.367188" stop-color="rgb(44.091797%, 86.709595%, 81.590271%)" stop-opacity="1"/>
<stop offset="0.375" stop-color="rgb(44.342041%, 86.749268%, 81.608582%)" stop-opacity="1"/>
<stop offset="0.382812" stop-color="rgb(44.592285%, 86.78894%, 81.628418%)" stop-opacity="1"/>
<stop offset="0.390625" stop-color="rgb(44.845581%, 86.828613%, 81.648254%)" stop-opacity="1"/>
<stop offset="0.398438" stop-color="rgb(45.100403%, 86.868286%, 81.669617%)" stop-opacity="1"/>
<stop offset="0.40625" stop-color="rgb(45.35675%, 86.909485%, 81.689453%)" stop-opacity="1"/>
<stop offset="0.414062" stop-color="rgb(45.613098%, 86.949158%, 81.70929%)" stop-opacity="1"/>
<stop offset="0.421875" stop-color="rgb(45.872498%, 86.990356%, 81.729126%)" stop-opacity="1"/>
<stop offset="0.429688" stop-color="rgb(46.133423%, 87.031555%, 81.750488%)" stop-opacity="1"/>
<stop offset="0.4375" stop-color="rgb(46.395874%, 87.072754%, 81.770325%)" stop-opacity="1"/>
<stop offset="0.445312" stop-color="rgb(46.658325%, 87.113953%, 81.791687%)" stop-opacity="1"/>
<stop offset="0.453125" stop-color="rgb(46.922302%, 87.155151%, 81.813049%)" stop-opacity="1"/>
<stop offset="0.460938" stop-color="rgb(47.187805%, 87.197876%, 81.832886%)" stop-opacity="1"/>
<stop offset="0.46875" stop-color="rgb(47.454834%, 87.239075%, 81.854248%)" stop-opacity="1"/>
<stop offset="0.476562" stop-color="rgb(47.723389%, 87.281799%, 81.87561%)" stop-opacity="1"/>
<stop offset="0.484375" stop-color="rgb(47.991943%, 87.324524%, 81.896973%)" stop-opacity="1"/>
<stop offset="0.492188" stop-color="rgb(48.26355%, 87.367249%, 81.918335%)" stop-opacity="1"/>
<stop offset="0.5" stop-color="rgb(48.535156%, 87.409973%, 81.939697%)" stop-opacity="1"/>
<stop offset="0.507812" stop-color="rgb(48.806763%, 87.452698%, 81.96106%)" stop-opacity="1"/>
<stop offset="0.515625" stop-color="rgb(49.081421%, 87.495422%, 81.982422%)" stop-opacity="1"/>
<stop offset="0.523438" stop-color="rgb(49.356079%, 87.538147%, 82.003784%)" stop-opacity="1"/>
<stop offset="0.53125" stop-color="rgb(49.632263%, 87.582397%, 82.025146%)" stop-opacity="1"/>
<stop offset="0.539062" stop-color="rgb(49.909973%, 87.625122%, 82.048035%)" stop-opacity="1"/>
<stop offset="0.546875" stop-color="rgb(50.187683%, 87.669373%, 82.069397%)" stop-opacity="1"/>
<stop offset="0.554688" stop-color="rgb(50.466919%, 87.712097%, 82.090759%)" stop-opacity="1"/>
<stop offset="0.5625" stop-color="rgb(50.747681%, 87.756348%, 82.113647%)" stop-opacity="1"/>
<stop offset="0.570312" stop-color="rgb(51.028442%, 87.800598%, 82.13501%)" stop-opacity="1"/>
<stop offset="0.578125" stop-color="rgb(51.309204%, 87.844849%, 82.157898%)" stop-opacity="1"/>
<stop offset="0.585938" stop-color="rgb(51.593018%, 87.890625%, 82.17926%)" stop-opacity="1"/>
<stop offset="0.59375" stop-color="rgb(51.876831%, 87.934875%, 82.202148%)" stop-opacity="1"/>
<stop offset="0.601562" stop-color="rgb(52.16217%, 87.979126%, 82.225037%)" stop-opacity="1"/>
<stop offset="0.609375" stop-color="rgb(52.44751%, 88.024902%, 82.246399%)" stop-opacity="1"/>
<stop offset="0.617188" stop-color="rgb(52.734375%, 88.069153%, 82.269287%)" stop-opacity="1"/>
<stop offset="0.625" stop-color="rgb(53.02124%, 88.114929%, 82.292175%)" stop-opacity="1"/>
<stop offset="0.632812" stop-color="rgb(53.309631%, 88.160706%, 82.315063%)" stop-opacity="1"/>
<stop offset="0.640625" stop-color="rgb(53.599548%, 88.206482%, 82.337952%)" stop-opacity="1"/>
<stop offset="0.648438" stop-color="rgb(53.889465%, 88.252258%, 82.359314%)" stop-opacity="1"/>
<stop offset="0.65625" stop-color="rgb(54.179382%, 88.298035%, 82.382202%)" stop-opacity="1"/>
<stop offset="0.664062" stop-color="rgb(54.470825%, 88.343811%, 82.40509%)" stop-opacity="1"/>
<stop offset="0.671875" stop-color="rgb(54.763794%, 88.389587%, 82.429504%)" stop-opacity="1"/>
<stop offset="0.679688" stop-color="rgb(55.056763%, 88.435364%, 82.452393%)" stop-opacity="1"/>
<stop offset="0.6875" stop-color="rgb(55.351257%, 88.48114%, 82.475281%)" stop-opacity="1"/>
<stop offset="0.695312" stop-color="rgb(55.645752%, 88.528442%, 82.498169%)" stop-opacity="1"/>
<stop offset="0.703125" stop-color="rgb(55.941772%, 88.574219%, 82.521057%)" stop-opacity="1"/>
<stop offset="0.710938" stop-color="rgb(56.237793%, 88.619995%, 82.545471%)" stop-opacity="1"/>
<stop offset="0.71875" stop-color="rgb(56.535339%, 88.667297%, 82.568359%)" stop-opacity="1"/>
<stop offset="0.726562" stop-color="rgb(56.832886%, 88.7146%, 82.591248%)" stop-opacity="1"/>
<stop offset="0.734375" stop-color="rgb(57.131958%, 88.760376%, 82.615662%)" stop-opacity="1"/>
<stop offset="0.742188" stop-color="rgb(57.43103%, 88.807678%, 82.63855%)" stop-opacity="1"/>
<stop offset="0.75" stop-color="rgb(57.730103%, 88.85498%, 82.662964%)" stop-opacity="1"/>
<stop offset="0.757812" stop-color="rgb(58.030701%, 88.902283%, 82.685852%)" stop-opacity="1"/>
<stop offset="0.765625" stop-color="rgb(58.332825%, 88.949585%, 82.710266%)" stop-opacity="1"/>
<stop offset="0.773438" stop-color="rgb(58.634949%, 88.996887%, 82.733154%)" stop-opacity="1"/>
<stop offset="0.78125" stop-color="rgb(58.937073%, 89.045715%, 82.757568%)" stop-opacity="1"/>
<stop offset="0.789062" stop-color="rgb(59.240723%, 89.093018%, 82.781982%)" stop-opacity="1"/>
<stop offset="0.796875" stop-color="rgb(59.544373%, 89.14032%, 82.804871%)" stop-opacity="1"/>
<stop offset="0.804688" stop-color="rgb(59.849548%, 89.189148%, 82.829285%)" stop-opacity="1"/>
<stop offset="0.8125" stop-color="rgb(60.154724%, 89.23645%, 82.853699%)" stop-opacity="1"/>
<stop offset="0.820312" stop-color="rgb(60.461426%, 89.285278%, 82.878113%)" stop-opacity="1"/>
<stop offset="0.828125" stop-color="rgb(60.766602%, 89.334106%, 82.901001%)" stop-opacity="1"/>
<stop offset="0.835938" stop-color="rgb(61.074829%, 89.381409%, 82.925415%)" stop-opacity="1"/>
<stop offset="0.84375" stop-color="rgb(61.383057%, 89.430237%, 82.949829%)" stop-opacity="1"/>
<stop offset="0.851562" stop-color="rgb(61.691284%, 89.479065%, 82.974243%)" stop-opacity="1"/>
<stop offset="0.859375" stop-color="rgb(61.999512%, 89.527893%, 82.998657%)" stop-opacity="1"/>
<stop offset="0.867188" stop-color="rgb(62.310791%, 89.576721%, 83.023071%)" stop-opacity="1"/>
<stop offset="0.875" stop-color="rgb(62.620544%, 89.625549%, 83.047485%)" stop-opacity="1"/>
<stop offset="0.882812" stop-color="rgb(62.931824%, 89.674377%, 83.071899%)" stop-opacity="1"/>
<stop offset="0.890625" stop-color="rgb(63.243103%, 89.723206%, 83.096313%)" stop-opacity="1"/>
<stop offset="0.898438" stop-color="rgb(63.554382%, 89.772034%, 83.120728%)" stop-opacity="1"/>
<stop offset="0.90625" stop-color="rgb(63.867188%, 89.820862%, 83.145142%)" stop-opacity="1"/>
<stop offset="0.914062" stop-color="rgb(64.181519%, 89.86969%, 83.169556%)" stop-opacity="1"/>
<stop offset="0.921875" stop-color="rgb(64.49585%, 89.920044%, 83.195496%)" stop-opacity="1"/>
<stop offset="0.929688" stop-color="rgb(64.810181%, 89.968872%, 83.21991%)" stop-opacity="1"/>
<stop offset="0.9375" stop-color="rgb(65.124512%, 90.019226%, 83.244324%)" stop-opacity="1"/>
<stop offset="0.945312" stop-color="rgb(65.440369%, 90.068054%, 83.268738%)" stop-opacity="1"/>
<stop offset="0.953125" stop-color="rgb(65.756226%, 90.118408%, 83.293152%)" stop-opacity="1"/>
<stop offset="0.960938" stop-color="rgb(66.073608%, 90.167236%, 83.319092%)" stop-opacity="1"/>
<stop offset="0.96875" stop-color="rgb(66.390991%, 90.21759%, 83.343506%)" stop-opacity="1"/>
<stop offset="0.976562" stop-color="rgb(66.708374%, 90.267944%, 83.36792%)" stop-opacity="1"/>
<stop offset="0.984375" stop-color="rgb(67.025757%, 90.316772%, 83.39386%)" stop-opacity="1"/>
<stop offset="0.992188" stop-color="rgb(67.344666%, 90.367126%, 83.418274%)" stop-opacity="1"/>
<stop offset="1" stop-color="rgb(67.663574%, 90.41748%, 83.444214%)" stop-opacity="1"/>
</linearGradient>
<clipPath id="clip-3">
<path clip-rule="nonzero" d="M 3969 1573 L 3976 1573 L 3976 1584 L 3969 1584 Z M 3969 1573 "/>
</clipPath>
<clipPath id="clip-4">
<path clip-rule="nonzero" d="M 3975.808594 1573.890625 C 3973.839844 1577.109375 3971.640625 1580.191406 3969.179688 1583.089844 C 3971.050781 1579.78125 3973.28125 1576.699219 3975.808594 1573.890625 Z M 3975.808594 1573.890625 "/>
</clipPath>
<clipPath id="clip-5">
<path clip-rule="nonzero" d="M 3975.808594 1573.890625 C 3973.839844 1577.109375 3971.640625 1580.191406 3969.179688 1583.089844 C 3971.050781 1579.78125 3973.28125 1576.699219 3975.808594 1573.890625 "/>
</clipPath>
<linearGradient id="linear-pattern-1" gradientUnits="userSpaceOnUse" x1="0.000000000000113687" y1="0" x2="1.000936" y2="0" gradientTransform="matrix(6.6238, 0, 0, 6.6238, 3969.18, 1578.49)">
<stop offset="0" stop-color="rgb(49.803162%, 72.547913%, 0%)" stop-opacity="1"/>
<stop offset="0.015625" stop-color="rgb(49.662781%, 72.386169%, 0.0671387%)" stop-opacity="1"/>
<stop offset="0.03125" stop-color="rgb(49.382019%, 72.062683%, 0.202942%)" stop-opacity="1"/>
<stop offset="0.046875" stop-color="rgb(49.104309%, 71.740723%, 0.338745%)" stop-opacity="1"/>
<stop offset="0.0625" stop-color="rgb(48.826599%, 71.420288%, 0.474548%)" stop-opacity="1"/>
<stop offset="0.078125" stop-color="rgb(48.548889%, 71.099854%, 0.610352%)" stop-opacity="1"/>
<stop offset="0.09375" stop-color="rgb(48.271179%, 70.780945%, 0.744629%)" stop-opacity="1"/>
<stop offset="0.109375" stop-color="rgb(47.996521%, 70.463562%, 0.878906%)" stop-opacity="1"/>
<stop offset="0.125" stop-color="rgb(47.721863%, 70.146179%, 1.013184%)" stop-opacity="1"/>
<stop offset="0.140625" stop-color="rgb(47.447205%, 69.828796%, 1.145935%)" stop-opacity="1"/>
<stop offset="0.15625" stop-color="rgb(47.174072%, 69.514465%, 1.278687%)" stop-opacity="1"/>
<stop offset="0.171875" stop-color="rgb(46.90094%, 69.200134%, 1.411438%)" stop-opacity="1"/>
<stop offset="0.1875" stop-color="rgb(46.629333%, 68.885803%, 1.544189%)" stop-opacity="1"/>
<stop offset="0.203125" stop-color="rgb(46.359253%, 68.574524%, 1.676941%)" stop-opacity="1"/>
<stop offset="0.21875" stop-color="rgb(46.089172%, 68.263245%, 1.808167%)" stop-opacity="1"/>
<stop offset="0.234375" stop-color="rgb(45.820618%, 67.951965%, 1.939392%)" stop-opacity="1"/>
<stop offset="0.25" stop-color="rgb(45.552063%, 67.643738%, 2.069092%)" stop-opacity="1"/>
<stop offset="0.265625" stop-color="rgb(45.285034%, 67.33551%, 2.198792%)" stop-opacity="1"/>
<stop offset="0.28125" stop-color="rgb(45.019531%, 67.028809%, 2.328491%)" stop-opacity="1"/>
<stop offset="0.296875" stop-color="rgb(44.754028%, 66.723633%, 2.458191%)" stop-opacity="1"/>
<stop offset="0.3125" stop-color="rgb(44.491577%, 66.418457%, 2.586365%)" stop-opacity="1"/>
<stop offset="0.328125" stop-color="rgb(44.229126%, 66.114807%, 2.714539%)" stop-opacity="1"/>
<stop offset="0.34375" stop-color="rgb(43.966675%, 65.812683%, 2.842712%)" stop-opacity="1"/>
<stop offset="0.359375" stop-color="rgb(43.70575%, 65.512085%, 2.96936%)" stop-opacity="1"/>
<stop offset="0.375" stop-color="rgb(43.44635%, 65.213013%, 3.096008%)" stop-opacity="1"/>
<stop offset="0.390625" stop-color="rgb(43.186951%, 64.91394%, 3.222656%)" stop-opacity="1"/>
<stop offset="0.40625" stop-color="rgb(42.929077%, 64.61792%, 3.347778%)" stop-opacity="1"/>
<stop offset="0.421875" stop-color="rgb(42.672729%, 64.321899%, 3.4729%)" stop-opacity="1"/>
<stop offset="0.4375" stop-color="rgb(42.417908%, 64.027405%, 3.596497%)" stop-opacity="1"/>
<stop offset="0.453125" stop-color="rgb(42.164612%, 63.734436%, 3.720093%)" stop-opacity="1"/>
<stop offset="0.46875" stop-color="rgb(41.911316%, 63.442993%, 3.843689%)" stop-opacity="1"/>
<stop offset="0.484375" stop-color="rgb(41.659546%, 63.153076%, 3.965759%)" stop-opacity="1"/>
<stop offset="0.5" stop-color="rgb(41.409302%, 62.863159%, 4.08783%)" stop-opacity="1"/>
<stop offset="0.515625" stop-color="rgb(41.160583%, 62.576294%, 4.208374%)" stop-opacity="1"/>
<stop offset="0.53125" stop-color="rgb(40.913391%, 62.290955%, 4.328918%)" stop-opacity="1"/>
<stop offset="0.546875" stop-color="rgb(40.667725%, 62.007141%, 4.449463%)" stop-opacity="1"/>
<stop offset="0.5625" stop-color="rgb(40.423584%, 61.724854%, 4.568481%)" stop-opacity="1"/>
<stop offset="0.578125" stop-color="rgb(40.179443%, 61.444092%, 4.6875%)" stop-opacity="1"/>
<stop offset="0.59375" stop-color="rgb(39.938354%, 61.166382%, 4.804993%)" stop-opacity="1"/>
<stop offset="0.609375" stop-color="rgb(39.697266%, 60.888672%, 4.920959%)" stop-opacity="1"/>
<stop offset="0.625" stop-color="rgb(39.459229%, 60.614014%, 5.038452%)" stop-opacity="1"/>
<stop offset="0.640625" stop-color="rgb(39.222717%, 60.340881%, 5.152893%)" stop-opacity="1"/>
<stop offset="0.65625" stop-color="rgb(38.987732%, 60.069275%, 5.267334%)" stop-opacity="1"/>
<stop offset="0.671875" stop-color="rgb(38.755798%, 59.80072%, 5.381775%)" stop-opacity="1"/>
<stop offset="0.6875" stop-color="rgb(38.523865%, 59.533691%, 5.493164%)" stop-opacity="1"/>
<stop offset="0.703125" stop-color="rgb(38.294983%, 59.268188%, 5.604553%)" stop-opacity="1"/>
<stop offset="0.71875" stop-color="rgb(38.067627%, 59.005737%, 5.715942%)" stop-opacity="1"/>
<stop offset="0.734375" stop-color="rgb(37.841797%, 58.746338%, 5.825806%)" stop-opacity="1"/>
<stop offset="0.75" stop-color="rgb(37.619019%, 58.48999%, 5.934143%)" stop-opacity="1"/>
<stop offset="0.765625" stop-color="rgb(37.397766%, 58.235168%, 6.04248%)" stop-opacity="1"/>
<stop offset="0.78125" stop-color="rgb(37.179565%, 57.983398%, 6.147766%)" stop-opacity="1"/>
<stop offset="0.796875" stop-color="rgb(36.964417%, 57.73468%, 6.253052%)" stop-opacity="1"/>
<stop offset="0.8125" stop-color="rgb(36.750793%, 57.489014%, 6.356812%)" stop-opacity="1"/>
<stop offset="0.828125" stop-color="rgb(36.541748%, 57.246399%, 6.459045%)" stop-opacity="1"/>
<stop offset="0.84375" stop-color="rgb(36.334229%, 57.008362%, 6.559753%)" stop-opacity="1"/>
<stop offset="0.859375" stop-color="rgb(36.131287%, 56.773376%, 6.658936%)" stop-opacity="1"/>
<stop offset="0.875" stop-color="rgb(35.931396%, 56.542969%, 6.756592%)" stop-opacity="1"/>
<stop offset="0.890625" stop-color="rgb(35.736084%, 56.317139%, 6.851196%)" stop-opacity="1"/>
<stop offset="0.90625" stop-color="rgb(35.545349%, 56.097412%, 6.944275%)" stop-opacity="1"/>
<stop offset="0.921875" stop-color="rgb(35.359192%, 55.882263%, 7.035828%)" stop-opacity="1"/>
<stop offset="0.9375" stop-color="rgb(35.179138%, 55.674744%, 7.122803%)" stop-opacity="1"/>
<stop offset="0.96875" stop-color="rgb(34.925842%, 55.383301%, 7.246399%)" stop-opacity="1"/>
<stop offset="1" stop-color="rgb(34.635925%, 55.047607%, 7.388306%)" stop-opacity="1"/>
</linearGradient>
</defs>
<path fill-rule="nonzero" fill="rgb(73.242188%, 95.701599%, 97.264099%)" fill-opacity="1" d="M 4288 0 L 4288 1756.210938 C 4285 1756.101562 4282.019531 1755.980469 4279.019531 1755.871094 C 3221.449219 1717.25 2116.398438 1822.289062 1267.589844 1938.75 L 0 1938.75 L 0 0 L 4288 0 "/>
<path fill-rule="nonzero" fill="rgb(100%, 100%, 100%)" fill-opacity="1" d="M 4288 461.910156 L 4288 1756.210938 C 4285 1756.101562 4282.019531 1755.980469 4279.019531 1755.871094 C 3221.449219 1717.25 2116.398438 1822.289062 1267.589844 1938.75 L 0 1938.75 L 0 832.449219 C 62.878906 811.570312 132.378906 808.351562 189.070312 826.671875 C 309.109375 865.460938 394.398438 992.101562 385.199219 1117.921875 C 465.171875 1037.5 599.191406 1017.441406 699.199219 1070.910156 C 799.21875 1124.378906 856.960938 1246.980469 834.5 1358.140625 C 874.011719 1288.96875 961.921875 1251.429688 1039.210938 1270.71875 C 1116.5 1290.011719 1176.449219 1364.46875 1178.820312 1444.089844 C 1342.21875 1317.558594 1605.160156 1348.851562 1734.308594 1510.179688 C 1881 1367 2135 1511 2135 1511 C 2135 1511 2216 1398 2408.171875 1460.300781 C 2479.019531 1483.269531 2426 1377 2614 1318 C 2780 1273 2787.859375 1362.070312 2845.46875 1341.359375 C 2850.910156 1323.21875 2885.21875 1215.449219 2999.339844 1158.320312 C 3073.351562 1121.269531 3161.5 1112.480469 3238.089844 1144.820312 C 3300.359375 997.679688 3475.410156 908.289062 3631.121094 944.121094 C 3694.238281 757.140625 3913.230469 638.449219 4104.351562 687.621094 C 4118.398438 586.578125 4193.859375 499.230469 4288 461.910156 "/>
<path fill-rule="nonzero" fill="rgb(32.93457%, 88.671875%, 67.381287%)" fill-opacity="1" d="M 1916.109375 1548.328125 C 1863.46875 1538.570312 1775.898438 1543.398438 1786.53125 1574.988281 C 1765.25 1534.660156 1659.488281 1511.160156 1582.410156 1544.601562 C 1553.710938 1523.710938 1421.058594 1500.71875 1386.710938 1578.488281 C 1356.859375 1543.109375 1246.25 1552.359375 1234.660156 1591.199219 C 1241.800781 1558.101562 1142.640625 1543.011719 1119.960938 1573 C 1129.039062 1559.03125 1109.058594 1541.210938 1083.179688 1540.890625 C 1056.628906 1540.558594 1034.941406 1558.808594 1044.789062 1573.191406 C 1020.460938 1542.988281 960.859375 1523.851562 904.054688 1528.011719 C 847.246094 1532.171875 797.609375 1559.289062 786.84375 1592.050781 C 746.070312 1580.46875 703.375 1568.628906 658.042969 1569.148438 C 612.710938 1569.671875 564.472656 1586.828125 558.492188 1613.019531 C 479.398438 1574.789062 337.105469 1603.878906 316.355469 1662.539062 C 283.554688 1624.078125 248.714844 1584.160156 189.730469 1558.390625 C 135.488281 1534.699219 54.425781 1527.25 0 1549.109375 L 0 1786.769531 C 348.515625 1722.609375 1085.839844 1606.761719 2001.589844 1576.46875 C 1974.289062 1565.539062 1947.46875 1554.128906 1916.109375 1548.328125 Z M 3741.171875 1583.089844 C 3744.371094 1579.78125 3748.199219 1576.699219 3752.53125 1573.890625 C 3749.160156 1577.109375 3745.378906 1580.191406 3741.171875 1583.089844 Z M 4212.269531 1524.910156 C 4179.980469 1542.269531 4162.890625 1566.941406 4146.761719 1590.75 C 4125.640625 1566.621094 4069.730469 1558.328125 4025.519531 1566.679688 C 3981.308594 1575.039062 3947.589844 1596.121094 3921.671875 1618.601562 C 3927.800781 1592.800781 3898.988281 1565.628906 3856.628906 1557.300781 C 3820.46875 1550.179688 3777.878906 1557.46875 3752.550781 1573.878906 C 3778.730469 1548.941406 3780.128906 1515.378906 3754.378906 1490.140625 C 3725.289062 1461.628906 3663.648438 1445.808594 3607.921875 1452.550781 C 3521.128906 1463.03125 3474.261719 1516.691406 3439.609375 1564.230469 C 3448.21875 1540.089844 3424.738281 1513.359375 3386.121094 1503.308594 C 3347.5 1493.261719 3297.679688 1500.921875 3272.601562 1520.769531 C 3257.089844 1483.121094 3191.148438 1454.890625 3124.878906 1457.519531 C 3058.609375 1460.148438 2999.859375 1493.339844 2993.238281 1531.851562 C 2921.519531 1502.921875 2778.820312 1505.851562 2760.898438 1572.890625 C 3228.738281 1584.390625 3723.691406 1622.78125 4223.960938 1702.339844 C 4245.671875 1705.78125 4266.96875 1709.28125 4288 1712.789062 L 4288 1506.820312 C 4260.878906 1506.910156 4232.640625 1513.980469 4212.269531 1524.910156 "/>
<g clip-path="url(#clip-0)">
<g clip-path="url(#clip-1)">
<g clip-path="url(#clip-2)">
<path fill-rule="nonzero" fill="url(#linear-pattern-0)" d="M 4287.089844 1755.527344 L 3319.027344 1785.316406 L 3324.660156 1968.390625 L 4292.722656 1938.605469 Z M 4287.089844 1755.527344 "/>
</g>
</g>
</g>
<path fill-rule="nonzero" fill="rgb(100%, 100%, 100%)" fill-opacity="1" d="M 1802.300781 884.828125 C 1797.488281 885.960938 1792.441406 887.101562 1787.660156 885.828125 C 1776.941406 882.980469 1772.808594 868.730469 1776.960938 858.449219 C 1781.109375 848.171875 1790.800781 841.289062 1800.351562 835.671875 C 1847.488281 807.960938 1904.058594 796.648438 1958.230469 804.101562 C 1952.199219 803.511719 1949.179688 795.648438 1951.328125 789.980469 C 1953.480469 784.320312 1958.890625 780.640625 1964.179688 777.679688 C 1997.941406 758.808594 2039.71875 754.898438 2076.390625 767.160156 C 2062.800781 758.398438 2059.058594 739.070312 2064.410156 723.808594 C 2069.75 708.539062 2082.191406 696.828125 2095.441406 687.550781 C 2150.039062 649.289062 2221.160156 643.878906 2287.628906 649.179688 C 2335.230469 652.96875 2383.601562 662 2424.648438 686.371094 C 2465.710938 710.75 2498.570312 752.769531 2501.851562 800.390625 C 2508.710938 788.238281 2516.21875 775.441406 2528.601562 769 C 2540.980469 762.558594 2559.539062 766.070312 2563.921875 779.308594 C 2568.449219 792.980469 2556.238281 806.011719 2545.210938 815.28125 C 2556.328125 805.929688 2592.210938 826.25 2580.160156 842.730469 C 2571.359375 854.769531 2536.058594 841.359375 2523.710938 839.878906 C 2465.300781 832.859375 2406.121094 829.878906 2347.339844 828.488281 C 2231.121094 825.75 2114.679688 832.351562 1999.511719 848.230469 C 1933.261719 857.371094 1867.421875 869.570312 1802.300781 884.828125 "/>
<path fill-rule="nonzero" fill="rgb(100%, 100%, 100%)" fill-opacity="1" d="M 3212.75 518.148438 C 3200.359375 501.148438 3208.53125 475.128906 3225.679688 462.949219 C 3242.820312 450.761719 3265.679688 449.808594 3286.390625 453.539062 C 3292.921875 393.25 3361.578125 348.148438 3419.53125 366.070312 C 3425.710938 246.578125 3527.511719 139.300781 3646.550781 126.839844 C 3665.789062 124.820312 3685.980469 125.171875 3703.449219 133.46875 C 3738.128906 149.960938 3752.25 194.109375 3745.941406 231.980469 C 3739.628906 269.859375 3717.539062 302.949219 3695.988281 334.730469 C 3709.511719 322.789062 3725.199219 310.808594 3743.238281 311.101562 C 3761.28125 311.390625 3779 331.179688 3770.429688 347.050781 C 3838.679688 301.769531 3931.988281 297.378906 4004.179688 336.058594 C 4015.898438 342.339844 4027.941406 350.78125 4031.441406 363.609375 C 4043.511719 407.871094 3932.011719 397.261719 3910.808594 398.699219 C 3852.941406 402.640625 3795.171875 408.019531 3737.570312 414.828125 C 3623.46875 428.328125 3510.039062 447.460938 3397.828125 472.121094 C 3380.199219 476 3217.738281 524.988281 3212.75 518.148438 "/>
<path fill-rule="nonzero" fill="rgb(100%, 100%, 100%)" fill-opacity="1" d="M 599.527344 400.609375 C 633.46875 401.5 667.445312 402.390625 701.242188 405.628906 C 726.457031 408.050781 751.527344 411.769531 776.585938 415.480469 C 872.070312 429.640625 967.554688 443.800781 1063.039062 457.960938 C 1071.949219 459.28125 1082.03125 460.308594 1089.058594 454.671875 C 1102.078125 444.191406 1092.640625 423.070312 1080.980469 411.089844 C 1026.621094 355.261719 938.746094 339.410156 864.117188 361.910156 C 883.175781 362.238281 897.035156 339.621094 891.957031 321.25 C 886.878906 302.890625 867.988281 290.828125 849.042969 288.761719 C 830.101562 286.679688 811.207031 292.789062 793.773438 300.488281 C 780.445312 258.839844 750.5625 222.738281 712.136719 201.851562 C 684.675781 186.921875 651.199219 179.800781 621.894531 190.660156 C 592.585938 201.53125 570.488281 234.011719 578.324219 264.261719 C 551.179688 239.589844 513.46875 226.949219 476.933594 230.289062 C 462.980469 231.570312 448.769531 235.300781 437.914062 244.160156 C 427.0625 253.019531 420.304688 267.828125 423.921875 281.359375 C 365.089844 273.230469 303.359375 288.28125 254.871094 322.570312 C 246.101562 328.78125 237.472656 335.921875 232.878906 345.640625 C 228.28125 355.351562 228.796875 368.210938 236.695312 375.511719 C 248.078125 386.011719 284.5 389.910156 300.316406 392.488281 C 332.105469 397.691406 367.480469 394.519531 399.691406 395.359375 C 466.304688 397.109375 532.917969 398.859375 599.527344 400.609375 "/>
<path fill-rule="nonzero" fill="rgb(19.993591%, 74.414062%, 55.664062%)" fill-opacity="1" d="M 4288 1712.789062 L 4288 1756.210938 C 4285 1756.101562 4282.019531 1755.980469 4279.019531 1755.878906 C 2915.289062 1706.078125 1472.648438 1895.128906 602.226562 2039.558594 C 338.71875 2029.25 128.578125 2029.429688 0.0078125 2031.320312 L 0.0078125 1786.769531 C 348.523438 1722.609375 1085.839844 1606.761719 2001.601562 1576.46875 C 2243.550781 1568.460938 2497.949219 1566.421875 2760.910156 1572.890625 C 3228.738281 1584.390625 3723.691406 1622.78125 4223.960938 1702.339844 C 4245.671875 1705.78125 4266.96875 1709.28125 4288 1712.789062 "/>
<path fill-rule="nonzero" fill="rgb(16.479492%, 64.646912%, 42.747498%)" fill-opacity="1" d="M 602.230469 2039.558594 C 1262.359375 2065.359375 2257.441406 2156.898438 3144.289062 2451.730469 C 3194.871094 2468.550781 3238.21875 2484.628906 3274.789062 2500 L 4287.988281 2500 L 4287.988281 1756.210938 C 4285 1756.101562 4282.03125 1755.988281 4279.03125 1755.878906 C 2915.300781 1706.078125 1472.671875 1895.128906 602.230469 2039.558594 "/>
<path fill-rule="nonzero" fill="rgb(10.984802%, 59.959412%, 35.301208%)" fill-opacity="1" d="M 3144.289062 2451.730469 C 2257.441406 2156.898438 1262.359375 2065.359375 602.230469 2039.558594 C 338.714844 2029.261719 128.574219 2029.429688 0 2031.328125 L 0 2500 L 3274.789062 2500 C 3238.21875 2484.628906 3194.871094 2468.550781 3144.289062 2451.730469 "/>
<path fill-rule="nonzero" fill="rgb(11.767578%, 58.789062%, 36.083984%)" fill-opacity="1" d="M 861.292969 1903.730469 L 972.792969 1877.789062 C 946.808594 1951.980469 864.445312 2024.261719 802.152344 2063.238281 C 774.433594 2057.980469 745.902344 2053.371094 716.660156 2049.460938 C 704.726562 2047.859375 692.683594 2046.371094 680.527344 2045.019531 C 644.335938 2039 577.953125 2036.398438 555.101562 2035.621094 C 554.03125 2035.578125 552.980469 2035.550781 551.929688 2035.511719 C 551.195312 2035.480469 550.527344 2035.449219 549.960938 2035.441406 C 549.644531 2035.421875 549.34375 2035.410156 549.023438 2035.398438 C 474.851562 2032.878906 404.410156 2035.519531 340.054688 2042.640625 C 326.292969 2044.160156 312.8125 2045.890625 299.632812 2047.820312 C 293.5625 2048.710938 287.566406 2049.640625 281.621094 2050.609375 C 212.132812 2024.671875 155.023438 1990.820312 125.984375 1950.828125 C 125.054688 1949.789062 124.152344 1948.769531 123.273438 1947.738281 L 207.8125 1940.921875 C 207.8125 1940.921875 165.585938 1936.859375 107.59375 1923.03125 C 82.609375 1864.429688 149.777344 1821.261719 206.902344 1873.039062 C 186.269531 1801.359375 185.445312 1730.78125 199.917969 1667.359375 L 314.300781 1716.210938 C 312.796875 1715.230469 264.585938 1683.390625 209.847656 1631.851562 C 235.203125 1555.699219 283.410156 1492.691406 345.523438 1454.820312 L 394.777344 1535.460938 C 394.339844 1534.328125 380.0625 1497.441406 366.832031 1443.078125 C 448.460938 1402.808594 550.335938 1404.148438 654.75 1470.78125 C 658.042969 1525.050781 655.5 1562.769531 655.5 1562.769531 L 674.964844 1484.46875 C 688.636719 1494.289062 702.34375 1505.25 716.027344 1517.398438 C 678.074219 1608.949219 628.042969 1677.789062 626.484375 1679.929688 L 755.492188 1556.921875 C 807.578125 1617.300781 834.8125 1689.910156 840.546875 1769.960938 C 875.925781 1748.039062 934.417969 1734.621094 959.179688 1768.058594 C 975.511719 1790.101562 981.871094 1813.609375 980.878906 1837.511719 C 917.128906 1879.570312 862.980469 1903.011719 861.292969 1903.730469 "/>
<path fill-rule="nonzero" fill="rgb(12.547302%, 16.088867%, 31.762695%)" fill-opacity="1" d="M 588.699219 2037.210938 C 575.371094 2036.441406 562.128906 2035.851562 549.023438 2035.398438 C 549.023438 2032.738281 549.023438 2030.078125 549.007812 2027.421875 C 548.75 1972.921875 547.0625 1918.488281 542.558594 1864.28125 C 540.890625 1844.160156 538.835938 1824.058594 536.308594 1804.019531 C 503.289062 1771.410156 465.742188 1742.859375 424.792969 1719.480469 C 462.792969 1735.441406 499.210938 1755.871094 533.082031 1780.320312 C 529.296875 1754.359375 524.703125 1728.5 519.066406 1702.828125 C 514.632812 1682.570312 509.566406 1662.441406 503.804688 1642.46875 C 493.011719 1633.398438 481.699219 1624.921875 469.558594 1617.699219 C 463.332031 1614.019531 456.894531 1610.679688 450.1875 1607.949219 C 443.492188 1605.21875 436.496094 1603.078125 429.230469 1602.128906 C 436.542969 1602.378906 443.832031 1603.859375 450.894531 1605.980469 C 457.957031 1608.109375 464.832031 1610.871094 471.519531 1614.019531 C 481.40625 1618.710938 490.925781 1624.160156 500.117188 1630.109375 C 491.511719 1601.851562 481.464844 1573.980469 469.792969 1546.710938 C 493.402344 1591.738281 512.574219 1639.230469 527.988281 1687.988281 C 529.460938 1684.390625 530.789062 1680.710938 531.988281 1676.960938 C 535.03125 1667.46875 537.304688 1657.589844 539.203125 1647.601562 C 543.015625 1627.589844 545.1875 1607.058594 548.65625 1586.808594 C 547.675781 1607.328125 548.019531 1627.828125 546.652344 1648.550781 C 545.964844 1658.890625 544.882812 1669.300781 542.898438 1679.710938 C 541.035156 1689.46875 538.371094 1699.261719 534.320312 1708.769531 C 548.167969 1756.070312 558.699219 1804.378906 566.886719 1853.039062 C 582.695312 1835.058594 598.6875 1817.148438 615.46875 1799.921875 C 638.03125 1776.730469 662.238281 1755.058594 688.265625 1736.101562 C 664.136719 1757.460938 642.355469 1781.070312 622.316406 1806.011719 C 604.257812 1828.460938 587.417969 1851.859375 570.453125 1875.351562 C 578.113281 1925.269531 583.554688 1975.480469 587.753906 2025.699219 C 588.070312 2029.539062 588.386719 2033.371094 588.699219 2037.210938 "/>
<path fill-rule="nonzero" fill="rgb(12.547302%, 16.088867%, 31.762695%)" fill-opacity="1" d="M 767.828125 1970.070312 C 782.640625 1968.441406 797.339844 1968.121094 811.976562 1968.050781 C 797.675781 1971.148438 783.429688 1974.519531 769.773438 1979.050781 C 759.289062 1982.480469 749.195312 1986.628906 739.527344 1991.488281 C 738.890625 1992.859375 738.214844 1994.238281 737.574219 1995.621094 C 729.519531 2013.210938 722.53125 2031.191406 716.660156 2049.460938 C 704.726562 2047.859375 692.683594 2046.371094 680.527344 2045.019531 C 690.621094 2023.519531 702.144531 2002.839844 714.941406 1983.140625 C 724.292969 1968.738281 734.335938 1954.859375 745 1941.550781 C 748.992188 1926.96875 752.460938 1912.058594 755.933594 1897.101562 C 759.617188 1881.269531 763.269531 1865.378906 767.609375 1849.710938 C 766.289062 1865.898438 765.671875 1882.078125 765.035156 1898.328125 C 764.75 1905.199219 764.460938 1912.089844 764.140625 1918.988281 C 786.238281 1894.449219 810.574219 1872.230469 836.738281 1852.828125 C 801.050781 1888.441406 771.496094 1929.25 748.707031 1972.960938 C 755.074219 1971.730469 761.457031 1970.769531 767.828125 1970.070312 "/>
<path fill-rule="nonzero" fill="rgb(12.547302%, 16.088867%, 31.762695%)" fill-opacity="1" d="M 340.054688 2042.640625 C 326.292969 2044.160156 312.8125 2045.890625 299.632812 2047.820312 C 294.949219 2034.96875 289.636719 2022.269531 283.71875 2009.761719 C 267.089844 1999.078125 249.429688 1989.679688 230.902344 1981.738281 C 245.589844 1984.191406 260.230469 1987.578125 274.722656 1991.878906 C 261.5 1966.96875 245.808594 1942.988281 227.683594 1920.550781 C 242.636719 1931.800781 256.976562 1944.121094 270.601562 1957.339844 L 273.65625 1918.148438 L 285.792969 1972.730469 C 305.808594 1994.039062 324.050781 2017.441406 340.054688 2042.640625 "/>
<path fill-rule="nonzero" fill="rgb(10.984802%, 59.959412%, 35.301208%)" fill-opacity="1" d="M 3721.109375 2029.289062 C 3715.410156 2107.570312 3702.71875 2151.019531 3673.339844 2178.480469 C 3666.328125 2178.398438 3659.289062 2178.351562 3652.210938 2178.351562 C 3627.730469 2178.351562 3603.578125 2178.859375 3579.800781 2179.859375 C 3566.941406 2180.398438 3554.199219 2181.078125 3541.570312 2181.910156 C 3467.96875 2186.660156 3398.671875 2196.109375 3335.910156 2209.390625 C 3323.738281 2211.949219 3311.828125 2214.679688 3300.171875 2217.539062 C 3281.558594 2222.078125 3263.621094 2227 3246.429688 2232.230469 C 3194.398438 2211.308594 3159.289062 2169.359375 3169.539062 2090.761719 C 3169.910156 2087.960938 3170.339844 2085.28125 3170.808594 2082.648438 L 3238.488281 2094.128906 C 3238.488281 2094.128906 3214 2085.351562 3174.140625 2068.128906 C 3199.078125 1980.671875 3290.089844 2008.261719 3316.410156 2073.878906 C 3311.339844 2061.261719 3313.289062 2045.769531 3312.019531 2030.5 C 3310.640625 2014.078125 3310.921875 1998.449219 3312.601562 1983.628906 L 3379.628906 2001.808594 C 3379.628906 2001.808594 3354.800781 1990.089844 3314.960938 1967.949219 C 3324.640625 1916.671875 3352.121094 1876.101562 3388.671875 1847.890625 C 3393.371094 1844.261719 3398.160156 1840.898438 3402.988281 1837.75 L 3452.171875 1897.75 C 3451.339844 1896.21875 3437.378906 1871.050781 3417.621094 1829.058594 C 3491.539062 1789.019531 3576.289062 1801.261719 3637.519531 1846.621094 C 3605.988281 1906.128906 3582.601562 1942.390625 3581.871094 1943.5 L 3657.050781 1863.011719 C 3684.519531 1888.980469 3705.289062 1922.519531 3715.21875 1961.328125 C 3668.519531 1987.75 3638.738281 2001.808594 3638.738281 2001.808594 L 3719.089844 1980.011719 C 3721.589844 1995.761719 3722.351562 2012.210938 3721.109375 2029.289062 "/>
<path fill-rule="nonzero" fill="rgb(12.547302%, 16.088867%, 31.762695%)" fill-opacity="1" d="M 3619.78125 2033.941406 C 3614.691406 2058.148438 3608.410156 2082.21875 3601.070312 2106.078125 C 3594.429688 2127.5 3586.949219 2148.761719 3578.261719 2169.761719 C 3578.800781 2173.121094 3579.308594 2176.480469 3579.800781 2179.859375 C 3566.941406 2180.398438 3554.199219 2181.078125 3541.570312 2181.910156 C 3542.660156 2155.210938 3542.441406 2128.320312 3540.859375 2101.390625 C 3540.429688 2100.800781 3540.011719 2100.21875 3539.519531 2099.648438 L 3537.839844 2097.511719 L 3535.949219 2095.421875 L 3534.070312 2093.339844 L 3532.03125 2091.320312 C 3526.601562 2085.890625 3520.609375 2080.78125 3514.371094 2075.929688 C 3508.109375 2071.109375 3501.570312 2066.570312 3494.800781 2062.339844 C 3488.03125 2058.171875 3481.058594 2054.199219 3473.519531 2051.371094 C 3481.480469 2052.710938 3489.25 2055.300781 3496.871094 2058.171875 C 3504.488281 2061.070312 3511.96875 2064.359375 3519.320312 2068.03125 C 3526.078125 2071.441406 3532.730469 2075.171875 3539.25 2079.410156 C 3536.390625 2046.210938 3531.519531 2013.011719 3524.53125 1980.050781 C 3544.339844 2027.460938 3559.808594 2077.171875 3570.589844 2128.320312 C 3576.238281 2119.050781 3581.71875 2109.660156 3587 2100.121094 C 3598.859375 2078.660156 3609.839844 2056.589844 3619.78125 2033.941406 "/>
<path fill-rule="nonzero" fill="rgb(12.547302%, 16.088867%, 31.762695%)" fill-opacity="1" d="M 3335.910156 2209.390625 C 3323.738281 2211.949219 3311.828125 2214.679688 3300.171875 2217.539062 C 3296.21875 2191.539062 3289.140625 2165.621094 3279 2140.550781 C 3275.410156 2140.019531 3271.941406 2139.378906 3268.46875 2138.71875 C 3263.5 2137.75 3258.609375 2136.730469 3253.730469 2135.699219 C 3248.859375 2134.660156 3243.988281 2133.640625 3239.121094 2132.679688 C 3234.25 2131.730469 3229.378906 2130.828125 3224.441406 2130.179688 C 3229.339844 2129.269531 3234.328125 2128.621094 3239.300781 2128.011719 C 3244.269531 2127.421875 3249.25 2126.910156 3254.21875 2126.378906 C 3259.171875 2125.859375 3264.109375 2125.328125 3269 2124.738281 C 3269.980469 2124.601562 3270.96875 2124.480469 3271.96875 2124.351562 C 3264.101562 2107.449219 3254.78125 2091.050781 3244.039062 2075.371094 C 3267.738281 2096.96875 3288.71875 2122.261719 3306.160156 2150.320312 L 3337.488281 2094.121094 L 3318.960938 2172.578125 C 3325.25 2184.449219 3330.910156 2196.738281 3335.910156 2209.390625 "/>
<path fill-rule="nonzero" fill="rgb(10.984802%, 59.959412%, 35.301208%)" fill-opacity="1" d="M 3736.898438 2090.390625 C 3738.109375 2105.351562 3743.839844 2123.570312 3755.679688 2145.148438 C 3758.839844 2150.878906 3762.828125 2155.589844 3767.488281 2159.421875 C 3781.28125 2158.519531 3795.300781 2157.851562 3809.5 2157.429688 C 3819.171875 2157.140625 3828.929688 2156.960938 3838.769531 2156.898438 C 3841.328125 2156.890625 3843.898438 2156.878906 3846.460938 2156.878906 C 3861.710938 2156.878906 3876.78125 2157.148438 3891.648438 2157.699219 C 3904.699219 2158.179688 3917.589844 2158.871094 3930.300781 2159.75 C 3943.21875 2160.640625 3955.941406 2161.730469 3968.460938 2163.019531 C 4052.621094 2136.308594 4064.070312 2063.191406 4061.441406 2027.640625 C 4060.730469 2018.070312 4059.539062 2008.898438 4057.949219 2000.128906 L 3991.199219 2050.21875 C 3992.070312 2049.28125 4020.230469 2018.910156 4051.320312 1972.710938 C 4043.210938 1946.46875 4031.089844 1924.710938 4016.660156 1907.570312 L 3991.210938 1957.269531 C 3991.730469 1955.53125 3998.878906 1931.640625 4005.601562 1895.75 C 3948.75 1841.28125 3866.371094 1850.308594 3843.199219 1932.109375 C 3873.800781 1979.839844 3902 2011.511719 3902.871094 2012.480469 L 3837.828125 1961.640625 C 3834.539062 1996.769531 3840.058594 2041.421875 3858.351562 2096.011719 C 3834.320312 2026.691406 3743.050781 2018.28125 3736.960938 2078 C 3762.710938 2095.148438 3780.328125 2104.601562 3780.328125 2104.601562 L 3736.898438 2090.390625 "/>
<path fill-rule="nonzero" fill="rgb(12.547302%, 16.088867%, 31.762695%)" fill-opacity="1" d="M 3891.648438 2157.699219 C 3904.699219 2158.179688 3917.589844 2158.871094 3930.300781 2159.75 C 3931.21875 2154.710938 3932.089844 2149.671875 3932.910156 2144.628906 C 3951.421875 2129.488281 3971.710938 2116 3993.511719 2104.601562 C 3974.261719 2108.519531 3955.109375 2114.070312 3936.339844 2121.199219 C 3940.191406 2092.390625 3942.519531 2063.5 3943.328125 2034.710938 C 3952.171875 2019.539062 3964.328125 2005.738281 3979.179688 1994.738281 C 3966.558594 1999.949219 3954.519531 2007.191406 3943.628906 2016.199219 C 3943.761719 1992.339844 3942.878906 1968.558594 3940.949219 1944.960938 C 3938.269531 1973.949219 3934 2002.648438 3928.289062 2030.921875 C 3928.261719 2030.941406 3928.238281 2030.960938 3928.230469 2030.988281 L 3928.261719 2031.03125 C 3927.179688 2036.410156 3926.03125 2041.78125 3924.839844 2047.128906 C 3919.960938 2035.269531 3914.359375 2023.769531 3908.089844 2012.738281 C 3913.898438 2029.679688 3918.128906 2047 3920.800781 2064.410156 C 3912.949219 2096.21875 3903.191406 2127.398438 3891.648438 2157.699219 "/>
<path fill-rule="nonzero" fill="rgb(12.547302%, 16.088867%, 31.762695%)" fill-opacity="1" d="M 3791.109375 2104.601562 C 3796.371094 2109.621094 3800.539062 2115.320312 3804.011719 2121.398438 C 3806.171875 2125.148438 3808.148438 2129.039062 3810.140625 2133.019531 C 3810.359375 2141.238281 3810.140625 2149.390625 3809.5 2157.429688 C 3819.171875 2157.140625 3828.929688 2156.960938 3838.769531 2156.898438 C 3830.929688 2129.460938 3818.699219 2104.121094 3803.160156 2082.089844 C 3805.980469 2093.351562 3807.929688 2104.660156 3809.058594 2115.921875 C 3803.53125 2111.339844 3797.480469 2107.378906 3791.109375 2104.601562 "/>
<path fill-rule="nonzero" fill="rgb(11.767578%, 58.789062%, 36.083984%)" fill-opacity="1" d="M 4094.980469 1039.140625 L 3928.109375 1135.039062 C 3928.109375 1135.039062 3993.210938 1080.449219 4068.730469 993.609375 C 4060.460938 981.179688 4051.570312 969.390625 4042.058594 958.328125 C 3996.070312 895.53125 3917.449219 866.71875 3844.988281 900.160156 C 3735.851562 942.308594 3664.46875 1028.378906 3619.25 1130.351562 C 3671.078125 1220.25 3717.050781 1278.789062 3717.050781 1278.789062 L 3601.269531 1175.421875 C 3571.121094 1259.71875 3556.441406 1351.511719 3551.441406 1436.710938 C 3544.128906 1405.570312 3525.820312 1377.109375 3501.449219 1355.019531 L 3468.980469 1430.480469 C 3468.980469 1430.480469 3477.730469 1393.121094 3482.359375 1339.878906 C 3449.789062 1317.351562 3410.210938 1305.359375 3372.171875 1310.351562 C 3342.640625 1314.230469 3316.988281 1332.328125 3302.300781 1358.21875 C 3299.5 1363.160156 3296.988281 1368.261719 3294.730469 1373.488281 C 3340.230469 1422.421875 3378.21875 1452.679688 3378.21875 1452.679688 L 3285.128906 1402.269531 C 3275.171875 1442.738281 3277.070312 1488.671875 3284.550781 1533.789062 C 3289.050781 1560.890625 3295.011719 1590.929688 3304.878906 1622.5 C 3367.578125 1654.539062 3416.960938 1670.660156 3416.960938 1670.660156 L 3316.980469 1656.628906 C 3350.050781 1739.488281 3414.359375 1829.140625 3551 1902.449219 C 3705.480469 1985.308594 3899.648438 1935.261719 4010.03125 1799.101562 C 4011.410156 1797.398438 4012.78125 1795.691406 4014.140625 1793.960938 C 4080.179688 1710.089844 4124.648438 1594.378906 4144.320312 1472.769531 L 4046.210938 1480.628906 C 4046.210938 1480.628906 4085.601562 1470.578125 4147.738281 1449.738281 C 4167.390625 1304.390625 4151.660156 1153 4094.980469 1039.140625 "/>
<path fill-rule="nonzero" fill="rgb(12.547302%, 16.088867%, 31.762695%)" fill-opacity="1" d="M 3875.761719 1382.050781 C 3855.371094 1396.921875 3835.628906 1412.660156 3816.230469 1428.75 C 3819.460938 1407.988281 3822.96875 1387.261719 3826.769531 1366.578125 C 3835.160156 1320.789062 3844.96875 1275.21875 3856.089844 1229.949219 C 3866.839844 1219.398438 3876.738281 1208.140625 3886.648438 1196.941406 C 3897.191406 1185.03125 3907.671875 1173.070312 3919.148438 1162.03125 C 3907.199219 1172.550781 3896.148438 1184.078125 3885.101562 1195.511719 C 3876.148438 1204.769531 3867.21875 1214.050781 3857.851562 1222.789062 C 3867.628906 1183.480469 3878.378906 1144.378906 3890.070312 1105.539062 C 3869.800781 1164.179688 3851.640625 1223.589844 3835.828125 1283.671875 C 3833.460938 1267.441406 3830.300781 1251.390625 3826.75 1235.460938 C 3821.550781 1212.328125 3815.480469 1189.460938 3809.179688 1166.671875 C 3814.121094 1189.789062 3818.820312 1212.96875 3822.609375 1236.261719 C 3826.351562 1259.429688 3829.28125 1282.75 3830.070312 1306.011719 C 3825.171875 1325.410156 3820.5 1344.871094 3816.089844 1364.398438 C 3796.28125 1452.089844 3781.589844 1541.019531 3771.550781 1630.5 C 3765.300781 1686.070312 3760.761719 1741.820312 3757.5 1797.640625 C 3734.871094 1781.949219 3712.828125 1765.101562 3691.359375 1747.539062 C 3653.859375 1716.789062 3617.96875 1683.800781 3583.570312 1649.261719 C 3563.171875 1628.671875 3543.300781 1607.5 3524.019531 1585.78125 C 3517.941406 1543.398438 3508.769531 1501.648438 3496.640625 1460.949219 C 3503.128906 1496.738281 3507.308594 1532.820312 3509.238281 1568.890625 C 3501.199219 1559.558594 3493.28125 1550.128906 3485.46875 1540.589844 C 3454.578125 1502.730469 3425.429688 1463.300781 3399.941406 1421.390625 C 3420.21875 1460.128906 3443.640625 1497.261719 3468.730469 1533.21875 C 3455.828125 1530.121094 3442.871094 1526.789062 3429.820312 1523.878906 C 3421.121094 1521.929688 3412.371094 1520.140625 3403.558594 1518.71875 C 3394.75 1517.320312 3385.871094 1516.261719 3376.980469 1516.109375 C 3385.800781 1517.171875 3394.449219 1519.128906 3402.980469 1521.410156 C 3411.519531 1523.710938 3419.949219 1526.371094 3428.339844 1529.179688 C 3444.988281 1534.738281 3461.359375 1541 3478.230469 1546.671875 C 3500.320312 1577.480469 3523.640625 1607.449219 3548 1636.589844 C 3519.738281 1647.421875 3489.171875 1653.820312 3457.820312 1655.078125 C 3492.011719 1661.28125 3527.980469 1661.339844 3563.488281 1654.828125 C 3565.578125 1657.261719 3567.660156 1659.691406 3569.761719 1662.109375 C 3602.269531 1699.21875 3636.449219 1734.980469 3672.710938 1768.828125 C 3674.96875 1770.949219 3677.199219 1773.109375 3679.480469 1775.210938 L 3686.429688 1781.410156 L 3700.351562 1793.808594 C 3702.671875 1795.871094 3704.96875 1797.960938 3707.328125 1800 L 3714.511719 1805.96875 L 3728.898438 1817.921875 C 3731.320312 1819.878906 3733.648438 1821.960938 3736.148438 1823.839844 L 3743.589844 1829.550781 L 3755.339844 1838.550781 C 3754.371094 1858.988281 3753.539062 1879.441406 3752.859375 1899.878906 C 3749.878906 1989.839844 3749.460938 2079.789062 3749.921875 2169.609375 L 3793.480469 2168.5 C 3789.398438 2079.058594 3786.199219 1989.671875 3785.539062 1900.308594 C 3784.890625 1810.960938 3786.859375 1721.609375 3793.238281 1632.5 C 3797.558594 1572 3804.03125 1511.628906 3812.789062 1451.550781 C 3834.789062 1429.730469 3857.121094 1408.308594 3880.558594 1388.109375 C 3904.5 1367.46875 3929.660156 1348.160156 3956.289062 1330.859375 C 3928.351562 1345.941406 3901.519531 1363.25 3875.761719 1382.050781 "/>
<path fill-rule="nonzero" fill="rgb(19.993591%, 74.414062%, 55.664062%)" fill-opacity="1" d="M 3869.519531 1781.539062 C 3875.070312 1731.269531 3889.410156 1560.648438 3844.738281 1440.238281 L 3715.089844 1514.75 C 3715.089844 1514.75 3764.941406 1472.949219 3828.589844 1404.089844 C 3805.96875 1361.878906 3773.25 1330.078125 3726.351562 1318.921875 C 3621.640625 1304.230469 3554.070312 1414.828125 3513.070312 1526.171875 C 3540.21875 1590.179688 3562.019531 1630.011719 3562.019531 1630.011719 L 3502.640625 1556.140625 C 3493.390625 1584.308594 3485.789062 1611.789062 3479.691406 1636.519531 C 3539.160156 1699.851562 3584.550781 1737.898438 3584.550781 1737.898438 L 3471.308594 1672.828125 C 3462.800781 1712.339844 3459.101562 1738.691406 3459.101562 1738.691406 C 3443.339844 1851.039062 3522.390625 1955.859375 3634.769531 1971.609375 C 3742.421875 1986.710938 3843.128906 1914.828125 3865.289062 1810.019531 L 3750.308594 1803.828125 C 3750.308594 1803.828125 3798.191406 1797.941406 3869.519531 1781.539062 "/>
<path fill-rule="nonzero" fill="rgb(12.547302%, 16.088867%, 31.762695%)" fill-opacity="1" d="M 3737.191406 1776.960938 C 3727.078125 1781.78125 3717.101562 1786.871094 3707.210938 1792.171875 C 3697.328125 1797.46875 3687.539062 1802.980469 3677.851562 1808.691406 C 3673.980469 1810.96875 3670.128906 1813.300781 3666.289062 1815.648438 C 3667.53125 1762.710938 3670.519531 1709.769531 3675.210938 1656.929688 C 3694.660156 1623.558594 3719.589844 1593.101562 3748.910156 1567.179688 C 3721.949219 1587.359375 3697.640625 1611.390625 3676.929688 1638.410156 C 3683.589844 1569.320312 3693.179688 1500.429688 3705.78125 1432 C 3693.058594 1484.820312 3682.121094 1538.109375 3672.960938 1591.761719 L 3629.640625 1501.101562 L 3670.53125 1606.359375 C 3664.28125 1644.351562 3658.910156 1682.5 3654.441406 1720.789062 C 3637.660156 1699.109375 3619.128906 1679.03125 3599.121094 1660.859375 C 3619.800781 1687.078125 3637.441406 1715.328125 3651.75 1744.839844 C 3648.148438 1778.628906 3645.238281 1812.5 3643.03125 1846.429688 C 3637.011719 1838.988281 3630.859375 1831.75 3624.621094 1824.609375 C 3610.328125 1808.300781 3595.648438 1792.480469 3580.621094 1777.03125 C 3592.429688 1795.039062 3603.800781 1813.320312 3614.589844 1831.820312 C 3619.96875 1841.070312 3625.199219 1850.378906 3630.101562 1859.761719 C 3632.539062 1864.441406 3634.929688 1869.148438 3637.089844 1873.839844 C 3638.519531 1876.808594 3639.789062 1879.769531 3640.960938 1882.691406 C 3640.578125 1890.328125 3640.238281 2156.730469 3650.941406 2259.730469 L 3695.609375 2253.878906 C 3673.941406 2117.660156 3664 1979.261719 3665.828125 1840.691406 C 3672.800781 1834.359375 3679.96875 1828.148438 3687.261719 1822.058594 C 3695.730469 1814.988281 3704.359375 1808.070312 3713.128906 1801.320312 C 3721.898438 1794.578125 3730.820312 1788.011719 3739.921875 1781.671875 C 3749.03125 1775.339844 3758.308594 1769.238281 3767.929688 1763.628906 C 3757.519531 1767.601562 3747.289062 1772.148438 3737.191406 1776.960938 "/>
<path fill-rule="nonzero" fill="rgb(16.479492%, 64.646912%, 42.747498%)" fill-opacity="1" d="M 743.984375 2033.480469 C 742.316406 2054.171875 734.394531 2079.371094 718.015625 2109.21875 C 713.644531 2117.160156 708.121094 2123.660156 701.683594 2128.960938 C 682.601562 2127.710938 663.21875 2126.789062 643.570312 2126.210938 C 630.191406 2125.808594 616.699219 2125.558594 603.085938 2125.480469 C 599.550781 2125.460938 595.996094 2125.441406 592.445312 2125.441406 C 571.363281 2125.441406 550.511719 2125.828125 529.945312 2126.578125 C 511.894531 2127.238281 494.0625 2128.191406 476.484375 2129.410156 C 458.617188 2130.648438 441.023438 2132.160156 423.707031 2133.949219 C 307.296875 2097 291.464844 1995.859375 295.101562 1946.691406 C 296.085938 1933.449219 297.722656 1920.769531 299.921875 1908.628906 L 392.25 1977.921875 C 391.046875 1976.621094 352.097656 1934.609375 309.097656 1870.710938 C 320.308594 1834.410156 337.070312 1804.308594 357.035156 1780.621094 L 392.230469 1849.351562 C 391.515625 1846.949219 381.625 1813.898438 372.332031 1764.261719 C 450.964844 1688.921875 564.90625 1701.410156 596.964844 1814.550781 C 554.632812 1880.570312 515.632812 1924.371094 514.429688 1925.71875 L 604.386719 1855.410156 C 608.941406 1904 601.300781 1965.75 576 2041.25 C 609.242188 1945.371094 735.476562 1933.75 743.902344 2016.339844 C 708.289062 2040.070312 683.921875 2053.140625 683.921875 2053.140625 L 743.984375 2033.480469 "/>
<path fill-rule="nonzero" fill="rgb(12.547302%, 16.088867%, 31.762695%)" fill-opacity="1" d="M 529.945312 2126.578125 C 511.894531 2127.238281 494.0625 2128.191406 476.484375 2129.410156 C 475.214844 2122.441406 474.015625 2115.46875 472.882812 2108.5 C 447.277344 2087.558594 419.203125 2068.898438 389.0625 2053.140625 C 415.683594 2058.558594 442.171875 2066.230469 468.128906 2076.101562 C 462.804688 2036.25 459.585938 1996.289062 458.46875 1956.46875 C 446.242188 1935.480469 429.414062 1916.398438 408.878906 1901.179688 C 426.324219 1908.378906 442.988281 1918.398438 458.050781 1930.859375 C 457.867188 1897.859375 459.085938 1864.980469 461.753906 1832.328125 C 465.457031 1872.429688 471.363281 1912.121094 479.269531 1951.21875 C 479.304688 1951.25 479.335938 1951.289062 479.351562 1951.320312 L 479.304688 1951.371094 C 480.804688 1958.820312 482.390625 1966.25 484.039062 1973.648438 C 490.796875 1957.238281 498.535156 1941.328125 507.210938 1926.070312 C 499.167969 1949.5 493.3125 1973.46875 489.628906 1997.539062 C 500.488281 2041.550781 513.980469 2084.671875 529.945312 2126.578125 "/>
<path fill-rule="nonzero" fill="rgb(12.547302%, 16.088867%, 31.762695%)" fill-opacity="1" d="M 669.007812 2053.140625 C 661.734375 2060.078125 655.964844 2067.960938 651.160156 2076.371094 C 648.175781 2081.550781 645.4375 2086.941406 642.6875 2092.441406 C 642.386719 2103.820312 642.6875 2115.089844 643.570312 2126.210938 C 630.191406 2125.808594 616.699219 2125.558594 603.085938 2125.480469 C 613.929688 2087.519531 630.84375 2052.46875 652.34375 2022.011719 C 648.441406 2037.578125 645.738281 2053.21875 644.1875 2068.800781 C 651.828125 2062.460938 660.199219 2056.96875 669.007812 2053.140625 "/>
<g clip-path="url(#clip-3)">
<g clip-path="url(#clip-4)">
<g clip-path="url(#clip-5)">
<path fill-rule="nonzero" fill="url(#linear-pattern-1)" d="M 3969.179688 1573.890625 L 3969.179688 1583.089844 L 3975.808594 1583.089844 L 3975.808594 1573.890625 Z M 3969.179688 1573.890625 "/>
</g>
</g>
</g>
</svg>
