<?xml version="1.0" encoding="UTF-8"?>
<svg xmlns="http://www.w3.org/2000/svg" xmlns:xlink="http://www.w3.org/1999/xlink" width="5000" height="3200" viewBox="0 0 5000 3200">
<defs>
<linearGradient id="linear-pattern-0" gradientUnits="userSpaceOnUse" x1="-0.115148" y1="0" x2="0.603542" y2="0" gradientTransform="matrix(-86.2157, -4581.83, 4581.83, -86.2157, 2521.05, 2718.87)">
<stop offset="0" stop-color="rgb(16.055298%, 24.72229%, 59.384155%)" stop-opacity="1"/>
<stop offset="0.125" stop-color="rgb(16.055298%, 24.72229%, 59.384155%)" stop-opacity="1"/>
<stop offset="0.1875" stop-color="rgb(16.055298%, 24.72229%, 59.384155%)" stop-opacity="1"/>
<stop offset="0.195312" stop-color="rgb(16.059875%, 24.725342%, 59.310913%)" stop-opacity="1"/>
<stop offset="0.203125" stop-color="rgb(16.067505%, 24.728394%, 59.211731%)" stop-opacity="1"/>
<stop offset="0.207031" stop-color="rgb(16.07666%, 24.732971%, 59.082031%)" stop-opacity="1"/>
<stop offset="0.210938" stop-color="rgb(16.08429%, 24.737549%, 58.979797%)" stop-opacity="1"/>
<stop offset="0.214844" stop-color="rgb(16.12854%, 24.647522%, 58.805847%)" stop-opacity="1"/>
<stop offset="0.21875" stop-color="rgb(16.171265%, 24.555969%, 58.628845%)" stop-opacity="1"/>
<stop offset="0.222656" stop-color="rgb(16.186523%, 24.563599%, 58.427429%)" stop-opacity="1"/>
<stop offset="0.226562" stop-color="rgb(16.201782%, 24.572754%, 58.224487%)" stop-opacity="1"/>
<stop offset="0.230469" stop-color="rgb(16.246033%, 24.502563%, 57.966614%)" stop-opacity="1"/>
<stop offset="0.234375" stop-color="rgb(16.290283%, 24.433899%, 57.710266%)" stop-opacity="1"/>
<stop offset="0.238281" stop-color="rgb(16.313171%, 24.398804%, 57.450867%)" stop-opacity="1"/>
<stop offset="0.242187" stop-color="rgb(16.33606%, 24.363708%, 57.189941%)" stop-opacity="1"/>
<stop offset="0.246094" stop-color="rgb(16.381836%, 24.209595%, 56.710815%)" stop-opacity="1"/>
<stop offset="0.25" stop-color="rgb(16.426086%, 24.055481%, 56.231689%)" stop-opacity="1"/>
<stop offset="0.253906" stop-color="rgb(16.464233%, 24.024963%, 55.9021%)" stop-opacity="1"/>
<stop offset="0.257812" stop-color="rgb(16.503906%, 23.995972%, 55.57251%)" stop-opacity="1"/>
<stop offset="0.261719" stop-color="rgb(16.560364%, 23.880005%, 55.358887%)" stop-opacity="1"/>
<stop offset="0.265625" stop-color="rgb(16.616821%, 23.765564%, 55.142212%)" stop-opacity="1"/>
<stop offset="0.269531" stop-color="rgb(16.656494%, 23.707581%, 54.898071%)" stop-opacity="1"/>
<stop offset="0.273438" stop-color="rgb(16.697693%, 23.648071%, 54.653931%)" stop-opacity="1"/>
<stop offset="0.277344" stop-color="rgb(16.674805%, 23.606873%, 54.423523%)" stop-opacity="1"/>
<stop offset="0.28125" stop-color="rgb(16.651917%, 23.564148%, 54.193115%)" stop-opacity="1"/>
<stop offset="0.285156" stop-color="rgb(16.682434%, 23.460388%, 53.993225%)" stop-opacity="1"/>
<stop offset="0.289062" stop-color="rgb(16.711426%, 23.355103%, 53.793335%)" stop-opacity="1"/>
<stop offset="0.292969" stop-color="rgb(16.674805%, 23.297119%, 53.553772%)" stop-opacity="1"/>
<stop offset="0.296875" stop-color="rgb(16.636658%, 23.239136%, 53.314209%)" stop-opacity="1"/>
<stop offset="0.300781" stop-color="rgb(16.63208%, 23.075867%, 53.085327%)" stop-opacity="1"/>
<stop offset="0.304688" stop-color="rgb(16.627502%, 22.911072%, 52.857971%)" stop-opacity="1"/>
<stop offset="0.308594" stop-color="rgb(16.648865%, 22.747803%, 52.648926%)" stop-opacity="1"/>
<stop offset="0.3125" stop-color="rgb(16.671753%, 22.584534%, 52.438354%)" stop-opacity="1"/>
<stop offset="0.320312" stop-color="rgb(16.664124%, 22.50061%, 52.284241%)" stop-opacity="1"/>
<stop offset="0.324219" stop-color="rgb(16.651917%, 22.270203%, 51.843262%)" stop-opacity="1"/>
<stop offset="0.328125" stop-color="rgb(16.647339%, 22.122192%, 51.556396%)" stop-opacity="1"/>
<stop offset="0.332031" stop-color="rgb(16.629028%, 22.013855%, 51.287842%)" stop-opacity="1"/>
<stop offset="0.335937" stop-color="rgb(16.610718%, 21.903992%, 51.017761%)" stop-opacity="1"/>
<stop offset="0.339844" stop-color="rgb(16.590881%, 21.813965%, 50.692749%)" stop-opacity="1"/>
<stop offset="0.34375" stop-color="rgb(16.572571%, 21.723938%, 50.370789%)" stop-opacity="1"/>
<stop offset="0.347656" stop-color="rgb(16.529846%, 21.70105%, 50.064087%)" stop-opacity="1"/>
<stop offset="0.351562" stop-color="rgb(16.487122%, 21.678162%, 49.758911%)" stop-opacity="1"/>
<stop offset="0.355469" stop-color="rgb(16.430664%, 21.687317%, 49.475098%)" stop-opacity="1"/>
<stop offset="0.359375" stop-color="rgb(16.375732%, 21.694946%, 49.191284%)" stop-opacity="1"/>
<stop offset="0.363281" stop-color="rgb(16.339111%, 21.640015%, 48.936462%)" stop-opacity="1"/>
<stop offset="0.367188" stop-color="rgb(16.300964%, 21.585083%, 48.683167%)" stop-opacity="1"/>
<stop offset="0.371094" stop-color="rgb(16.268921%, 21.533203%, 48.362732%)" stop-opacity="1"/>
<stop offset="0.375" stop-color="rgb(16.236877%, 21.481323%, 48.043823%)" stop-opacity="1"/>
<stop offset="0.378906" stop-color="rgb(16.200256%, 21.322632%, 47.65625%)" stop-opacity="1"/>
<stop offset="0.382812" stop-color="rgb(16.163635%, 21.16394%, 47.270203%)" stop-opacity="1"/>
<stop offset="0.386719" stop-color="rgb(16.130066%, 21.083069%, 46.937561%)" stop-opacity="1"/>
<stop offset="0.390625" stop-color="rgb(16.096497%, 21.003723%, 46.604919%)" stop-opacity="1"/>
<stop offset="0.394531" stop-color="rgb(16.059875%, 20.881653%, 46.246338%)" stop-opacity="1"/>
<stop offset="0.398438" stop-color="rgb(16.02478%, 20.761108%, 45.890808%)" stop-opacity="1"/>
<stop offset="0.402344" stop-color="rgb(15.953064%, 20.603943%, 45.51239%)" stop-opacity="1"/>
<stop offset="0.40625" stop-color="rgb(15.881348%, 20.448303%, 45.135498%)" stop-opacity="1"/>
<stop offset="0.410156" stop-color="rgb(15.83252%, 20.251465%, 44.667053%)" stop-opacity="1"/>
<stop offset="0.414062" stop-color="rgb(15.782166%, 20.054626%, 44.20166%)" stop-opacity="1"/>
<stop offset="0.417969" stop-color="rgb(15.690613%, 19.93866%, 43.894958%)" stop-opacity="1"/>
<stop offset="0.421875" stop-color="rgb(15.59906%, 19.821167%, 43.588257%)" stop-opacity="1"/>
<stop offset="0.425781" stop-color="rgb(15.509033%, 19.706726%, 43.266296%)" stop-opacity="1"/>
<stop offset="0.429687" stop-color="rgb(15.419006%, 19.589233%, 42.945862%)" stop-opacity="1"/>
<stop offset="0.433594" stop-color="rgb(15.341187%, 19.445801%, 42.584229%)" stop-opacity="1"/>
<stop offset="0.4375" stop-color="rgb(15.263367%, 19.302368%, 42.222595%)" stop-opacity="1"/>
<stop offset="0.441406" stop-color="rgb(15.194702%, 19.136047%, 41.848755%)" stop-opacity="1"/>
<stop offset="0.445312" stop-color="rgb(15.126038%, 18.969727%, 41.47644%)" stop-opacity="1"/>
<stop offset="0.449219" stop-color="rgb(15.068054%, 18.77594%, 41.088867%)" stop-opacity="1"/>
<stop offset="0.453125" stop-color="rgb(15.010071%, 18.582153%, 40.701294%)" stop-opacity="1"/>
<stop offset="0.457031" stop-color="rgb(14.933777%, 18.432617%, 40.342712%)" stop-opacity="1"/>
<stop offset="0.460938" stop-color="rgb(14.859009%, 18.283081%, 39.984131%)" stop-opacity="1"/>
<stop offset="0.464844" stop-color="rgb(14.810181%, 18.063354%, 39.584351%)" stop-opacity="1"/>
<stop offset="0.46875" stop-color="rgb(14.761353%, 17.845154%, 39.18457%)" stop-opacity="1"/>
<stop offset="0.472656" stop-color="rgb(14.686584%, 17.712402%, 38.865662%)" stop-opacity="1"/>
<stop offset="0.476562" stop-color="rgb(14.613342%, 17.579651%, 38.546753%)" stop-opacity="1"/>
<stop offset="0.480469" stop-color="rgb(14.590454%, 17.462158%, 38.35144%)" stop-opacity="1"/>
<stop offset="0.484375" stop-color="rgb(14.569092%, 17.344666%, 38.156128%)" stop-opacity="1"/>
<stop offset="0.488281" stop-color="rgb(14.48822%, 17.248535%, 37.921143%)" stop-opacity="1"/>
<stop offset="0.492188" stop-color="rgb(14.408875%, 17.153931%, 37.686157%)" stop-opacity="1"/>
<stop offset="0.496094" stop-color="rgb(14.299011%, 16.914368%, 37.199402%)" stop-opacity="1"/>
<stop offset="0.5" stop-color="rgb(14.189148%, 16.673279%, 36.714172%)" stop-opacity="1"/>
<stop offset="0.503906" stop-color="rgb(14.074707%, 16.53595%, 36.291504%)" stop-opacity="1"/>
<stop offset="0.507813" stop-color="rgb(13.960266%, 16.398621%, 35.870361%)" stop-opacity="1"/>
<stop offset="0.511719" stop-color="rgb(13.833618%, 16.246033%, 35.441589%)" stop-opacity="1"/>
<stop offset="0.515625" stop-color="rgb(13.705444%, 16.094971%, 35.015869%)" stop-opacity="1"/>
<stop offset="0.519531" stop-color="rgb(13.607788%, 15.937805%, 34.675598%)" stop-opacity="1"/>
<stop offset="0.523438" stop-color="rgb(13.508606%, 15.78064%, 34.336853%)" stop-opacity="1"/>
<stop offset="0.527344" stop-color="rgb(13.412476%, 15.605164%, 33.909607%)" stop-opacity="1"/>
<stop offset="0.53125" stop-color="rgb(13.316345%, 15.429688%, 33.483887%)" stop-opacity="1"/>
<stop offset="0.535156" stop-color="rgb(13.226318%, 15.310669%, 33.164978%)" stop-opacity="1"/>
<stop offset="0.539062" stop-color="rgb(13.136292%, 15.19165%, 32.847595%)" stop-opacity="1"/>
<stop offset="0.542969" stop-color="rgb(13.075256%, 15.034485%, 32.553101%)" stop-opacity="1"/>
<stop offset="0.546875" stop-color="rgb(13.014221%, 14.877319%, 32.258606%)" stop-opacity="1"/>
<stop offset="0.550781" stop-color="rgb(12.913513%, 14.761353%, 31.958008%)" stop-opacity="1"/>
<stop offset="0.554688" stop-color="rgb(12.814331%, 14.646912%, 31.65741%)" stop-opacity="1"/>
<stop offset="0.558594" stop-color="rgb(12.722778%, 14.637756%, 31.517029%)" stop-opacity="1"/>
<stop offset="0.5625" stop-color="rgb(12.631226%, 14.628601%, 31.376648%)" stop-opacity="1"/>
<stop offset="0.566406" stop-color="rgb(12.528992%, 14.512634%, 31.095886%)" stop-opacity="1"/>
<stop offset="0.570312" stop-color="rgb(12.428284%, 14.395142%, 30.813599%)" stop-opacity="1"/>
<stop offset="0.574219" stop-color="rgb(12.361145%, 14.317322%, 30.596924%)" stop-opacity="1"/>
<stop offset="0.578125" stop-color="rgb(12.295532%, 14.237976%, 30.378723%)" stop-opacity="1"/>
<stop offset="0.582031" stop-color="rgb(12.159729%, 14.085388%, 30.053711%)" stop-opacity="1"/>
<stop offset="0.585937" stop-color="rgb(12.025452%, 13.931274%, 29.728699%)" stop-opacity="1"/>
<stop offset="0.589844" stop-color="rgb(11.91864%, 13.809204%, 29.472351%)" stop-opacity="1"/>
<stop offset="0.59375" stop-color="rgb(11.813354%, 13.68866%, 29.217529%)" stop-opacity="1"/>
<stop offset="0.597656" stop-color="rgb(11.685181%, 13.542175%, 28.910828%)" stop-opacity="1"/>
<stop offset="0.601563" stop-color="rgb(11.558533%, 13.397217%, 28.604126%)" stop-opacity="1"/>
<stop offset="0.605469" stop-color="rgb(11.463928%, 13.287354%, 28.323364%)" stop-opacity="1"/>
<stop offset="0.609375" stop-color="rgb(11.367798%, 13.17749%, 28.041077%)" stop-opacity="1"/>
<stop offset="0.613281" stop-color="rgb(11.25946%, 13.139343%, 27.87323%)" stop-opacity="1"/>
<stop offset="0.617188" stop-color="rgb(11.151123%, 13.101196%, 27.705383%)" stop-opacity="1"/>
<stop offset="0.621094" stop-color="rgb(11.051941%, 12.985229%, 27.412415%)" stop-opacity="1"/>
<stop offset="0.625" stop-color="rgb(10.951233%, 12.866211%, 27.120972%)" stop-opacity="1"/>
<stop offset="0.628906" stop-color="rgb(10.887146%, 12.791443%, 26.916504%)" stop-opacity="1"/>
<stop offset="0.632812" stop-color="rgb(10.823059%, 12.716675%, 26.712036%)" stop-opacity="1"/>
<stop offset="0.636719" stop-color="rgb(10.739136%, 12.693787%, 26.547241%)" stop-opacity="1"/>
<stop offset="0.640625" stop-color="rgb(10.655212%, 12.670898%, 26.38092%)" stop-opacity="1"/>
<stop offset="0.644531" stop-color="rgb(10.5896%, 12.599182%, 26.18866%)" stop-opacity="1"/>
<stop offset="0.648438" stop-color="rgb(10.522461%, 12.527466%, 25.994873%)" stop-opacity="1"/>
<stop offset="0.652344" stop-color="rgb(10.456848%, 12.449646%, 25.823975%)" stop-opacity="1"/>
<stop offset="0.65625" stop-color="rgb(10.391235%, 12.371826%, 25.654602%)" stop-opacity="1"/>
<stop offset="0.660156" stop-color="rgb(10.316467%, 12.322998%, 25.469971%)" stop-opacity="1"/>
<stop offset="0.664062" stop-color="rgb(10.243225%, 12.272644%, 25.285339%)" stop-opacity="1"/>
<stop offset="0.667969" stop-color="rgb(10.168457%, 12.226868%, 25.10376%)" stop-opacity="1"/>
<stop offset="0.671875" stop-color="rgb(10.093689%, 12.17804%, 24.92218%)" stop-opacity="1"/>
<stop offset="0.675781" stop-color="rgb(9.992981%, 12.059021%, 24.636841%)" stop-opacity="1"/>
<stop offset="0.679687" stop-color="rgb(9.893799%, 11.940002%, 24.351501%)" stop-opacity="1"/>
<stop offset="0.683594" stop-color="rgb(9.82666%, 11.860657%, 24.191284%)" stop-opacity="1"/>
<stop offset="0.6875" stop-color="rgb(9.759521%, 11.781311%, 24.031067%)" stop-opacity="1"/>
<stop offset="0.691406" stop-color="rgb(9.663391%, 11.66687%, 23.75946%)" stop-opacity="1"/>
<stop offset="0.695312" stop-color="rgb(9.567261%, 11.552429%, 23.486328%)" stop-opacity="1"/>
<stop offset="0.699219" stop-color="rgb(9.498596%, 11.470032%, 23.291016%)" stop-opacity="1"/>
<stop offset="0.703125" stop-color="rgb(9.429932%, 11.387634%, 23.094177%)" stop-opacity="1"/>
<stop offset="0.707031" stop-color="rgb(9.294128%, 11.271667%, 22.808838%)" stop-opacity="1"/>
<stop offset="0.710938" stop-color="rgb(9.159851%, 11.155701%, 22.525024%)" stop-opacity="1"/>
<stop offset="0.714844" stop-color="rgb(9.054565%, 11.061096%, 22.306824%)" stop-opacity="1"/>
<stop offset="0.71875" stop-color="rgb(8.94928%, 10.966492%, 22.088623%)" stop-opacity="1"/>
<stop offset="0.722656" stop-color="rgb(8.821106%, 10.835266%, 21.806335%)" stop-opacity="1"/>
<stop offset="0.726562" stop-color="rgb(8.692932%, 10.702515%, 21.524048%)" stop-opacity="1"/>
<stop offset="0.730469" stop-color="rgb(8.609009%, 10.652161%, 21.374512%)" stop-opacity="1"/>
<stop offset="0.734375" stop-color="rgb(8.52356%, 10.600281%, 21.224976%)" stop-opacity="1"/>
<stop offset="0.738281" stop-color="rgb(8.427429%, 10.482788%, 20.993042%)" stop-opacity="1"/>
<stop offset="0.742188" stop-color="rgb(8.329773%, 10.366821%, 20.761108%)" stop-opacity="1"/>
<stop offset="0.746094" stop-color="rgb(8.24585%, 10.334778%, 20.63446%)" stop-opacity="1"/>
<stop offset="0.75" stop-color="rgb(8.161926%, 10.302734%, 20.506287%)" stop-opacity="1"/>
<stop offset="0.753906" stop-color="rgb(8.096313%, 10.221863%, 20.347595%)" stop-opacity="1"/>
<stop offset="0.757812" stop-color="rgb(8.030701%, 10.140991%, 20.187378%)" stop-opacity="1"/>
<stop offset="0.761719" stop-color="rgb(7.966614%, 10.061646%, 19.996643%)" stop-opacity="1"/>
<stop offset="0.765625" stop-color="rgb(7.902527%, 9.9823%, 19.804382%)" stop-opacity="1"/>
<stop offset="0.769531" stop-color="rgb(7.836914%, 9.901428%, 19.631958%)" stop-opacity="1"/>
<stop offset="0.773437" stop-color="rgb(7.771301%, 9.822083%, 19.46106%)" stop-opacity="1"/>
<stop offset="0.78125" stop-color="rgb(7.743835%, 9.786987%, 19.360352%)" stop-opacity="1"/>
<stop offset="0.785156" stop-color="rgb(7.650757%, 9.671021%, 19.07959%)" stop-opacity="1"/>
<stop offset="0.789062" stop-color="rgb(7.58667%, 9.591675%, 18.899536%)" stop-opacity="1"/>
<stop offset="0.792969" stop-color="rgb(7.487488%, 9.469604%, 18.62793%)" stop-opacity="1"/>
<stop offset="0.796875" stop-color="rgb(7.388306%, 9.347534%, 18.359375%)" stop-opacity="1"/>
<stop offset="0.800781" stop-color="rgb(7.305908%, 9.309387%, 18.226624%)" stop-opacity="1"/>
<stop offset="0.804688" stop-color="rgb(7.223511%, 9.27124%, 18.095398%)" stop-opacity="1"/>
<stop offset="0.808594" stop-color="rgb(7.182312%, 9.220886%, 17.984009%)" stop-opacity="1"/>
<stop offset="0.8125" stop-color="rgb(7.141113%, 9.169006%, 17.871094%)" stop-opacity="1"/>
<stop offset="0.828125" stop-color="rgb(7.142639%, 9.170532%, 17.854309%)" stop-opacity="1"/>
<stop offset="0.835938" stop-color="rgb(7.154846%, 9.140015%, 17.816162%)" stop-opacity="1"/>
<stop offset="0.84375" stop-color="rgb(7.170105%, 9.095764%, 17.78717%)" stop-opacity="1"/>
<stop offset="0.875" stop-color="rgb(7.173157%, 9.083557%, 17.779541%)" stop-opacity="1"/>
<stop offset="0.890625" stop-color="rgb(7.174683%, 9.083557%, 17.765808%)" stop-opacity="1"/>
<stop offset="0.90625" stop-color="rgb(7.177734%, 9.085083%, 17.736816%)" stop-opacity="1"/>
<stop offset="0.921875" stop-color="rgb(7.177734%, 9.086609%, 17.720032%)" stop-opacity="1"/>
<stop offset="0.929688" stop-color="rgb(7.192993%, 9.04541%, 17.692566%)" stop-opacity="1"/>
<stop offset="0.933594" stop-color="rgb(7.171631%, 8.958435%, 17.579651%)" stop-opacity="1"/>
<stop offset="0.9375" stop-color="rgb(7.136536%, 8.912659%, 17.494202%)" stop-opacity="1"/>
<stop offset="0.96875" stop-color="rgb(7.136536%, 8.912659%, 17.494202%)" stop-opacity="1"/>
<stop offset="0.984375" stop-color="rgb(7.145691%, 8.883667%, 17.475891%)" stop-opacity="1"/>
<stop offset="0.992188" stop-color="rgb(7.131958%, 8.805847%, 17.381287%)" stop-opacity="1"/>
<stop offset="1" stop-color="rgb(7.10144%, 8.74939%, 17.288208%)" stop-opacity="1"/>
</linearGradient>
</defs>
<path fill-rule="nonzero" fill="url(#linear-pattern-0)" d="M 1.769531 3294.050781 L 5060.191406 3198.867188 L 4998.230469 -94.050781 L -60.191406 1.132812 Z M 1.769531 3294.050781 "/>
<path fill-rule="nonzero" fill="rgb(69.285583%, 80.178833%, 93.06488%)" fill-opacity="1" d="M 4763.429688 945.191406 C 4763.429688 948.558594 4760.699219 951.300781 4757.328125 951.300781 C 4753.960938 951.300781 4751.230469 948.558594 4751.230469 945.191406 C 4751.230469 941.828125 4753.960938 939.089844 4757.328125 939.089844 C 4760.699219 939.089844 4763.429688 941.828125 4763.429688 945.191406 "/>
<path fill-rule="nonzero" fill="rgb(69.285583%, 80.178833%, 93.06488%)" fill-opacity="1" d="M 4566.378906 272.199219 C 4566.378906 277.109375 4562.398438 281.089844 4557.488281 281.089844 C 4552.578125 281.089844 4548.601562 277.109375 4548.601562 272.199219 C 4548.601562 267.289062 4552.578125 263.308594 4557.488281 263.308594 C 4562.398438 263.308594 4566.378906 267.289062 4566.378906 272.199219 "/>
<path fill-rule="nonzero" fill="rgb(69.285583%, 80.178833%, 93.06488%)" fill-opacity="1" d="M 541.0625 1290.011719 C 541.0625 1294.921875 537.082031 1298.898438 532.175781 1298.898438 C 527.265625 1298.898438 523.285156 1294.921875 523.285156 1290.011719 C 523.285156 1285.101562 527.265625 1281.121094 532.175781 1281.121094 C 537.082031 1281.121094 541.0625 1285.101562 541.0625 1290.011719 "/>
<path fill-rule="nonzero" fill="rgb(69.285583%, 80.178833%, 93.06488%)" fill-opacity="1" d="M 3809.628906 240.269531 C 3809.628906 245.179688 3805.648438 249.160156 3800.738281 249.160156 C 3795.839844 249.160156 3791.859375 245.179688 3791.859375 240.269531 C 3791.859375 235.359375 3795.839844 231.378906 3800.738281 231.378906 C 3805.648438 231.378906 3809.628906 235.359375 3809.628906 240.269531 "/>
<path fill-rule="nonzero" fill="rgb(69.285583%, 80.178833%, 93.06488%)" fill-opacity="1" d="M 4854.109375 1307.539062 C 4854.109375 1310.601562 4851.628906 1313.070312 4848.570312 1313.070312 C 4845.519531 1313.070312 4843.039062 1310.601562 4843.039062 1307.539062 C 4843.039062 1304.488281 4845.519531 1302.011719 4848.570312 1302.011719 C 4851.628906 1302.011719 4854.109375 1304.488281 4854.109375 1307.539062 "/>
<path fill-rule="nonzero" fill="rgb(69.285583%, 80.178833%, 93.06488%)" fill-opacity="1" d="M 264.425781 303.421875 C 264.425781 306.46875 261.945312 308.949219 258.890625 308.949219 C 255.839844 308.949219 253.359375 306.46875 253.359375 303.421875 C 253.359375 300.359375 255.839844 297.890625 258.890625 297.890625 C 261.945312 297.890625 264.425781 300.359375 264.425781 303.421875 "/>
<path fill-rule="nonzero" fill="rgb(69.285583%, 80.178833%, 93.06488%)" fill-opacity="1" d="M 1879.128906 1262.191406 C 1879.128906 1265.25 1876.648438 1267.71875 1873.601562 1267.71875 C 1870.539062 1267.71875 1868.058594 1265.25 1868.058594 1262.191406 C 1868.058594 1259.140625 1870.539062 1256.660156 1873.601562 1256.660156 C 1876.648438 1256.660156 1879.128906 1259.140625 1879.128906 1262.191406 "/>
<path fill-rule="nonzero" fill="rgb(69.285583%, 80.178833%, 93.06488%)" fill-opacity="1" d="M 2409.171875 860.859375 C 2409.171875 863.921875 2406.691406 866.398438 2403.640625 866.398438 C 2400.578125 866.398438 2398.109375 863.921875 2398.109375 860.859375 C 2398.109375 857.808594 2400.578125 855.328125 2403.640625 855.328125 C 2406.691406 855.328125 2409.171875 857.808594 2409.171875 860.859375 "/>
<path fill-rule="nonzero" fill="rgb(69.285583%, 80.178833%, 93.06488%)" fill-opacity="1" d="M 1032.691406 235.261719 C 1032.691406 238.320312 1030.21875 240.789062 1027.160156 240.789062 C 1024.109375 240.789062 1021.628906 238.320312 1021.628906 235.261719 C 1021.628906 232.210938 1024.109375 229.730469 1027.160156 229.730469 C 1030.21875 229.730469 1032.691406 232.210938 1032.691406 235.261719 "/>
<path fill-rule="nonzero" fill="rgb(69.285583%, 80.178833%, 93.06488%)" fill-opacity="1" d="M 2793.449219 1233.238281 L 2783.269531 1238.558594 L 2776.078125 1258.75 L 2768.960938 1238.761719 L 2758.578125 1233.238281 L 2768.960938 1227.710938 L 2776.078125 1207.71875 L 2783.269531 1227.910156 L 2793.449219 1233.238281 "/>
<path fill-rule="nonzero" fill="rgb(69.285583%, 80.178833%, 93.06488%)" fill-opacity="1" d="M 3181.828125 637.199219 L 3171.648438 642.53125 L 3164.460938 662.710938 L 3157.339844 642.71875 L 3146.960938 637.199219 L 3157.339844 631.679688 L 3164.460938 611.691406 L 3171.648438 631.871094 L 3181.828125 637.199219 "/>
<path fill-rule="nonzero" fill="rgb(69.285583%, 80.178833%, 93.06488%)" fill-opacity="1" d="M 668.269531 1632.398438 L 658.089844 1637.730469 L 650.898438 1657.910156 L 643.777344 1637.921875 L 633.398438 1632.398438 L 643.777344 1626.878906 L 650.898438 1606.890625 L 658.089844 1627.070312 L 668.269531 1632.398438 "/>
<path fill-rule="nonzero" fill="rgb(69.285583%, 80.178833%, 93.06488%)" fill-opacity="1" d="M 633.398438 729.289062 L 623.21875 734.621094 L 616.027344 754.808594 L 608.910156 734.808594 L 598.53125 729.289062 L 608.910156 723.769531 L 616.027344 703.78125 L 623.21875 723.96875 L 633.398438 729.289062 "/>
<path fill-rule="nonzero" fill="rgb(69.285583%, 80.178833%, 93.06488%)" fill-opacity="1" d="M 1614.148438 179.691406 L 1603.96875 185.011719 L 1596.78125 205.199219 L 1589.660156 185.210938 L 1579.28125 179.691406 L 1589.660156 174.171875 L 1596.78125 154.171875 L 1603.96875 174.359375 L 1614.148438 179.691406 "/>
<path fill-rule="nonzero" fill="rgb(69.285583%, 80.178833%, 93.06488%)" fill-opacity="1" d="M 293.761719 964.609375 L 283.582031 969.941406 L 276.390625 990.128906 L 269.273438 970.140625 L 258.894531 964.609375 L 269.273438 959.089844 L 276.390625 939.101562 L 283.582031 959.289062 L 293.761719 964.609375 "/>
<path fill-rule="nonzero" fill="rgb(69.285583%, 80.178833%, 93.06488%)" fill-opacity="1" d="M 4696.039062 1560.789062 L 4689.671875 1564.121094 L 4685.171875 1576.75 L 4680.71875 1564.25 L 4674.21875 1560.789062 L 4680.71875 1557.328125 L 4685.171875 1544.828125 L 4689.671875 1557.460938 L 4696.039062 1560.789062 "/>
<path fill-rule="nonzero" fill="rgb(69.285583%, 80.178833%, 93.06488%)" fill-opacity="1" d="M 1804.75 1708.941406 L 1798.378906 1712.269531 L 1793.878906 1724.898438 L 1789.429688 1712.390625 L 1782.941406 1708.941406 L 1789.429688 1705.480469 L 1793.878906 1692.96875 L 1798.378906 1705.609375 L 1804.75 1708.941406 "/>
<path fill-rule="nonzero" fill="rgb(69.285583%, 80.178833%, 93.06488%)" fill-opacity="1" d="M 1645.640625 583.679688 L 1639.269531 587.011719 L 1634.769531 599.648438 L 1630.308594 587.140625 L 1623.820312 583.679688 L 1630.308594 580.230469 L 1634.769531 567.71875 L 1639.269531 580.351562 L 1645.640625 583.679688 "/>
<path fill-rule="nonzero" fill="rgb(69.285583%, 80.178833%, 93.06488%)" fill-opacity="1" d="M 4751.230469 603.699219 L 4744.859375 607.03125 L 4740.359375 619.660156 L 4735.910156 607.148438 L 4729.410156 603.699219 L 4735.910156 600.238281 L 4740.359375 587.730469 L 4744.859375 600.371094 L 4751.230469 603.699219 "/>
<path fill-rule="nonzero" fill="rgb(69.285583%, 80.178833%, 93.06488%)" fill-opacity="1" d="M 1497.058594 1076.738281 L 1493.191406 1078.761719 L 1490.449219 1086.449219 L 1487.738281 1078.839844 L 1483.789062 1076.738281 L 1487.738281 1074.628906 L 1490.449219 1067.03125 L 1493.191406 1074.710938 L 1497.058594 1076.738281 "/>
<path fill-rule="nonzero" fill="rgb(69.285583%, 80.178833%, 93.06488%)" fill-opacity="1" d="M 605.164062 322.621094 L 601.289062 324.648438 L 598.554688 332.328125 L 595.84375 324.71875 L 591.894531 322.621094 L 595.84375 320.519531 L 598.554688 312.910156 L 601.289062 320.589844 L 605.164062 322.621094 "/>
<path fill-rule="nonzero" fill="rgb(69.285583%, 80.178833%, 93.06488%)" fill-opacity="1" d="M 1945.660156 954.910156 L 1941.78125 956.929688 L 1939.050781 964.609375 L 1936.339844 957.011719 L 1932.390625 954.910156 L 1936.339844 952.800781 L 1939.050781 945.191406 L 1941.78125 952.878906 L 1945.660156 954.910156 "/>
<path fill-rule="nonzero" fill="rgb(69.285583%, 80.178833%, 93.06488%)" fill-opacity="1" d="M 3369.550781 1606.890625 L 3365.679688 1608.910156 L 3362.941406 1616.601562 L 3360.238281 1608.988281 L 3356.28125 1606.890625 L 3360.238281 1604.78125 L 3362.941406 1597.179688 L 3365.679688 1604.859375 L 3369.550781 1606.890625 "/>
<path fill-rule="nonzero" fill="rgb(69.285583%, 80.178833%, 93.06488%)" fill-opacity="1" d="M 2180.351562 461.671875 L 2173.980469 465 L 2169.480469 477.628906 L 2165.03125 465.121094 L 2158.53125 461.671875 L 2165.03125 458.210938 L 2169.480469 445.710938 L 2173.980469 458.339844 L 2180.351562 461.671875 "/>
<path fill-rule="nonzero" fill="rgb(69.285583%, 80.178833%, 93.06488%)" fill-opacity="1" d="M 354.191406 1459.371094 L 347.824219 1462.699219 L 343.324219 1475.328125 L 338.871094 1462.820312 L 332.375 1459.371094 L 338.871094 1455.910156 L 343.324219 1443.410156 L 347.824219 1456.039062 L 354.191406 1459.371094 "/>
<path fill-rule="nonzero" fill="rgb(69.285583%, 80.178833%, 93.06488%)" fill-opacity="1" d="M 2714.550781 1528.859375 L 2708.179688 1532.191406 L 2703.679688 1544.828125 L 2699.230469 1532.320312 L 2692.738281 1528.859375 L 2699.230469 1525.410156 L 2703.679688 1512.898438 L 2708.179688 1525.53125 L 2714.550781 1528.859375 "/>
<path fill-rule="nonzero" fill="rgb(69.285583%, 80.178833%, 93.06488%)" fill-opacity="1" d="M 3027.269531 1088.601562 L 3020.898438 1091.929688 L 3016.398438 1104.558594 L 3011.949219 1092.050781 L 3005.460938 1088.601562 L 3011.949219 1085.140625 L 3016.398438 1072.628906 L 3020.898438 1085.261719 L 3027.269531 1088.601562 "/>
<path fill-rule="nonzero" fill="rgb(69.285583%, 80.178833%, 93.06488%)" fill-opacity="1" d="M 1112.160156 1442.019531 L 1105.800781 1445.351562 L 1101.300781 1457.980469 L 1096.839844 1445.46875 L 1090.351562 1442.019531 L 1096.839844 1438.558594 L 1101.300781 1426.050781 L 1105.800781 1438.679688 L 1112.160156 1442.019531 "/>
<path fill-rule="nonzero" fill="rgb(69.285583%, 80.178833%, 93.06488%)" fill-opacity="1" d="M 2611.980469 256.238281 L 2605.609375 259.570312 L 2601.109375 272.199219 L 2596.660156 259.691406 L 2590.160156 256.238281 L 2596.660156 252.78125 L 2601.109375 240.269531 L 2605.609375 252.910156 L 2611.980469 256.238281 "/>
<path fill-rule="nonzero" fill="rgb(69.285583%, 80.178833%, 93.06488%)" fill-opacity="1" d="M 1027.160156 621.238281 L 1020.789062 624.570312 L 1016.289062 637.199219 L 1011.839844 624.691406 L 1005.339844 621.238281 L 1011.839844 617.78125 L 1016.289062 605.269531 L 1020.789062 617.910156 L 1027.160156 621.238281 "/>
<path fill-rule="nonzero" fill="rgb(69.285583%, 80.178833%, 93.06488%)" fill-opacity="1" d="M 3506.621094 235.261719 L 3500.25 238.589844 L 3495.75 251.21875 L 3491.289062 238.71875 L 3484.800781 235.261719 L 3491.289062 231.808594 L 3495.75 219.300781 L 3500.25 231.929688 L 3506.621094 235.261719 "/>
<path fill-rule="nonzero" fill="rgb(69.285583%, 80.178833%, 93.06488%)" fill-opacity="1" d="M 2510.910156 583.679688 L 2504.539062 587.011719 L 2500.039062 599.648438 L 2495.589844 587.140625 L 2489.089844 583.679688 L 2495.589844 580.230469 L 2500.039062 567.71875 L 2504.539062 580.351562 L 2510.910156 583.679688 "/>
<path fill-rule="nonzero" fill="rgb(30.766296%, 38.528442%, 71.812439%)" fill-opacity="1" d="M 4015.671875 2042.03125 C 3881.570312 2011.011719 3744.148438 1986.171875 3606.878906 1996.398438 C 3276.390625 2021.019531 3176.988281 2182.398438 2855.328125 2262.191406 C 2606.699219 2323.859375 2278.589844 2237.230469 2023.71875 2211.511719 C 1843.550781 2188.988281 1545.789062 2296.191406 1365.128906 2277.960938 C 1208.621094 2262.171875 1062.828125 2199.410156 911.660156 2160.410156 C 737.382812 2115.441406 559.199219 2108.75 381.945312 2083.640625 C 353.90625 2079.660156 131.46875 2033.078125 0 2008.460938 L 0 3200 L 5000 3200 L 5000 2269.378906 C 4964.441406 2265.269531 4928.960938 2260.441406 4893.589844 2254.871094 C 4596.019531 2208 4309.171875 2109.921875 4015.671875 2042.03125 "/>
<path fill-rule="nonzero" fill="rgb(24.293518%, 32.232666%, 67.520142%)" fill-opacity="1" d="M 5000 3200 L 5000 2381.179688 C 4709.738281 2315.988281 4407.078125 2268.460938 4083.089844 2326.03125 C 3188.949219 2484.921875 2996.589844 2281.789062 2450.648438 2281.660156 C 1863.140625 2281.511719 1342.539062 2490.21875 693.503906 2338.121094 C 458.632812 2283.078125 226.152344 2338.019531 0 2392.128906 L 0 3200 L 5000 3200 "/>
<path fill-rule="nonzero" fill="rgb(17.408752%, 20.16449%, 51.73645%)" fill-opacity="1" d="M 4581 2479.890625 C 4296.910156 2511.621094 4022.96875 2454.230469 3744.320312 2495.519531 C 3463.511719 2537.128906 3199.609375 2593.078125 2948.539062 2665.539062 C 2836.28125 2697.941406 2724.179688 2731.039062 2604.011719 2756.609375 C 2602.058594 2757.019531 2593.929688 2758.679688 2589.171875 2759.660156 C 2586.871094 2760.101562 2584.839844 2760.480469 2584.351562 2760.570312 C 2569.921875 2763.179688 2555.488281 2765.808594 2540.890625 2768.21875 C 2509.75 2773.351562 2478.121094 2777.800781 2446.019531 2781.378906 C 2431.050781 2783.039062 2415.980469 2784.5 2400.839844 2785.78125 C 2398.648438 2785.96875 2390.800781 2786.53125 2385.738281 2786.910156 C 2383.691406 2787.03125 2381.949219 2787.121094 2381.398438 2787.140625 C 2346.851562 2788.5 2312.429688 2789.21875 2277.769531 2788.53125 C 2265.398438 2788.28125 2253.011719 2787.890625 2240.660156 2787.351562 C 2235.410156 2787.121094 2230.160156 2786.859375 2224.910156 2786.578125 C 2223.339844 2786.441406 2221.519531 2786.269531 2219.339844 2786.070312 C 2189.261719 2783.351562 2159.5 2780.378906 2129.988281 2776.441406 C 2102.449219 2772.769531 2075.289062 2768.488281 2048.488281 2763.730469 C 2041.058594 2762.421875 2019.601562 2758.289062 2022.339844 2758.929688 C 2010.53125 2756.488281 1998.789062 2753.949219 1987.121094 2751.359375 C 1875.339844 2726.421875 1770.449219 2695.21875 1666.238281 2663.96875 C 1559.160156 2631.851562 1452.371094 2599.191406 1339.121094 2572.058594 C 1203.539062 2539.589844 1059.660156 2515.839844 913.910156 2495.949219 C 636.644531 2458.109375 354.285156 2427.539062 68.851562 2407.269531 C 45.9375 2405.640625 22.976562 2404.101562 0 2402.601562 L 0 3200 L 5000 3200 L 5000 2349.179688 C 4862.859375 2361.019531 4715.289062 2464.890625 4581 2479.890625 "/>
<path fill-rule="nonzero" fill="rgb(12.063599%, 14.337158%, 30.206299%)" fill-opacity="1" d="M 5000 3200 L 5000 2936.21875 C 4708.429688 2885.988281 4405.21875 2857.898438 4083.839844 2907.351562 C 3051.28125 3066.238281 2829.128906 2863.109375 2198.671875 2862.980469 C 1520.210938 2862.828125 919.015625 3071.539062 169.492188 2919.441406 C 112.859375 2907.949219 56.351562 2901.269531 0 2898.351562 L 0 3200 L 5000 3200 "/>
<path fill-rule="nonzero" fill="rgb(12.063599%, 14.337158%, 30.206299%)" fill-opacity="1" d="M 4557.488281 954.910156 C 4557.488281 1210.921875 4349.949219 1418.460938 4093.929688 1418.460938 C 3837.910156 1418.460938 3630.371094 1210.921875 3630.371094 954.910156 C 3630.371094 698.890625 3837.910156 491.351562 4093.929688 491.351562 C 4349.949219 491.351562 4557.488281 698.890625 4557.488281 954.910156 "/>
<path fill-rule="nonzero" fill="rgb(42.533875%, 54.640198%, 75.332642%)" fill-opacity="1" d="M 4501.398438 1166.339844 C 4494.21875 1180.308594 4486.25 1194.039062 4477.5 1207.480469 C 4457.96875 1237.46875 4435.53125 1264.441406 4410.808594 1288.269531 C 4259.710938 1433.800781 4023.078125 1461.539062 3839.78125 1342.160156 C 3649.601562 1218.308594 3581.050781 977.871094 3666.929688 776.03125 C 3677.339844 751.511719 3690.050781 727.558594 3705.101562 704.449219 C 3713.859375 691.011719 3723.191406 678.179688 3733.058594 665.960938 C 3727.898438 676 3723.140625 686.160156 3718.78125 696.410156 C 3632.898438 898.25 3701.449219 1138.691406 3891.628906 1262.539062 C 4074.929688 1381.921875 4311.558594 1354.179688 4462.660156 1208.648438 C 4476.300781 1195.5 4489.261719 1181.390625 4501.398438 1166.339844 "/>
</svg>
