<svg width="1440" height="436" xmlns="http://www.w3.org/2000/svg">
  <g fill="#7DB00E" fill-rule="evenodd">
    <path d="M.037 434.295l147.372-27.02 83.335-33.283 83.372 20.862 82.66-44.83 82.69 11.308 82.77-51.414 82.66 6.864 82.504-68.407 82.96-39.933 82.73-1.485 165.61-79.017 82.922 20.12 82.883-28.806 82.887-76.626h82.322v1.984h-81.392l-82.57 76.34-84.01 29.193-82.775-20.086-165.307 78.87-82.726 1.484-82.37 39.65-82.892 68.774-82.84-6.878L480 363.414l-82.765-11.32-82.798 44.9-83.522-20.902-82.95 33.103-147.93 26.37"/>
    <path d="M1439.99.33l.002 2.285-49.707 41.912-1.285-1.532"/>
  </g>
</svg>
