<svg width="812" height="310" xmlns="http://www.w3.org/2000/svg">
  <g fill="none" fill-rule="evenodd">
    <path fill="#7DB0E0" opacity=".1" d="M1390.58-239l-82.728 51.386-82.728 83.63-83.445 22.264-82.85-39.044-82.73 103.91L893.37-58.49 810.645 1.08 727.917 35.1l-83.302 105.093-82.344-9.564-82.54 38.662-82.082-70.94-83.065 111.78-83.756 18.27-83.088 4.53L0 306.057v3.946h1439.985V-203.11"/>
    <path d="M.037 308.295l147.372-27.02 83.336-33.283 83.372 20.862 82.66-44.83 82.69 11.308 82.77-51.414 82.66 6.864 82.504-68.407 82.96-39.933 82.73-1.485 165.61-79.017 82.92 20.12 82.884-28.804 82.887-76.626h82.322v1.985h-81.392l-82.57 76.34-84.01 29.193-82.775-20.086-165.306 78.87-82.726 1.485-82.37 39.65-82.892 68.774-82.84-6.875-82.832 51.452-82.765-11.32-82.8 44.9-83.52-20.902-82.95 33.103L.035 309.568" fill="#7DB00E"/>
  </g>
</svg>
