<svg id="Layer_1" xmlns="http://www.w3.org/2000/svg" viewBox="0 0 18 18"><style>.st0{fill:#4285f4}.st1{fill:#34a853}.st2{fill:#fbbc05}.st3{fill:#ea4335}.st4{fill:none}</style><g id="Google-Button"><g id="btn_google_dark_normal" transform="translate(-1 -1)"><g id="logo_googleg_48dp" transform="translate(15 15)"><path id="Shape" class="st0" d="M3.609-4.764c0-.638-.057-1.252-.164-1.841h-8.476v3.481h4.844A4.143 4.143 0 0 1-1.984-.407v2.258H.925C2.627.284 3.609-2.023 3.609-4.764z"/><path id="Shape_1_" class="st1" d="M-5.031 4.031c2.43 0 4.467-.806 5.956-2.18L-1.984-.407c-.806.54-1.837.859-3.048.859-2.344 0-4.328-1.583-5.036-3.71h-3.007v2.332a9.001 9.001 0 0 0 8.044 4.957z"/><path id="Shape_2_" class="st2" d="M-10.067-3.259c-.18-.54-.282-1.117-.282-1.71s.102-1.17.282-1.71v-2.332h-3.007a9.005 9.005 0 0 0 0 8.084l3.007-2.332z"/><path id="Shape_3_" class="st3" d="M-5.031-10.389c1.321 0 2.508.454 3.44 1.346L.99-11.624c-1.559-1.452-3.596-2.344-6.022-2.344a8.998 8.998 0 0 0-8.043 4.958l3.007 2.332c.709-2.128 2.693-3.711 5.037-3.711z"/><path id="Shape_4_" class="st4" d="M-14.031-13.969h18v18h-18v-18z"/></g></g></g></svg>