<svg width="1440" height="900" xmlns="http://www.w3.org/2000/svg" xmlns:xlink="http://www.w3.org/1999/xlink">
  <defs>
    <path d="M0 0h885v583.004c0 1.655-1.348 2.996-3.01 2.996H0V0z" id="a"/>
    <path d="M972.9 298.003c0-2.763 2.244-5.003 5.002-5.003h224.265c2.762 0 5.002 2.234 5.002 5.01v325.86c0 2.766-2.25 5.01-5.01 5.01H977.9c-2.762 0-5-2.237-5-5.003V340.73L957 326.2l15.9-13.168v-15.03z" id="d"/>
    <filter x="-6%" y="-1.5%" width="108%" height="106%" filterUnits="objectBoundingBox" id="c">
      <feMorphology radius=".5" operator="dilate" in="SourceAlpha" result="shadowSpreadOuter1"/>
      <feOffset dx="-5" dy="5" in="shadowSpreadOuter1" result="shadowOffsetOuter1"/>
      <feGaussianBlur stdDeviation="2" in="shadowOffsetOuter1" result="shadowBlurOuter1"/>
      <feColorMatrix values="0 0 0 0 0.396078431 0 0 0 0 0.470588235 0 0 0 0 0.517647059 0 0 0 0.15 0" in="shadowBlurOuter1"/>
    </filter>
    <path id="e" d="M19.818 19.348H0V.106h19.818z"/>
  </defs>
  <g fill="none" fill-rule="evenodd">
    <path fill="#FFF" d="M0 0h1440v900H0z"/>
    <path fill="#647885" d="M0 0h154.286v900H0z"/>
    <path fill="#5A6C78" d="M0 0h154.286v53H0z"/>
    <path fill="#93A1A9" fill-rule="nonzero" d="M42.857 900.583l-.735-.55V53.393l.735-.392"/>
    <path fill="#93A1A9" fill-rule="nonzero" opacity=".5" d="M153.87 521.857l.427-.857H.43l-.43.857"/>
    <path fill="#E0E0E0" fill-rule="nonzero" d="M1286 34.072v.428h.857V18H1286v.43"/>
    <rect fill="#E0E0E0" x="1182" y="23" width="95.333" height="6.333" rx="3.167"/>
    <rect fill="#FFF" opacity=".5" x="58" y="81" width="64.219" height="3.429" rx="1.714"/>
    <rect fill="#FFF" opacity=".5" x="58" y="117" width="64.219" height="3.429" rx="1.714"/>
    <rect fill="#FFF" opacity=".5" x="58" y="333" width="64.219" height="3.429" rx="1.714"/>
    <rect fill="#FFF" opacity=".5" x="58" y="484" width="64.219" height="3.429" rx="1.714"/>
    <rect fill="#FFF" opacity=".5" x="58" y="554" width="64.219" height="3.429" rx="1.714"/>
    <rect fill="#FFF" opacity=".5" x="58" y="255" width="64.219" height="3.429" rx="1.714"/>
    <rect fill="#8E9DA5" opacity=".5" x="58" y="281" width="64.219" height="3.429" rx="1.714"/>
    <rect fill="#8E9DA5" opacity=".5" x="58" y="162" width="64.219" height="3.429" rx="1.714"/>
    <rect fill="#8E9DA5" opacity=".5" x="58" y="379" width="64.219" height="3.429" rx="1.714"/>
    <rect fill="#8E9DA5" opacity=".5" x="58" y="301" width="64.219" height="3.429" rx="1.714"/>
    <rect fill="#8E9DA5" opacity=".5" x="58" y="182" width="64.219" height="3.429" rx="1.714"/>
    <rect fill="#8E9DA5" opacity=".5" x="58" y="398" width="64.219" height="3.429" rx="1.714"/>
    <rect fill="#8E9DA5" opacity=".5" x="58" y="204" width="64.219" height="3.429" rx="1.714"/>
    <rect fill="#8E9DA5" opacity=".5" x="58" y="417" width="64.219" height="3.429" rx="1.714"/>
    <rect fill="#E0E0E0" x="1297" y="23" width="100" height="6.333" rx="3.167"/>
    <rect stroke="#E0E0E0" stroke-width="2.291" fill="#FFF" x="197" y="54.478" width="1200" height="860.522" rx="3.273"/>
    <rect fill="#E0E0E0" x="248" y="95.714" width="247" height="6.333" rx="3.167"/>
    <path d="M32.14 881.436c.24 0 .43.2.43.428 0 .237-.194.43-.43.43H13.624l4.735 4.735c.17.17.17.44 0 .61-.17.16-.44.16-.61-.01L12 881.88l5.752-5.75c.17-.17.445-.174.612-.007.162.162.165.44-.006.612l-4.7 4.7H32.14z" fill="#FFF"/>
    <rect fill="#E0E0E0" x="1091" y="850" width="100" height="6.333" rx="3.167"/>
    <rect fill="#7DB00E" x="1217" y="836" width="79.507" height="32.749" rx="3.273"/>
    <rect fill="#E0E0E0" x="1306" y="836" width="50.409" height="32.749" rx="3.273"/>
    <path d="M241 818.327h1118.494" stroke="#E0E0E0" stroke-width="1.309" stroke-linecap="square"/>
    <rect fill="#DCDBDC" x="248" y="850" width="154.286" height="6.333" rx="3.167"/>
    <rect fill="#E0E0E0" x="248" y="174" width="48" height="6.333" rx="3.167"/>
    <rect stroke="#E0E0E0" stroke-width="2.291" x="235" y="154" width="1118.494" height="632.444" rx="3.273"/>
    <path d="M236 657h232.24v63.444H241c-2.762 0-5-2.24-5-5.004V657z" fill="#FFF"/>
    <text font-family="NotoSans, Noto Sans" font-size="14.075" fill="#657884">
      <tspan x="878" y="234">-</tspan>
    </text>
    <path fill="#F5F5F5" d="M236 198h232.24v65.497H236z"/>
    <path d="M236 199.327h1117.512" stroke="#E0E0E0" stroke-width="2.655" stroke-linecap="square"/>
    <rect fill="#E0E0E0" x="310" y="228" width="125" height="6.333" rx="3.167"/>
    <path fill="#FFF" d="M236 263h232.24v65.497H236z"/>
    <rect fill="#E0E0E0" x="310" y="293" width="125" height="6.333" rx="3.167"/>
    <path fill="#F5F5F5" d="M236 329h232.24v65.497H236z"/>
    <rect fill="#E0E0E0" x="310" y="358" width="125" height="6.333" rx="3.167"/>
    <path fill="#012939" d="M236 394h232.24v65.497H236z"/>
    <rect fill="#FFF" x="310" y="424" width="125" height="6.333" rx="3.167"/>
    <path fill="#F5F5F5" d="M236 460h232.24v65.497H236z"/>
    <rect fill="#E0E0E0" x="310" y="490" width="125" height="6.333" rx="3.167"/>
    <rect fill="#E0E0E0" x="310" y="555" width="125" height="6.333" rx="3.167"/>
    <rect fill="#E0E0E0" x="310" y="686" width="125" height="6.333" rx="3.167"/>
    <g transform="translate(468 200.46)">
      <mask id="b" fill="#fff">
        <use xlink:href="#a"/>
      </mask>
      <use fill="#D8D8D8" xlink:href="#a"/>
      <g mask="url(#b)">
        <path fill="#FFF" d="M-88.12 733.938H972.937v-1061.06H-88.123"/>
        <path fill="#D4E8F4" d="M-88.496 733.435h1060.93v-1060.93H-88.496"/>
        <path fill="#FFF" d="M-88.496 733.435h1060.93v-1060.93H-88.496"/>
        <path fill="#E9E5DC" d="M-88.496 733.435h1060.93v-1060.93H-88.496"/>
        <path d="M245.58 733.435h121.95l210.264-137.53c28.54-18.668 53.145-43.514 71.582-72.214.414-.64.828-1.29 1.233-1.94 1.14-1.82 2.26-3.65 3.36-5.5 1.78-3.01 3.5-6.07 5.15-9.16 2.46-4.6 4.77-9.28 6.93-14.03 1.57-3.46 3.07-6.98 4.48-10.52 9.08-22.78 14.75-46.96 16.65-71.37 5.45-70.17 51.98-130.33 118.53-153.25l166.71-57.42v-70.61l-188.45 64.9c-91.71 31.59-155.83 114.49-163.35 211.19-1.72 22.13-7.69 43.58-17.24 63.25-1.72 3.53-3.54 7-5.48 10.4-2.71 4.75-5.63 9.37-8.77 13.86-3.39 4.85-7.02 9.54-10.88 14.04-.52.6-1.04 1.2-1.56 1.797-10.32 11.71-22.22 22.09-35.46 30.75L245.58 733.44z" fill="#A9D0FF"/>
        <path fill="#FFF" d="M56.532 733.435h57.11l372.126-242.18 2.363-1.54 18.82-12.248 18.63-12.122 13.62-8.865 9.35-6.083 81.41-256.404L972.44 66.17V32.918L622.572 163.505l-17.712 6.608-5.06 15.932-77.576 244.312-26.803 17.445-11.66 7.588-13.05 8.495-13.06 8.5-8.35 5.438-41.82 27.222-26.12 17-45.01 29.292-26.12 17.004M447.6-327.49l7.92 13.084 16.136 26.647 88.564 146.25 13.603 22.47h398.614v-31.16H591.372L484.01-327.49"/>
        <path fill="#FFF" d="M311.82 571.002l26.647-16.136-234.58-387.386-26.647 16.136m527.586 10.724l26.647-16.136L477.17-76.613l-26.65 16.136M-88.496-216.09v36.612l239.76-148.018H91.96M-88.496 21.444v36.61L16.864-6.993l10.305-6.364 12.23-7.556 18.17-11.22 3.66-2.26 410.41-253.372 13.59-8.393-16.37-26.505-13.37 8.25L28.68-50.897l-2.37 1.465-19.67 12.15-10.74 6.625-11.6 7.16"/>
        <path fill="#FFF" d="M-88.496 258.98v36.607l169.99-104.945 26.51-16.368 45.672-28.197 26.505-16.363 42.45-26.203 3.31-2.04 13.54-8.35 12.97-8.01 8.06-4.97L460.79-43.52l26.51-16.36 95.827-59.16 7.655-4.728-16.37-26.506-14.195 8.763-320.235 197.7h-.006l-10.752 6.64-9.924 6.13-20.488 12.64-3.213 1.98"/>
        <path d="M-88.496 366.403v367.032h66.944L148.45 622.468c8.982-5.865 14.98-15.33 16.45-25.953l4.894-35.42c1.45-10.502 2.176-21.058 2.176-31.596 0-27.44-4.895-54.76-14.543-80.62-11.553-30.99-29.474-58.75-52.228-81.73-22.75-22.98-50.33-41.18-81.2-53.04-10.8-4.15-22.91-3.02-32.76 3.06L-88.5 366.4z" fill="#B7D694"/>
        <path d="M536.536-327.496c34.543 45.552 104.46 123.8 185.797 137.836 90.904 15.692 204.945 5.163 250.102-.138v-137.698h-435.9z" fill="#A9D0FF"/>
        <path d="M598.46-76.328h314.73c4.454 0 8.065 3.61 8.065 8.065V.99c0 3.407-2.142 6.448-5.35 7.594L645.27 105.306c-3.587 1.283-7.584-.122-9.58-3.367L549.065-38.82c-2.362-3.837-1.12-8.865 2.754-11.163l42.52-25.22c1.24-.74 2.66-1.13 4.11-1.13" fill="#B7D694"/>
        <path d="M544.448 221.067L508.23 335.13c-5.45 17.16-28.58 19.902-37.89 4.49L337.202 119.183c-9.283-15.37-4.577-35.34 10.593-44.948l65.453-41.452c15.65-9.91 36.388-5.005 45.94 10.866l80.034 132.99c8.044 13.37 9.948 29.55 5.226 44.42M379.366-69.34l129.53-78.69c3.36-2.04 4.43-6.42 2.388-9.782l-46.478-76.507c-2.042-3.36-6.422-4.43-9.782-2.39l-129.53 78.69c-3.36 2.04-4.43 6.42-2.39 9.78l46.48 76.51c2.04 3.36 6.42 4.43 9.782 2.39m-163.594-18.4l.067.11 70.6-42.89.03.05c3.22-1.96 7.42-.93 9.38 2.29l46.78 77c1.96 3.23.93 7.43-2.29 9.39L310.6-23.73c-3.23 1.96-7.43.935-9.39-2.29l-11.38-18.733c-1.96-3.225-6.16-4.25-9.386-2.292L257.1-32.862c-3.224 1.96-4.25 6.16-2.29 9.383L266.095-4.9c1.96 3.224.933 7.426-2.29 9.385l-29.74 18.06c-3.225 1.96-7.427.93-9.385-2.29l-46.78-77c-1.957-3.226-.93-7.43 2.294-9.386l35.577-21.61zM31.237-91.6l145.877-88.62c3.36-2.044 4.43-6.42 2.39-9.784l-46.48-76.507c-2.04-3.36-6.42-4.43-9.782-2.39l-145.877 88.62c-3.36 2.04-4.43 6.42-2.388 9.78L21.455-94c2.04 3.36 6.42 4.43 9.782 2.39M-88.496 93.99v118.787c1.824.507 3.84.284 5.585-.775l154.43-93.815c3.36-2.042 4.42-6.42 2.38-9.78l-46.48-76.51c-2.04-3.36-6.42-4.427-9.78-2.39L-88.5 93.992z" fill="#D3D0C9"/>
        <path fill="#FFF" d="M-88.496-112.947v35.602l84.394 46.687 31.27 17.302 171.642 94.96 22.482 12.437 4.642 7.43 231.713 370.92 8.064 12.91 22.42 4.42 90.15 17.78 72.34 14.26 321.83 63.46v-31.75l-306.39-60.42-68.14-13.43-72.33-14.26-40.6-8-1.22-1.95-231.33-370.3-9-14.41-14.21-7.86L57.59-32.12 26.31-49.43"/>
        <path d="M802.94 733.435h169.495V621.32l-28.362-5.45c-63.134-12.132-124.156 29.214-136.287 92.35l-4.847 25.215z" fill="#B7D694"/>
        <path d="M647.324 733.435H772.02l12.3-64.012c.93-4.828-2.235-9.493-7.06-10.418l-102.772-19.75c-4.824-.93-9.492 2.23-10.417 7.058l-16.74 87.122zm34.51-117.883l101.583 19.522c4.827.927 9.492-2.234 10.42-7.06l5.843-30.408c.928-4.827-2.233-9.492-7.06-10.42l-101.583-19.522c-4.827-.927-9.492 2.234-10.42 7.06l-5.843 30.408c-.928 4.828 2.233 9.492 7.06 10.42M891.298 491.6l81.136 15.595V414.59l-63.975-12.296c-4.83-.93-9.5 2.234-10.42 7.058l-13.81 71.83c-.93 4.825 2.23 9.494 7.06 10.42M847.48 364.85l124.95 24.013V296.26l-107.78-20.718c-4.828-.93-9.492 2.235-10.422 7.058l-13.8 71.833c-.93 4.823 2.234 9.49 7.058 10.417M734.06 458.176l99.46 19.114c4.826.927 9.492-2.234 10.42-7.06l7.344-38.223c.928-4.827-2.233-9.492-7.06-10.42l-99.46-19.114c-4.828-.928-9.493 2.234-10.42 7.06l-7.346 38.223c-.928 4.827 2.233 9.492 7.06 10.42M201.325 252.36l78.94 130.477c2.545 4.207 8.017 5.553 12.223 3.01l43.274-26.183c4.206-2.545 5.553-8.017 3.008-12.223l-78.94-130.47c-2.544-4.2-8.016-5.55-12.222-3l-43.275 26.18c-4.206 2.55-5.553 8.02-3.008 12.23m99.935 165.18l33.255 54.97c9.774 16.16 30.795 21.33 46.95 11.56 16.156-9.77 21.33-30.79 11.555-46.95l-33.255-54.96c-2.648-4.37-8.342-5.78-12.72-3.13l-42.655 25.8c-4.377 2.65-5.778 8.35-3.13 12.72m-143.143-236.6l20.05 33.14c2.544 4.21 8.017 5.56 12.223 3.01l43.274-26.18c4.206-2.55 5.553-8.02 3.008-12.23l-20.05-33.14c-2.544-4.2-8.017-5.55-12.223-3.01l-43.28 26.19c-4.21 2.55-5.56 8.02-3.01 12.22m415.24 552.49h41.2l17.73-92.25c.93-4.83-2.24-9.49-7.06-10.42l-22.26-4.27c-4.83-.925-9.49 2.234-10.42 7.063l-19.2 99.897z" fill="#D3D0C9"/>
      </g>
    </g>
    <path fill="#F5F5F5" d="M236 591h232.24v65.497H236z"/>
    <rect fill="#E0E0E0" x="310" y="621" width="125" height="6.333" rx="3.167"/>
    <path d="M468 200h885v583.004c0 1.655-1.348 2.996-3.01 2.996H468V200z"/>
    <path d="M272 247.765c8.266 0 14.998-6.68 14.998-14.882 0-8.203-6.732-14.883-15-14.883-8.266 0-14.998 6.68-14.998 14.883 0 3.91 1.535 7.476 4.03 10.132.05.086.12.147.19.208 2.73 2.794 6.55 4.542 10.78 4.542z" fill="#D6D6D6"/>
    <g fill="#FFF">
      <path d="M265.262 230.766c.287-6.086 4.89-6.565 6.303-6.565h.383c1.402 0 6.015.48 6.303 6.57v.07c.02.06.6 5.69-2.09 8.65-1.06 1.17-2.49 1.76-4.35 1.77h-.07c-1.87-.02-3.28-.59-4.35-1.76-2.71-2.93-2.13-8.58-2.12-8.64v-.07z"/>
      <path d="M260.75 243.955c5.28-1.708 7.232-3.785 7.954-5.17 1.006.428 2.13.658 3.373.67h.272c1.35-.023 2.56-.29 3.62-.785.67 1.385 2.59 3.53 8.02 5.285-3.13 2.596-7.2 5.133-11.63 5.133s-8.49-2.537-11.63-5.133z"/>
    </g>
    <path d="M272 311.765c8.266 0 14.998-6.68 14.998-14.882 0-8.203-6.732-14.883-15-14.883-8.266 0-14.998 6.68-14.998 14.883 0 3.91 1.535 7.476 4.03 10.132.05.086.12.147.19.208 2.73 2.794 6.55 4.542 10.78 4.542z" fill="#D6D6D6"/>
    <g fill="#FFF">
      <path d="M265.262 294.766c.287-6.086 4.89-6.565 6.303-6.565h.383c1.402 0 6.015.48 6.303 6.57v.07c.02.06.6 5.69-2.09 8.65-1.06 1.17-2.49 1.76-4.35 1.77h-.07c-1.87-.02-3.28-.59-4.35-1.76-2.71-2.93-2.13-8.58-2.12-8.64v-.07z"/>
      <path d="M260.75 307.955c5.28-1.708 7.232-3.785 7.954-5.17 1.006.428 2.13.658 3.373.67h.272c1.35-.023 2.56-.29 3.62-.785.67 1.385 2.59 3.53 8.02 5.285-3.13 2.596-7.2 5.133-11.63 5.133s-8.49-2.537-11.63-5.133z"/>
    </g>
    <path d="M272 375.765c8.266 0 14.998-6.68 14.998-14.882 0-8.203-6.732-14.883-15-14.883-8.266 0-14.998 6.68-14.998 14.883 0 3.91 1.535 7.476 4.03 10.132.05.086.12.147.19.208 2.73 2.794 6.55 4.542 10.78 4.542z" fill="#D6D6D6"/>
    <g fill="#FFF">
      <path d="M265.262 358.766c.287-6.086 4.89-6.565 6.303-6.565h.383c1.402 0 6.015.48 6.303 6.57v.07c.02.06.6 5.69-2.09 8.65-1.06 1.17-2.49 1.76-4.35 1.77h-.07c-1.87-.02-3.28-.59-4.35-1.76-2.71-2.93-2.13-8.58-2.12-8.64v-.07z"/>
      <path d="M260.75 371.955c5.28-1.708 7.232-3.785 7.954-5.17 1.006.428 2.13.658 3.373.67h.272c1.35-.023 2.56-.29 3.62-.785.67 1.385 2.59 3.53 8.02 5.285-3.13 2.596-7.2 5.133-11.63 5.133s-8.49-2.537-11.63-5.133z"/>
    </g>
    <path d="M272 506.765c8.266 0 14.998-6.68 14.998-14.882 0-8.203-6.732-14.883-15-14.883-8.266 0-14.998 6.68-14.998 14.883 0 3.91 1.535 7.476 4.03 10.132.05.086.12.147.19.208 2.73 2.794 6.55 4.542 10.78 4.542z" fill="#D6D6D6"/>
    <g fill="#FFF">
      <path d="M265.262 489.766c.287-6.086 4.89-6.565 6.303-6.565h.383c1.402 0 6.015.48 6.303 6.57v.07c.02.06.6 5.69-2.09 8.65-1.06 1.17-2.49 1.76-4.35 1.77h-.07c-1.87-.02-3.28-.59-4.35-1.76-2.71-2.93-2.13-8.58-2.12-8.64v-.07z"/>
      <path d="M260.75 502.955c5.28-1.708 7.232-3.785 7.954-5.17 1.006.428 2.13.658 3.373.67h.272c1.35-.023 2.56-.29 3.62-.785.67 1.385 2.59 3.53 8.02 5.285-3.13 2.596-7.2 5.133-11.63 5.133s-8.49-2.537-11.63-5.133z"/>
    </g>
    <path d="M272 571.765c8.266 0 14.998-6.68 14.998-14.882 0-8.203-6.732-14.883-15-14.883-8.266 0-14.998 6.68-14.998 14.883 0 3.91 1.535 7.476 4.03 10.132.05.086.12.147.19.208 2.73 2.794 6.55 4.542 10.78 4.542z" fill="#D6D6D6"/>
    <g fill="#FFF">
      <path d="M265.262 554.766c.287-6.086 4.89-6.565 6.303-6.565h.383c1.402 0 6.015.48 6.303 6.57v.07c.02.06.6 5.69-2.09 8.65-1.06 1.17-2.49 1.76-4.35 1.77h-.07c-1.87-.02-3.28-.59-4.35-1.76-2.71-2.93-2.13-8.58-2.12-8.64v-.07z"/>
      <path d="M260.75 567.955c5.28-1.708 7.232-3.785 7.954-5.17 1.006.428 2.13.658 3.373.67h.272c1.35-.023 2.56-.29 3.62-.785.67 1.385 2.59 3.53 8.02 5.285-3.13 2.596-7.2 5.133-11.63 5.133s-8.49-2.537-11.63-5.133z"/>
    </g>
    <path d="M272 637.765c8.266 0 14.998-6.68 14.998-14.882 0-8.203-6.732-14.883-15-14.883-8.266 0-14.998 6.68-14.998 14.883 0 3.91 1.535 7.476 4.03 10.132.05.086.12.147.19.208 2.73 2.794 6.55 4.542 10.78 4.542z" fill="#D6D6D6"/>
    <g fill="#FFF">
      <path d="M265.262 620.766c.287-6.086 4.89-6.565 6.303-6.565h.383c1.402 0 6.015.48 6.303 6.57v.07c.02.06.6 5.69-2.09 8.65-1.06 1.17-2.49 1.76-4.35 1.77h-.07c-1.87-.02-3.28-.59-4.35-1.76-2.71-2.93-2.13-8.58-2.12-8.64v-.07z"/>
      <path d="M260.75 633.955c5.28-1.708 7.232-3.785 7.954-5.17 1.006.428 2.13.658 3.373.67h.272c1.35-.023 2.56-.29 3.62-.785.67 1.385 2.59 3.53 8.02 5.285-3.13 2.596-7.2 5.133-11.63 5.133s-8.49-2.537-11.63-5.133z"/>
    </g>
    <path d="M272 702.765c8.266 0 14.998-6.68 14.998-14.882 0-8.203-6.732-14.883-15-14.883-8.266 0-14.998 6.68-14.998 14.883 0 3.91 1.535 7.476 4.03 10.132.05.086.12.147.19.208 2.73 2.794 6.55 4.542 10.78 4.542z" fill="#D6D6D6"/>
    <g fill="#FFF">
      <path d="M265.262 685.766c.287-6.086 4.89-6.565 6.303-6.565h.383c1.402 0 6.015.48 6.303 6.57v.07c.02.06.6 5.69-2.09 8.65-1.06 1.17-2.49 1.76-4.35 1.77h-.07c-1.87-.02-3.28-.59-4.35-1.76-2.71-2.93-2.13-8.58-2.12-8.64v-.07z"/>
      <path d="M260.75 698.955c5.28-1.708 7.232-3.785 7.954-5.17 1.006.428 2.13.658 3.373.67h.272c1.35-.023 2.56-.29 3.62-.785.67 1.385 2.59 3.53 8.02 5.285-3.13 2.596-7.2 5.133-11.63 5.133s-8.49-2.537-11.63-5.133z"/>
    </g>
    <path d="M272 439.765c8.266 0 14.998-6.68 14.998-14.882 0-8.203-6.732-14.883-15-14.883-8.266 0-14.998 6.68-14.998 14.883 0 3.91 1.535 7.476 4.03 10.132.05.086.12.147.19.208 2.73 2.794 6.55 4.542 10.78 4.542z" fill="#EBB500"/>
    <g fill="#FFF">
      <path d="M265.262 422.766c.287-6.086 4.89-6.565 6.303-6.565h.383c1.402 0 6.015.48 6.303 6.57v.07c.02.06.6 5.69-2.09 8.65-1.06 1.17-2.49 1.76-4.35 1.77h-.07c-1.87-.02-3.28-.59-4.35-1.76-2.71-2.93-2.13-8.58-2.12-8.64v-.07z"/>
      <path d="M260.75 435.955c5.28-1.708 7.232-3.785 7.954-5.17 1.006.428 2.13.658 3.373.67h.272c1.35-.023 2.56-.29 3.62-.785.67 1.385 2.59 3.53 8.02 5.285-3.13 2.596-7.2 5.133-11.63 5.133s-8.49-2.537-11.63-5.133z"/>
    </g>
    <path fill="#F5F5F5" d="M236 720.444h232.24v65.497H236z"/>
    <path d="M272 767.376c8.266 0 14.998-6.68 14.998-14.882 0-8.203-6.732-14.883-15-14.883-8.266 0-14.998 6.68-14.998 14.89 0 3.91 1.535 7.48 4.03 10.13.05.09.12.15.19.21 2.73 2.8 6.55 4.54 10.78 4.54z" fill="#D6D6D6"/>
    <g fill="#FFF">
      <path d="M265.262 750.377c.287-6.086 4.89-6.565 6.303-6.565h.383c1.402 0 6.015.48 6.303 6.565v.07c.02.06.6 5.69-2.09 8.645-1.06 1.168-2.49 1.752-4.35 1.764h-.07c-1.87-.024-3.28-.596-4.35-1.764-2.71-2.932-2.13-8.586-2.12-8.645v-.07z"/>
      <path d="M260.75 763.566c5.28-1.708 7.232-3.785 7.954-5.17 1.006.428 2.13.658 3.373.67h.272c1.35-.023 2.56-.288 3.62-.785.67 1.39 2.59 3.54 8.02 5.29-3.13 2.6-7.2 5.14-11.63 5.14s-8.49-2.53-11.63-5.13z"/>
    </g>
    <rect fill="#E0E0E0" x="310" y="750.444" width="125" height="6.333" rx="3.167"/>
    <path d="M707.678 236.426c-14.01 0-25.367 11.38-25.367 25.414 0 19.64 25.37 35.878 25.37 35.878s25.37-16.735 25.37-35.878c0-14.035-11.35-25.414-25.36-25.414" fill-opacity=".25" fill="#4A4A4A"/>
    <path d="M679.74 260.735c0 19.642 25.367 35.878 25.367 35.878s25.367-16.735 25.367-35.878c0-14.035-11.356-25.414-25.367-25.414-14.01 0-25.367 11.38-25.367 25.42z" stroke="#D6D6D6" stroke-width="3" fill="#FFF"/>
    <path d="M867.234 326.294c0 19.642 25.368 35.878 25.368 35.878s25.367-16.735 25.367-35.878c0-14.035-11.36-25.413-25.37-25.413-14.01 0-25.37 11.38-25.37 25.42z" fill-opacity=".25" fill="#4A4A4A"/>
    <path d="M890.396 299.04c-14.01 0-25.368 11.378-25.368 25.413 0 19.64 25.368 35.878 25.368 35.878s25.367-16.73 25.367-35.87c0-14.03-11.357-25.41-25.367-25.41" stroke="#ECBC12" stroke-width="7.4" fill="#012939"/>
    <path stroke="#FFF" stroke-width="1.35" fill="#FFF" fill-rule="nonzero" d="M886.826 331.686l.57.87.723-.748 12.38-12.826-1.2-1.16-12.39 12.827 1.29.12-4.52-6.89-1.39.91z"/>
    <path stroke="#E81111" stroke-width="3.15" stroke-linecap="round" stroke-linejoin="round" d="M704.753 301.986l-45.97 152.47 227.584-90.34"/>
    <path d="M634.517 422.055c0 19.642 25.368 35.878 25.368 35.878s25.367-16.735 25.367-35.878c0-14.035-11.357-25.413-25.367-25.413-14.01 0-25.368 11.378-25.368 25.413z" fill-opacity=".25" fill="#4A4A4A"/>
    <path d="M632.31 420.582c0 19.642 25.367 35.878 25.367 35.878s25.367-16.735 25.367-35.878c0-14.035-11.356-25.413-25.367-25.413-14.01 0-25.367 11.37-25.367 25.41z" stroke="#D6D6D6" stroke-width="3" fill="#FFF"/>
    <path d="M861.587 380.924l-9.227-3.728 3.72-9.21 5.507 12.938zm-59.19 22.466l-9.227-3.727 3.72-9.21 5.507 12.938zm-68.014 27.992l-9.227-3.727 3.72-9.21 5.507 12.937zm-63.063-43.6l8.702-4.824 4.816 8.687-13.52-3.863zm14.704-49.352l8.704-4.826 4.816 8.688-13.52-3.863z" stroke="#E81111" stroke-width="3.15"/>
    <use fill="#000" filter="url(#c)" xlink:href="#d"/>
    <use fill="#FFF" xlink:href="#d"/>
    <rect fill="#E0E0E0" x="1030" y="386" width="100" height="6.333" rx="3.167"/>
    <path fill="#E0E0E0" fill-rule="nonzero" d="M992 418.413h196.813V417H992"/>
    <path d="M972.9 298.002c0-2.762 2.244-5.002 5.002-5.002h224.265c2.762 0 5.002 2.23 5.002 4.995v65.642H972.9v-22.604L957 326.2l15.9-13.068v-15.13z" fill="#012939"/>
    <rect fill="#E0E0E0" x="991" y="313" width="100" height="6.333" rx="3.167"/>
    <rect fill="#012939" x="991" y="432" width="44" height="6.333" rx="3.167"/>
    <rect fill="#012939" x="991" y="519" width="44" height="6.333" rx="3.167"/>
    <rect fill="#E0E0E0" x="991" y="543" width="79.507" height="6.333" rx="3.167"/>
    <rect fill="#012939" x="1119" y="519" width="44" height="6.333" rx="3.167"/>
    <rect fill="#E0E0E0" x="1119" y="543" width="70" height="6.333" rx="3.167"/>
    <rect fill="#E2EECA" x="992" y="453" width="94.343" height="30.727" rx="10"/>
    <path fill="#E0E0E0" fill-rule="nonzero" d="M992 500.413h196.813V499H992m0 72.413h196.813V570H992"/>
    <rect fill="#E0E0E0" opacity=".25" x="991" y="337" width="79.507" height="6.333" rx="3.167"/>
    <rect fill="#7DB00E" x="992.884" y="379.497" width="19.64" height="19.649" rx="3.273"/>
    <path stroke="#FFF" stroke-width=".982" fill="#FFF" fill-rule="nonzero" d="M1000.56 392.518l.267.406.338-.35 5.79-5.986-.558-.54-5.79 5.986.603.057-2.112-3.21-.65.43z"/>
    <rect fill="#7DB00E" x="1004" y="465" width="72" height="6.333" rx="3.167"/>
    <rect fill="#7DB00E" x="992" y="585" width="196.813" height="28.413" rx="10"/>
    <rect stroke="#E0E0E0" stroke-width="2.291" fill="#FFF" x="1083" y="78" width="268.085" height="48.14" rx="5.565"/>
    <path d="M1322.758 105.85l7.663-7.655c.26-.26.67-.258.92-.01.24.243.25.658-.01.912l-8.56 8.56-8.56-8.56c-.25-.254-.26-.662-.01-.91.24-.243.66-.246.91.008l7.67 7.654z" fill="#DCDBDC"/>
    <rect fill="#E0E0E0" x="1099" y="99" width="125" height="6.333" rx="3.167"/>
    <circle fill="#FFF" opacity=".25" cx="20.5" cy="82.5" r="7.5"/>
    <circle fill="#FFF" opacity=".25" cx="20.5" cy="118.5" r="7.5"/>
    <circle fill="#FFF" opacity=".25" cx="20.5" cy="255.5" r="7.5"/>
    <circle fill="#FFF" opacity=".25" cx="20.5" cy="334.5" r="7.5"/>
    <circle fill="#FFF" opacity=".25" cx="20.5" cy="484.5" r="7.5"/>
    <circle fill="#FFF" opacity=".25" cx="20.5" cy="554.5" r="7.5"/>
    <path d="M705 276.765c8.266 0 14.998-6.68 14.998-14.882 0-8.203-6.732-14.883-15-14.883-8.266 0-14.998 6.68-14.998 14.883 0 3.91 1.535 7.476 4.03 10.132.05.086.12.147.19.208 2.73 2.794 6.55 4.542 10.78 4.542z" fill="#D6D6D6"/>
    <g fill="#FFF">
      <path d="M698.262 259.766c.287-6.086 4.89-6.565 6.303-6.565h.383c1.402 0 6.015.48 6.303 6.57v.07c.02.06.6 5.69-2.09 8.65-1.06 1.17-2.49 1.76-4.35 1.77h-.07c-1.87-.02-3.28-.59-4.35-1.76-2.71-2.93-2.13-8.58-2.12-8.64v-.07z"/>
      <path d="M693.75 272.955c5.28-1.708 7.232-3.785 7.954-5.17 1.006.428 2.13.658 3.373.67h.272c1.35-.023 2.56-.29 3.62-.785.67 1.385 2.59 3.53 8.02 5.285-3.13 2.596-7.2 5.133-11.63 5.133s-8.49-2.537-11.63-5.133z"/>
    </g>
    <path d="M658 436.765c8.266 0 14.998-6.68 14.998-14.882 0-8.203-6.732-14.883-15-14.883-8.266 0-14.998 6.68-14.998 14.883 0 3.91 1.535 7.476 4.03 10.132.05.086.12.147.19.208 2.73 2.794 6.55 4.542 10.78 4.542z" fill="#D6D6D6"/>
    <g fill="#FFF">
      <path d="M651.262 419.766c.287-6.086 4.89-6.565 6.303-6.565h.383c1.402 0 6.015.48 6.303 6.57v.07c.02.06.6 5.69-2.09 8.65-1.06 1.17-2.49 1.76-4.35 1.77h-.07c-1.87-.02-3.28-.59-4.35-1.76-2.71-2.93-2.13-8.58-2.12-8.64v-.07z"/>
      <path d="M646.75 432.955c5.28-1.708 7.232-3.785 7.954-5.17 1.006.428 2.13.658 3.373.67h.272c1.35-.023 2.56-.29 3.62-.785.67 1.385 2.59 3.53 8.02 5.285-3.13 2.596-7.2 5.133-11.63 5.133s-8.49-2.537-11.63-5.133z"/>
    </g>
    <path d="M53.573 18.868h-3.69c-.253 0-.457.198-.457.442v8.356c0 .55-.117.984-.355 1.3-.23.314-.62.47-1.16.47-.54 0-.93-.18-1.18-.54-.19-.286-.32-.664-.38-1.135-.02-.22-.22-.39-.45-.39h-3.69c-.26 0-.47.23-.45.48.13 1.69.66 2.99 1.6 3.91 1.03 1.01 2.55 1.52 4.56 1.52 1.91 0 3.41-.49 4.49-1.46 1.09-.97 1.64-2.42 1.64-4.34v-8.16c0-.24-.2-.44-.45-.44m11.7 10.57c-1.69 0-2.53-1.18-2.53-3.54s.85-3.54 2.54-3.54 2.53 1.18 2.53 3.55c0 2.36-.84 3.54-2.53 3.54m5.44-8.97c-.61-.63-1.37-1.11-2.27-1.44-.9-.33-1.93-.5-3.11-.5-1.2 0-2.26.18-3.18.52-.92.35-1.69.85-2.31 1.5-.62.65-1.09 1.43-1.4 2.34-.31.92-.47 1.94-.47 3.08 0 1.14.15 2.17.46 3.07.31.91.77 1.68 1.39 2.31.61.63 1.37 1.11 2.27 1.445.9.337 1.93.5 3.11.5 1.2 0 2.26-.172 3.18-.52.92-.35 1.69-.84 2.3-1.486.62-.64 1.08-1.43 1.4-2.35.32-.926.48-1.96.48-3.1 0-1.14-.16-2.16-.47-3.06-.312-.9-.774-1.665-1.39-2.294m13.406 8.92c-.244.225-.71.336-1.4.336h-1.45c-.25 0-.455-.2-.455-.44v-1.7c0-.245.205-.44.456-.44h1.45c.69 0 1.16.11 1.4.335.25.224.37.546.37.965 0 .41-.12.72-.36.945zm-3.305-6.86c0-.243.205-.44.456-.44h1.35c.57 0 .96.09 1.16.275.208.187.31.45.31.79s-.1.608-.305.79c-.205.186-.59.278-1.16.278H81.3c-.25 0-.454-.19-.454-.44v-1.24zm6.43 3.275c-.256-.16-.276-.52-.035-.71.333-.26.593-.56.78-.89.28-.502.422-1.08.422-1.72 0-.48-.08-.942-.24-1.382-.16-.44-.44-.83-.82-1.15-.39-.33-.9-.59-1.55-.78-.65-.19-1.46-.29-2.43-.29h-6.3c-.25 0-.46.198-.46.44V32.5c0 .242.2.44.45.44h6.12c1.05 0 1.935-.11 2.65-.335.715-.224 1.296-.526 1.74-.906.446-.38.76-.82.95-1.32.18-.5.28-1.03.28-1.58 0-1.33-.53-2.33-1.58-3zm13.05 3.59c-.24.22-.71.33-1.4.33h-1.45c-.25 0-.45-.2-.45-.44V27.6c0-.246.203-.444.454-.444h1.45c.69 0 1.158.11 1.4.335.25.23.37.55.37.97 0 .41-.12.72-.36.94zM97 22.52c0-.247.204-.44.455-.44h1.348c.568 0 .953.09 1.156.27.2.185.3.447.3.788 0 .34-.1.6-.31.785-.2.18-.59.27-1.16.27h-1.34c-.25 0-.46-.196-.46-.44v-1.24zm6.43 3.27c-.257-.163-.277-.523-.036-.71.337-.26.597-.557.783-.89.28-.504.422-1.08.422-1.72 0-.486-.08-.95-.25-1.39-.16-.44-.44-.822-.82-1.15-.39-.33-.9-.587-1.55-.777-.65-.19-1.46-.29-2.43-.29h-6.3c-.25 0-.46.2-.46.442v13.17c0 .24.2.44.45.44h6.12c1.05 0 1.93-.11 2.65-.336.71-.23 1.29-.53 1.74-.91.44-.38.76-.82.95-1.32.19-.5.28-1.03.28-1.58 0-1.33-.53-2.33-1.58-3zm16.216 3.686h-5.69c-.252 0-.456-.198-.456-.442v-1.04c0-.244.204-.442.455-.442h4.927c.252 0 .455-.198.455-.442v-2.56c0-.244-.205-.443-.457-.443h-4.927c-.25 0-.455-.198-.455-.442v-.9c0-.24.205-.44.456-.44h5.332c.25 0 .455-.2.455-.44v-2.56c0-.243-.2-.44-.45-.44h-9.85c-.25 0-.45.197-.45.44v13.17c0 .244.21.44.46.44h9.96c.24 0 .43-.17.46-.4l.26-2.557c.03-.26-.18-.485-.45-.485m11.79-4.685c-.29.25-.77.372-1.46.372h-1.08c-.25 0-.45-.2-.45-.442v-2.11c0-.244.21-.442.46-.442H130c.69 0 1.176.126 1.46.375.29.25.437.62.437 1.12 0 .5-.146.88-.435 1.12m5.28 7.48l-2.445-4.39c-.11-.19-.056-.43.12-.56.527-.38.946-.86 1.258-1.42.37-.67.56-1.47.56-2.42 0-.63-.097-1.23-.293-1.79-.2-.56-.528-1.05-.988-1.47-.46-.41-1.063-.74-1.814-.98-.75-.24-1.68-.36-2.79-.36h-5.76c-.253 0-.457.2-.457.45V32.5c0 .243.2.44.455.44H128c.25 0 .455-.197.455-.44v-3.64c0-.245.204-.443.455-.443h.885c.17 0 .33.095.41.245l2.06 4.015c.072.15.23.245.402.245h3.658c.346 0 .566-.357.4-.652" fill="#FFF"/>
    <g transform="translate(16 16.188)">
      <mask id="f" fill="#fff">
        <use xlink:href="#e"/>
      </mask>
      <path d="M18.42 12.296c0 3.144-2.626 5.693-5.865 5.693H4.242c-.106 0-.19-.09-.19-.19V7.15c0-1.722 1.437-3.12 3.21-3.12h5.578c.133 0 .226.13.18.252l-.325.84c-.027.073-.1.12-.18.12h-4.98c-1.23 0-2.23.97-2.23 2.166v9.167c0 .1.086.185.19.185h7.06c2.548 0 4.61-2.007 4.61-4.48V2.87c0-.164.208-.247.328-.13l.872.846c.035.035.056.082.056.13v8.58zm-11.717.358V7.42c0-.445.372-.807.83-.807h5.39c.107 0 .192.083.192.186v5.23c0 .44-.372.8-.83.8h-5.39c-.107 0-.192-.09-.192-.19zm-4.05-5.497v9.425c0 .165-.207.248-.327.13l-.87-.845c-.037-.035-.057-.082-.057-.13v-8.58c0-3.144 2.62-5.694 5.86-5.694h8.31c.1 0 .19.083.19.186v10.64c0 1.72-1.44 3.12-3.21 3.12H6.97c-.134 0-.226-.13-.18-.26l.325-.85c.03-.07.1-.12.18-.12h4.982c1.23 0 2.23-.97 2.23-2.17V2.86c0-.102-.088-.186-.193-.186H7.26c-2.545 0-4.61 2.006-4.61 4.48zm14.27-6.89c-.106-.103-.252-.162-.404-.162H7.26C3.252.105 0 3.262 0 7.157v8.987c0 .148.06.29.168.394l2.726 2.647c.108.104.253.163.405.163h9.25c4.01 0 7.26-3.158 7.26-7.052V3.31c0-.15-.06-.29-.17-.395L16.92.268z" fill="#FFF" mask="url(#f)"/>
    </g>
  </g>
</svg>
