<svg width="768" height="1024" xmlns="http://www.w3.org/2000/svg" xmlns:xlink="http://www.w3.org/1999/xlink">
  <defs>
    <path d="M81.957 181.417c0-.667-.535-1.21-1.22-1.21h-2.393c-.673 0-1.22.538-1.22 1.21v1.208L73.502 179 59 191.688v1.812h4.833v9.672c0 2.666 2.162 4.828 4.83 4.828h9.675c2.667 0 4.83-2.17 4.83-4.828V193.5H88v-1.813l-6.042-5.135v-5.135z" id="a"/>
    <path d="M89.665 684.333c0-.92-.738-1.666-1.682-1.666h-3.3c-.93 0-1.683.74-1.683 1.666V686l-4.998-5L58 698.5v2.5h6.667v13.34c0 3.678 2.98 6.66 6.66 6.66h13.346c3.68 0 6.66-2.995 6.66-6.66V701H98v-2.5l-8.333-7.083v-7.084h-.002z" id="b"/>
    <path d="M89.665 810.333c0-.92-.738-1.666-1.682-1.666h-3.3c-.93 0-1.683.74-1.683 1.666V812l-4.998-5L58 824.5v2.5h6.667v13.34c0 3.678 2.98 6.66 6.66 6.66h13.346c3.68 0 6.66-2.995 6.66-6.66V827H98v-2.5l-8.333-7.083v-7.084h-.002z" id="c"/>
    <path id="d" d="M.603 130V.87h125V130h-125z"/>
    <path d="M72.783 32.24c-10.193 7.268-22.67 11.544-36.146 11.544-13.452 0-25.908-4.26-36.09-11.508V.326h72.236V32.24z" id="f"/>
    <path d="M72.78 14.866C62.587 22.133 50.112 26.41 36.637 26.41c-13.453 0-25.91-4.264-36.095-11.512V.794H72.78v14.072z" id="h"/>
  </defs>
  <g fill="none" fill-rule="evenodd">
    <path fill="#FFF" d="M0 0h768v1024H0z"/>
    <path fill="#3EAD92" d="M0 59h768v190H0z"/>
    <path d="M677 390.792c1.294 0 4.125 1.025 6.088 3.226 2.485 2.787 3.376 5.78 3.25 6.58l-1.468 1.84c-.147.182-.58.498-.832.612-.435.14-1.753.618-2.646 1.537-1.777 1.833-2.544 5.38 3.894 11.86 3.186 3.208 5.826 4.767 8.07 4.767 3.206 0 4.458-2.967 4.704-4.67.068-.183.278-.5.403-.597l1.883-1.478c.055-.02.174-.04.376-.04 1.277 0 3.98.86 6.195 3.24 2.523 2.7 3.37 5.41 3.326 6.21l-.023.02c-1.797 2.05-5.064 5.18-6.702 5.68-1.345.41-2.555.6-3.81.6-1.94 0-4.024-.47-6.37-1.43-4.873-2-7.198-4.1-12.39-9-4.95-5.15-6.246-7.11-8.424-11.67-2.086-4.36-2.003-7.38-1.237-10.57.586-2.45 4.118-5.64 5.43-6.67l.106-.08c.043-.01.103-.01.176-.01m-1.39-1.32s-5.21 4.06-6.07 7.66c-.87 3.6-.89 7.05 1.36 11.75s3.64 6.83 8.75 12.13c5.41 5.11 7.89 7.32 13 9.41 2.79 1.14 5.08 1.56 7.05 1.56 1.63 0 3.04-.29 4.34-.69 2.86-.88 7.52-6.22 7.52-6.22 1.25-.93-.11-5.17-3.34-8.65-2.47-2.64-5.6-3.81-7.51-3.81-.6 0-1.08.12-1.38.34l-1.99 1.56c-.47.36-.94 1.09-1.06 1.65 0 0-.36 3.24-2.94 3.24-1.46 0-3.61-1.02-6.8-4.238-5.51-5.55-5.03-8.16-3.88-9.35.69-.72 1.96-1.1 1.96-1.1.52-.2 1.26-.72 1.62-1.18l1.57-1.97c.93-1.23-.43-5.4-3.42-8.76-2.23-2.5-5.51-3.82-7.43-3.82-.66 0-1.15.15-1.39.47z" stroke="#31A487" fill="#31A487"/>
    <path fill="#5A6C78" d="M0 0h57v59H0z"/>
    <rect fill="#FFF" x="59" y="98" width="247" height="6.333" rx="3.167"/>
    <rect fill-opacity=".25" fill="#FFF" x="59" y="117" width="169" height="6.333" rx="3.167"/>
    <rect fill-opacity=".25" fill="#FFF" x="59" y="136" width="169" height="6.333" rx="3.167"/>
    <g transform="translate(121 183)" fill="#FFF" fill-opacity=".25">
      <rect width="102.394" height="6.333" rx="3.167"/>
      <rect y="17" width="102.394" height="6.333" rx="3.167"/>
    </g>
    <g transform="translate(90 20)" fill="#E0E0E0">
      <path fill-rule="nonzero" d="M104 16.072v.428h.857V0H104v.43"/>
      <rect y="5" width="95.333" height="6.333" rx="3.167"/>
      <rect x="115" y="5" width="100" height="6.333" rx="3.167"/>
    </g>
    <path fill="#F5F5F5" d="M0 630h768v395H0z"/>
    <path d="M673.835 711.675l9.548 9.545c3.948 3.947 10.353 3.948 14.302 0l9.548-9.545c3.948-3.946 3.948-10.35 0-14.297l-9.548-9.545c-3.948-3.946-10.353-3.947-14.302 0l-9.548 9.545c-3.948 3.947-3.95 10.35 0 14.297zm20.453-13.326l-.01 7.14c.013.49.432.92.937.91.514.01.95-.4.937-.91l-.002-9.4c.013-.25-.09-.47-.256-.64-.172-.18-.4-.28-.65-.3h-9.402c-.493.01-.92.43-.933.93.01.51.42.95.93.93l7.1.01-7.78 7.77c-.15.14-.26.42-.26.64v10.12c0 .1.08.19.18.19h1.5c.1 0 .18-.09.18-.19v-9.35c0-.21.12-.5.26-.64l7.24-7.24zM672.51 713c-4.68-4.68-4.68-12.27 0-16.946l9.548-9.545c4.68-4.68 12.273-4.68 16.952 0l9.548 9.54c4.68 4.68 4.68 12.27 0 16.94l-9.548 9.54c-4.68 4.68-12.273 4.67-16.952 0L672.51 713zm1.325 122.675l9.548 9.545c3.948 3.947 10.353 3.948 14.302 0l9.548-9.545c3.948-3.946 3.948-10.35 0-14.297l-9.548-9.545c-3.948-3.946-10.353-3.947-14.302 0l-9.548 9.545c-3.948 3.947-3.95 10.35 0 14.297zm20.453-13.326l-.01 7.14c.013.49.432.92.937.91.514.01.95-.4.937-.91l-.002-9.4c.013-.25-.09-.47-.256-.64-.172-.18-.4-.28-.65-.3h-9.402c-.493.01-.92.43-.933.93.01.51.42.95.93.93l7.1.01-7.78 7.77c-.15.14-.26.42-.26.64v10.12c0 .1.08.19.18.19h1.5c.1 0 .18-.09.18-.19v-9.35c0-.21.12-.5.26-.64l7.24-7.24zM672.51 837c-4.68-4.68-4.68-12.27 0-16.946l9.548-9.545c4.68-4.68 12.273-4.68 16.952 0l9.548 9.54c4.68 4.68 4.68 12.27 0 16.94l-9.548 9.54c-4.68 4.68-12.273 4.67-16.952 0L672.51 837z" stroke="#31A487" fill-rule="nonzero" fill="#31A487"/>
    <path fill="#E0E0E0" fill-rule="nonzero" d="M767.763 58.857L768 58H57.237l-.237.857"/>
    <use stroke="#3EAD92" stroke-width=".5" fill="#FFF" fill-rule="nonzero" xlink:href="#a"/>
    <path d="M583.88 249h183.87v56H583.88z"/>
    <g transform="translate(197.764 249)">
      <path d="M0 0h196.342v56H0z"/>
      <rect fill="#E0E0E0" x="40.87" y="25" width="113.773" height="6.333" rx="3.167"/>
    </g>
    <g transform="translate(0 249)">
      <path fill="#FFF" d="M0 0h197.487v56H0z"/>
      <path fill="#012939" d="M0 0h197.487v6.333H0z"/>
      <rect fill="#012939" x="41.108" y="25" width="114.437" height="6.333" rx="3.167"/>
    </g>
    <use fill="#A8B3BB" fill-rule="nonzero" xlink:href="#b"/>
    <rect fill="#D7D6D7" x="126" y="693" width="323" height="6.333" rx="3.167"/>
    <rect fill="#E0E0E0" x="126" y="717" width="259.677" height="6.333" rx="3.167"/>
    <rect fill="#E0E0E0" x="126" y="740" width="259.677" height="6.333" rx="3.167"/>
    <use fill="#A8B3BB" fill-rule="nonzero" xlink:href="#c"/>
    <rect fill="#D7D6D7" x="126" y="819" width="323" height="6.333" rx="3.167"/>
    <rect fill="#E0E0E0" x="126" y="843" width="259.677" height="6.333" rx="3.167"/>
    <rect fill="#E0E0E0" x="126" y="866" width="259.677" height="6.333" rx="3.167"/>
    <g transform="translate(121 394)">
      <rect fill="#D7D6D7" width="323" height="6.333" rx="3.167"/>
      <rect fill="#E0E0E0" y="23.667" width="259.677" height="6.333" rx="3.167"/>
      <rect fill="#E0E0E0" y="46.667" width="259.677" height="6.333" rx="3.167"/>
    </g>
    <g transform="translate(121 507)">
      <rect fill="#DCDBDC" width="323" height="6.333" rx="3.167"/>
      <rect fill="#E0E0E0" y="23.667" width="259.677" height="6.333" rx="3.167"/>
      <rect fill="#E0E0E0" y="46.667" width="259.677" height="6.333" rx="3.167"/>
    </g>
    <g transform="translate(394.382 249)">
      <path d="M0 0h196.342v56H0z"/>
      <rect fill="#E0E0E0" x="38.87" y="25" width="113.773" height="6.333" rx="3.167"/>
    </g>
    <rect fill="#E0E0E0" x="622.154" y="274" width="106.546" height="6.333" rx="3.167"/>
    <path stroke="#E0E0E0" stroke-width="2" d="M197.03 249.202v54.673h572.033"/>
    <g transform="translate(581 95.498)">
      <mask id="e" fill="#fff">
        <use xlink:href="#d"/>
      </mask>
      <g mask="url(#e)">
        <path d="M125.603 65.598c0 34.393-27.894 62.273-62.303 62.273C28.893 127.87 1 99.99 1 65.6S28.893 3.33 63.3 3.33c34.41 0 62.303 27.88 62.303 62.27" fill="#FFF"/>
        <path d="M91.047 38.27v20.693c0 .3-.006.602-.012.9-.006.244-.013.483-.027.73-.006.216-.02.432-.04.652-.007.156-.02.314-.037.468 0 .098-.01.185-.02.278-.01.18-.03.35-.05.52-.02.33-.06.65-.11.98 0 .09-.02.17-.03.25-.02.17-.04.33-.07.49v.02l-.12.71c-.06.33-.12.66-.19.98 0 .01 0 .03-.01.04 0 .05-.01.1-.03.15 0 .02 0 .03-.01.04-.03.18-.07.35-.11.52-.01.08-.02.15-.05.23-.02.13-.05.25-.08.37-.02.07-.03.14-.06.21-.01.06-.03.12-.04.18-.14.56-.3 1.11-.47 1.65-.08.26-.16.51-.25.77 0 .03-.02.05-.02.08-.08.23-.16.46-.24.7-.03.07-.05.14-.08.21-.08.22-.16.44-.25.65-.1.27-.21.53-.32.78-.09.23-.19.46-.3.7-.01.04-.03.08-.04.12l-.34.73c-.11.25-.23.51-.36.76-.25.5-.51.99-.78 1.48l-.37.65c-1.04 1.8-2.21 3.5-3.48 5.06-.17.23-.34.44-.53.65-.25.31-.51.61-.77.9-.23.26-.46.52-.7.77-.65.7-1.32 1.37-2 1.99-.13.14-.28.26-.42.39-.23.21-.46.42-.7.62-.18.16-.37.32-.56.48-.49.4-.98.78-1.48 1.15-.2.16-.42.3-.63.45-.34.25-.69.48-1.03.7-.19.13-.39.25-.59.37-.69.43-1.39.82-2.09 1.16-.17.09-.34.17-.51.25-.17.08-.35.16-.53.25-.22.1-.45.19-.67.28-.09.04-.18.07-.27.1-.26.11-.53.21-.8.3-.33.13-.67.23-1.01.32-.23.07-.47.13-.7.19-.01.01-.03.01-.05.01-.23.06-.46.11-.69.15-.07.02-.13.03-.19.04-.19.04-.38.07-.57.09-.274.04-.546.08-.817.09-.1.01-.186.02-.28.02-.22.01-.436.02-.65.02h-.02c-.21 0-.42-.01-.636-.02-.087 0-.17 0-.25-.02-.19 0-.39-.02-.59-.05-.04 0-.09-.01-.13-.01-.255-.03-.506-.07-.766-.12-.21-.03-.43-.08-.66-.13-1.16-.27-2.36-.67-3.57-1.21-1.03-.46-2.09-1.01-3.13-1.65-.52-.32-1.04-.66-1.56-1.02-.26-.18-.52-.37-.78-.56-.81-.59-1.61-1.23-2.4-1.93-.22-.19-.44-.39-.653-.6-.22-.19-.44-.39-.65-.59-.53-.51-1.05-1.04-1.55-1.59-.198-.21-.39-.43-.59-.65-.54-.62-1.077-1.25-1.58-1.91-.198-.24-.38-.48-.567-.73-.69-.91-1.34-1.864-1.95-2.85-.17-.264-.33-.54-.49-.804-.19-.32-.376-.644-.56-.97-.68-1.225-1.306-2.5-1.85-3.81-.084-.19-.165-.38-.23-.57-.11-.25-.21-.5-.29-.746-.14-.36-.27-.72-.39-1.08-.128-.36-.24-.73-.36-1.097-.11-.352-.21-.705-.306-1.07-.105-.38-.21-.77-.3-1.16l-.03-.124c-.13-.54-.24-1.094-.344-1.65-.13-.73-.24-1.48-.327-2.236-.04-.24-.05-.48-.07-.713-.03-.25-.05-.5-.07-.75-.04-.453-.056-.92-.07-1.38-.01-.3-.02-.6-.02-.9V38.3c0-15.29 12.4-27.692 27.7-27.705h.03c2.11 0 4.166.24 6.14.68 1.806.41 3.54.995 5.19 1.738 2.245 1.008 4.335 2.3 6.216 3.846 1.58 1.29 3.014 2.75 4.27 4.35 3.65 4.65 5.846 10.49 5.894 16.84.01.08.01.16.01.24" fill="#ECC19C"/>
        <g transform="translate(26.662 84.087)">
          <mask id="g" fill="#fff">
            <use xlink:href="#f"/>
          </mask>
          <path d="M72.783 52.12v.007H.546v-.006c0-4.07.674-8 1.927-11.65.224-.66.47-1.31.735-1.96v-.01c.262-.65.545-1.28.844-1.91 1.193-2.51 2.677-4.86 4.4-7.01.434-.53.878-1.06 1.332-1.56.228-.26.464-.51.703-.76.24-.24.478-.49.72-.73 1.22-1.22 2.527-2.33 3.904-3.36.69-.51 1.39-.99 2.11-1.45.72-.45 1.46-.89 2.21-1.3.02-.01.03-.01.03-.01.3-.15.58-.32.87-.5.85-.51 1.67-1.08 2.45-1.7 3.29-2.62 5.84-6.13 7.29-10.16.87-2.41 1.33-5 1.33-7.71l5.26.02 5.42.03c0 2.67.46 5.24 1.3 7.62 1.43 4.05 3.97 7.57 7.26 10.2.49.4.99.77 1.51 1.12.06.04.11.08.16.11.25.17.49.33.75.48.28.17.57.34.85.5.05.01.09.04.12.06.6.34 1.2.68 1.77 1.04.28.17.56.35.83.55.57.36 1.12.76 1.66 1.17 0 .01.01.01.01.01h.01c.69.51 1.36 1.06 2.01 1.62.66.56 1.28 1.14 1.89 1.75 6.55 6.52 10.6 15.54 10.6 25.53" fill="#ECC19C" mask="url(#g)"/>
        </g>
        <g transform="translate(26.662 101.462)">
          <mask id="i" fill="#fff">
            <use xlink:href="#h"/>
          </mask>
          <path d="M72.78 34.742H.542c0-4.076.678-8.003 1.928-11.66.227-.66.473-1.31.738-1.957v-.007c.26-.646.542-1.28.844-1.908 1.19-2.51 2.674-4.858 4.398-7.01.435-.537.88-1.06 1.334-1.563.225-.26.464-.51.703-.764.235-.243.474-.488.72-.733 1.22-1.218 2.527-2.334 3.9-3.36.69-.512 1.385-.987 2.106-1.452.375-.236.75-.47 1.127-.692.357-.214.718-.418 1.078-.614.014-.014.028-.007.028-.007v-.007c.293-.164.58-.325.864-.497.85-.51 1.67-1.09 2.433-1.71l.01.02c3.53 3.61 8.44 5.85 13.885 5.86h.053c5.45 0 10.38-2.24 13.92-5.85h.01c.49.4.99.78 1.51 1.13.05.04.1.08.16.11l.75.48c.28.17.56.34.85.49.05.02.09.05.13.06.32.18.65.36.97.55.27.17.55.33.81.5.28.17.56.35.84.55.57.37 1.12.76 1.66 1.17h.02c.69.52 1.36 1.06 2.01 1.62.66.56 1.28 1.14 1.89 1.75 6.56 6.53 10.61 15.55 10.61 25.54" fill="#3CA2E0" mask="url(#i)"/>
        </g>
        <path d="M91.047 58.963c0 .3-.006.602-.012.9-.006.244-.013.484-.027.73-.006.216-.02.432-.04.652-.007.156-.02.314-.037.468 0 .098-.01.185-.02.28-.01.17-.03.348-.05.516-.03.32-.06.65-.11.97 0 .08-.02.16-.03.24-.02.16-.04.32-.07.49-.03.24-.08.48-.12.72-.05.28-.11.56-.17.84 0 .06-.02.11-.03.17 0 .05-.02.09-.02.14 0 .01 0 .03-.01.04 0 .03 0 .06-.01.08-.03.14-.06.29-.1.43-.01.07-.02.15-.05.22-.02.13-.06.26-.1.39 0 .06-.02.12-.04.18-.01.06-.03.12-.04.18-.14.56-.3 1.1-.47 1.65-.08.25-.16.51-.25.77 0 .02-.02.05-.02.08l-.24.69c-.03.06-.05.13-.08.21-.08.21-.16.43-.25.65-.1.26-.21.52-.32.78-.09.23-.19.46-.3.69-.01.04-.03.07-.04.11-.12.24-.23.48-.34.72-.12.25-.24.5-.37.76-.25.49-.51.99-.78 1.47l-.37.65c-1.05 1.8-2.21 3.49-3.48 5.06-.17.23-.34.44-.53.65-.25.31-.51.61-.77.9-.23.26-.46.52-.7.77-.65.7-1.32 1.36-2 1.99-.14.14-.28.26-.42.39-.23.21-.46.42-.7.61-.18.16-.37.32-.56.474-.494.4-.985.79-1.48 1.15-.205.16-.42.31-.63.45-.34.246-.69.475-1.035.7-.19.13-.39.253-.587.37-.7.425-1.4.824-2.09 1.163-.17.09-.34.17-.52.25l-.53.25c-.22.1-.45.2-.67.286-.09.04-.18.07-.27.1-.26.11-.54.21-.8.3-.34.12-.67.225-1.01.32-.23.07-.47.13-.7.184-.02.005-.03.01-.05.01-.236.057-.46.11-.7.15-.062.017-.124.03-.184.036-.19.04-.38.07-.57.09-.27.04-.54.08-.815.09-.09.02-.18.02-.28.02-.213.01-.43.02-.643.02h-.02c-.21 0-.42-.01-.64-.02-.08 0-.16-.01-.25-.02-.19-.01-.38-.026-.59-.055-.03 0-.08-.01-.12-.02-.254-.03-.505-.07-.765-.12-.22-.03-.435-.08-.66-.13-1.165-.26-2.36-.67-3.57-1.2-1.04-.45-2.09-1-3.13-1.64-.526-.31-1.04-.65-1.566-1.02-.26-.18-.514-.368-.773-.56-.81-.59-1.61-1.237-2.4-1.93-.22-.197-.434-.39-.65-.598-.22-.19-.44-.4-.65-.59-.53-.51-1.05-1.04-1.55-1.593l-.59-.65c-.54-.618-1.07-1.25-1.58-1.91-.19-.24-.38-.49-.56-.73-.69-.91-1.34-1.87-1.95-2.85-.17-.27-.33-.54-.486-.81-.194-.32-.38-.648-.56-.97-.68-1.23-1.31-2.5-1.85-3.815-.086-.19-.167-.38-.235-.57-.1-.25-.2-.5-.29-.75-.14-.358-.26-.72-.39-1.08-.12-.36-.24-.73-.35-1.095-.11-.35-.21-.704-.3-1.07-.1-.38-.21-.77-.29-1.16-.01-.04-.03-.08-.03-.12-.13-.543-.24-1.094-.35-1.654-.14-.73-.25-1.48-.33-2.23-.04-.24-.06-.48-.08-.713-.03-.25-.05-.5-.06-.75-.038-.46-.05-.92-.07-1.383-.01-.29-.02-.59-.02-.89l4.43 8.7 7.605 3.31 8.996.806h.01l6.67.61h.04l6.24.57s0-.01 0 0l13.91 1.25 7.55-15.25z" fill="#543E36"/>
        <path d="M63.358 63.333l-.007 6.704V80.37v-.01l-.02-.02-26.79-13.62c0-.046-.01-.08-.02-.126-.13-.543-.24-1.093-.34-1.65-.13-.736-.24-1.486-.32-2.24-.03-.238-.05-.477-.07-.717-.03-.25-.05-.493-.07-.745-.03-.458-.05-.92-.06-1.386-.01-.297-.02-.597-.02-.898v-8.13c0 .118.01.234.01.35.06 1.965.37 4.13.97 6.342.47 1.7 1.06 3.274 1.74 4.674v.01c1.79 3.706 4.18 6.224 6.37 6.63.14.024.28.037.41.05.86.097 1.75.148 2.67.148 3.47 0 6.56-2.788 8.5-3.917.02-.006.03-.016.04-.02.11-.064.21-.125.3-.183.03-.023.06-.036.08-.05 1.63-.933 3.99-1.525 6.62-1.53h.06z" fill="#543E36"/>
        <path d="M91.053 50.828l-.006 8.132c0 2.043-.19 4.043-.542 5.983-.147.775-.308 1.545-.5 2.308l-6.285 9.08-20.38 4.04h-.005l-.007.01v-.01L63.3 63.33h.055c2.63.01 4.992.6 6.627 1.53.03.014.05.027.076.05.096.06.196.122.3.18.007.01.02.015.032.02 1.948 1.13 5.026 3.92 8.5 3.92.916 0 1.81-.052 2.66-.146.145-.013.28-.026.423-.05 2.194-.406 4.59-2.924 6.37-6.635v-.01c.677-1.41 1.262-2.98 1.735-4.68.612-2.25.93-4.44.973-6.44.01-.09.01-.17.01-.26" fill="#543E36"/>
        <path d="M70.116 72.137c0 1.16-3.043 2.097-6.794 2.097-3.75 0-6.79-.937-6.79-2.097s3.04-2.097 6.79-2.097 6.794.938 6.794 2.097" fill="#ECC19C"/>
        <path d="M63.33 10.563h-.027c-15.303.016-27.7 12.414-27.7 27.706v12.21s1.15-7.29 4.25-10.83c3.362-3.85 2.512-9.7 10.056-9.7 4.87 0 5.14 1.79 13.38 1.79h.04c8.24 0 8.51-1.8 13.38-1.8 7.54 0 6.69 5.84 10.05 9.69 3.09 3.54 4.25 10.82 4.25 10.82v-12.2c0-15.3-12.4-27.7-27.7-27.71" fill="#543E36"/>
        <path d="M81.622 105.082l-.748.762c-4.672 4.758-10.91 7.376-17.562 7.376-6.72-.013-12.944-2.637-17.593-7.388L45 105.1c.356-.216.716-.42 1.077-.617.013-.013.025-.006.025-.006v-.007c.295-.163.58-.325.867-.496.85-.518 1.67-1.09 2.42-1.717l.01.013c3.52 3.607 8.43 5.847 13.88 5.864h.05c5.45 0 10.37-2.248 13.92-5.854v-.01c.48.404.98.78 1.5 1.125.05.042.1.074.16.11.24.162.5.32.74.475.28.17.56.333.85.49.04.014.08.04.12.062.32.178.64.36.96.55" fill="#2B7499"/>
      </g>
    </g>
    <g opacity=".5">
      <path d="M76.998 421.997c11.023 0 20-8.976 20-20 0-11.02-8.977-19.997-20-19.997C65.976 382 57 390.976 57 401.998c0 5.256 2.046 10.046 5.372 13.616.07.116.162.197.255.28 3.64 3.754 8.732 6.103 14.37 6.103z" fill="#657884"/>
      <g fill="#FFF">
        <path d="M68.015 399.154c.384-8.178 6.52-8.82 8.404-8.82h.51c1.87 0 8.02.642 8.4 8.82v.095c.01.07.8 7.64-2.8 11.61-1.43 1.57-3.33 2.35-5.8 2.37h-.1c-2.49-.03-4.38-.8-5.8-2.37-3.61-3.94-2.85-11.54-2.83-11.62v-.1z"/>
        <path d="M62 416.877c7.038-2.295 9.642-5.086 10.605-6.946 1.34.58 2.84.89 4.498.9h.362c1.8-.03 3.425-.38 4.83-1.05.9 1.86 3.456 4.75 10.7 7.1-4.167 3.49-9.595 6.9-15.498 6.9-5.902 0-11.315-3.41-15.497-6.9z"/>
      </g>
    </g>
    <g opacity=".5">
      <path d="M76.998 534.997c11.023 0 20-8.976 20-20 0-11.02-8.977-19.997-20-19.997C65.976 495 57 503.976 57 514.998c0 5.256 2.046 10.046 5.372 13.616.07.116.162.197.255.28 3.64 3.754 8.732 6.103 14.37 6.103z" fill="#657884"/>
      <g fill="#FFF">
        <path d="M68.015 512.154c.384-8.178 6.52-8.82 8.404-8.82h.51c1.87 0 8.02.642 8.4 8.82v.095c.01.07.8 7.64-2.8 11.61-1.43 1.57-3.33 2.35-5.8 2.37h-.1c-2.49-.03-4.38-.8-5.8-2.37-3.61-3.94-2.85-11.54-2.83-11.62v-.1z"/>
        <path d="M62 529.877c7.038-2.295 9.642-5.086 10.605-6.946 1.34.58 2.84.89 4.498.9h.362c1.8-.03 3.425-.38 4.83-1.05.9 1.86 3.456 4.75 10.7 7.1-4.167 3.49-9.595 6.9-15.498 6.9-5.902 0-11.315-3.41-15.497-6.9z"/>
      </g>
    </g>
    <rect fill="#7DB00E" x="485" y="934" width="169" height="32.749" rx="3.273"/>
    <rect fill="#E0E0E0" x="663" y="934" width="50.409" height="32.749" rx="3.273"/>
    <path d="M712.093 515.87c-1.235-2.3-3.627-3.87-6.412-3.87h-29.36c-4.04 0-7.31 3.277-7.31 7.32v18.345c0 4.037 3.28 7.32 7.32 7.32h29.37c4.05 0 7.32-3.278 7.32-7.32V519.32c0-1.254-.34-2.418-.9-3.45zm-6.412-2.037c3.03 0 5.49 2.47 5.49 5.508v4.03L691 534.77l-20.166-11.4v-4.026c0-3.036 2.458-5.506 5.48-5.506h29.368zm5.49 23.832c0 3.027-2.46 5.488-5.48 5.488h-29.37c-3.02 0-5.48-2.46-5.48-5.488V525.47l20.16 11.4 20.17-11.4v12.195z" stroke="#31A487" fill="#31A487"/>
    <path d="M39.14 14.263c-.16-.17-.377-.263-.603-.263h-13.75C18.83 14 14 19.086 14 25.36v14.48c0 .237.09.465.25.633l4.05 4.264c.158.17.375.263.6.263h13.75c5.957 0 10.787-5.086 10.787-11.36V19.16c0-.237-.09-.465-.25-.633l-4.048-4.264zM17.94 25.36v15.184c0 .266-.306.4-.485.21l-1.294-1.362c-.05-.056-.08-.132-.08-.21V25.36c0-5.067 3.9-9.174 8.71-9.174h12.35c.16 0 .29.134.29.3v17.15c0 2.776-2.13 5.026-4.77 5.026h-8.29c-.2 0-.33-.208-.26-.403l.48-1.37c.04-.12.15-.2.27-.2h7.4c1.83 0 3.31-1.56 3.31-3.49V18.44c0-.163-.12-.297-.28-.297h-10.5c-3.78 0-6.85 3.23-6.85 7.213zm6.016 8.857v-8.433c0-.717.553-1.3 1.234-1.3h8.007c.157 0 .284.135.284.3v8.432c0 .717-.55 1.3-1.23 1.3h-8.01c-.15 0-.28-.135-.28-.3zm17.404-.578c0 5.06-3.9 9.17-8.71 9.17H20.3c-.156 0-.283-.14-.283-.3V25.36c0-2.774 2.136-5.024 4.77-5.024h8.286c.197 0 .335.208.266.403l-.49 1.36c-.04.11-.15.19-.27.19h-7.4c-1.83 0-3.31 1.56-3.31 3.48v14.77c0 .16.12.3.28.3h10.49c3.78 0 6.84-3.23 6.84-7.22V18.45c0-.266.3-.4.48-.21l1.29 1.36c.05.058.08.134.08.21v13.82z" fill="#FFF"/>
  </g>
</svg>
