<svg width="375" height="667" xmlns="http://www.w3.org/2000/svg" xmlns:xlink="http://www.w3.org/1999/xlink">
  <defs>
    <path d="M0 10C0 4.477 4.477 0 10 0s10 4.477 10 10-4.477 10-10 10S0 15.523 0 10z" id="a"/>
    <path id="c" d="M19.818 19.348H0V.106h19.818z"/>
  </defs>
  <g fill="none" fill-rule="evenodd">
    <path fill="#657884" d="M0 0h375v55H0z"/>
    <path fill="#FFF" d="M0 48.66h375v61.837H0z"/>
    <path fill="#F5F5F5" d="M0 110.497h375V667H0z"/>
    <rect fill="#E0E0E0" x="78" y="78" width="197" height="6.333" rx="3.167"/>
    <g transform="translate(28 146)">
      <rect fill="#FFF" width="320" height="101" rx="5"/>
      <rect fill="#A8B3BB" x="28" y="24" width="171" height="6.333" rx="3.167"/>
      <rect fill="#A8B3BB" x="28" y="44" width="119" height="6.333" rx="3.167"/>
      <path d="M244 0h71c2.76 0 5 2.24 5 5.01v90.98c0 2.768-2.233 5.01-5 5.01h-71V0z" fill="#7DB00E"/>
      <rect stroke="#E0E0E0" stroke-width="2" width="320" height="101" rx="5"/>
      <path d="M292.596 42.348h-5.365c0-2.41-1.92-4.348-4.29-4.348h-11.79c-1.19 0-2.14.972-2.14 2.17V54.3c0 2.055 1.41 3.756 3.29 4.215-.04.222-.07.45-.07.683 0 2.1 1.68 3.804 3.76 3.804s3.76-1.703 3.76-3.804c0-.186-.03-.364-.05-.544h5.47c-.02.18-.05.358-.05.544 0 2.1 1.68 3.804 3.76 3.804s3.76-1.703 3.76-3.804c0-.186-.03-.364-.05-.544h.61c.88 0 1.6-.722 1.6-1.623V44.52c0-1.196-.95-2.165-2.14-2.165zM275.97 61.913c-1.477 0-2.68-1.22-2.68-2.717 0-1.5 1.203-2.718 2.68-2.718 1.48 0 2.682 1.22 2.682 2.718 0 1.497-1.202 2.717-2.68 2.717zm3.38-4.348c-.605-1.28-1.884-2.174-3.38-2.174-1.465 0-2.72.86-3.34 2.11-1.458-.31-2.558-1.62-2.558-3.19V40.17c0-.597.482-1.083 1.073-1.083h11.79c1.778 0 3.224 1.466 3.224 3.267V56.54c-.29.296-.52.645-.7 1.025h-6.12zm9.49 4.348c-1.477 0-2.68-1.22-2.68-2.717 0-1.5 1.203-2.718 2.68-2.718 1.48 0 2.682 1.22 2.682 2.718 0 1.497-1.202 2.717-2.68 2.717zm4.827-13.046l-3.218-.007v-2.164h3.21v2.17zm0-3.258h-3.218c-.6 0-1.08.49-1.08 1.09v2.15c0 .61.48 1.09 1.07 1.09h3.21v7.07c0 .3-.23.53-.52.53h-.93c-.61-1.28-1.89-2.18-3.38-2.18-.58 0-1.12.14-1.61.38V43.43h5.36c.6 0 1.07.474 1.07 1.078v1.098z" stroke="#FFF" stroke-width=".5" fill="#FFF" opacity=".7"/>
      <g transform="translate(28 64)">
        <mask id="b" fill="#fff">
          <use xlink:href="#a"/>
        </mask>
        <use fill="#5A6D79" fill-rule="nonzero" xlink:href="#a"/>
        <path d="M9.952 10V4.417c0-.225-.213-.417-.476-.417C9.22 4 9 4.187 9 4.417v6.535h6.25c.225 0 .417-.213.417-.476 0-.255-.187-.476-.417-.476H9.953z" stroke="#FFF" fill="#FFF" mask="url(#b)"/>
      </g>
    </g>
    <g transform="translate(28 267)">
      <rect fill="#FFF" width="320" height="101" rx="5"/>
      <rect fill="#A8B3BB" x="28" y="24" width="171" height="6.333" rx="3.167"/>
      <rect fill="#A8B3BB" x="28" y="44" width="119" height="6.333" rx="3.167"/>
      <path d="M244 0h71c2.76 0 5 2.24 5 5.01v90.98c0 2.768-2.233 5.01-5 5.01h-71V0z" fill="#E2EECA"/>
      <rect stroke="#E0E0E0" stroke-width="2" width="320" height="101" rx="5"/>
      <path d="M292.596 42.348h-5.365c0-2.41-1.92-4.348-4.29-4.348h-11.79c-1.19 0-2.14.972-2.14 2.17V54.3c0 2.055 1.41 3.756 3.29 4.215-.04.222-.07.45-.07.683 0 2.1 1.68 3.804 3.76 3.804s3.76-1.703 3.76-3.804c0-.186-.03-.364-.05-.544h5.47c-.02.18-.05.358-.05.544 0 2.1 1.68 3.804 3.76 3.804s3.76-1.703 3.76-3.804c0-.186-.03-.364-.05-.544h.61c.88 0 1.6-.722 1.6-1.623V44.52c0-1.196-.95-2.165-2.14-2.165zM275.97 61.913c-1.477 0-2.68-1.22-2.68-2.717 0-1.5 1.203-2.718 2.68-2.718 1.48 0 2.682 1.22 2.682 2.718 0 1.497-1.202 2.717-2.68 2.717zm3.38-4.348c-.605-1.28-1.884-2.174-3.38-2.174-1.465 0-2.72.86-3.34 2.11-1.458-.31-2.558-1.62-2.558-3.19V40.17c0-.597.482-1.083 1.073-1.083h11.79c1.778 0 3.224 1.466 3.224 3.267V56.54c-.29.296-.52.645-.7 1.025h-6.12zm9.49 4.348c-1.477 0-2.68-1.22-2.68-2.717 0-1.5 1.203-2.718 2.68-2.718 1.48 0 2.682 1.22 2.682 2.718 0 1.497-1.202 2.717-2.68 2.717zm4.827-13.046l-3.218-.007v-2.164h3.21v2.17zm0-3.258h-3.218c-.6 0-1.08.49-1.08 1.09v2.15c0 .61.48 1.09 1.07 1.09h3.21v7.07c0 .3-.23.53-.52.53h-.93c-.61-1.28-1.89-2.18-3.38-2.18-.58 0-1.12.14-1.61.38V43.43h5.36c.6 0 1.07.474 1.07 1.078v1.098z" stroke="#7DB00E" stroke-width=".5" fill="#7DB00E" opacity=".7"/>
    </g>
    <g transform="translate(28 388)">
      <rect fill="#FFF" width="320" height="101" rx="5"/>
      <rect fill="#9EAAB3" x="28" y="24" width="171" height="6.333" rx="3.167"/>
      <rect fill="#9EAAB3" x="28" y="44" width="119" height="6.333" rx="3.167"/>
      <path d="M244 0h71c2.76 0 5 2.24 5 5.01v90.98c0 2.768-2.233 5.01-5 5.01h-71V0z" fill="#E2EECA"/>
      <rect stroke="#E0E0E0" stroke-width="2" width="320" height="101" rx="5"/>
      <path d="M292.596 42.348h-5.365c0-2.41-1.92-4.348-4.29-4.348h-11.79c-1.19 0-2.14.972-2.14 2.17V54.3c0 2.055 1.41 3.756 3.29 4.215-.04.222-.07.45-.07.683 0 2.1 1.68 3.804 3.76 3.804s3.76-1.703 3.76-3.804c0-.186-.03-.364-.05-.544h5.47c-.02.18-.05.358-.05.544 0 2.1 1.68 3.804 3.76 3.804s3.76-1.703 3.76-3.804c0-.186-.03-.364-.05-.544h.61c.88 0 1.6-.722 1.6-1.623V44.52c0-1.196-.95-2.165-2.14-2.165zM275.97 61.913c-1.477 0-2.68-1.22-2.68-2.717 0-1.5 1.203-2.718 2.68-2.718 1.48 0 2.682 1.22 2.682 2.718 0 1.497-1.202 2.717-2.68 2.717zm3.38-4.348c-.605-1.28-1.884-2.174-3.38-2.174-1.465 0-2.72.86-3.34 2.11-1.458-.31-2.558-1.62-2.558-3.19V40.17c0-.597.482-1.083 1.073-1.083h11.79c1.778 0 3.224 1.466 3.224 3.267V56.54c-.29.296-.52.645-.7 1.025h-6.12zm9.49 4.348c-1.477 0-2.68-1.22-2.68-2.717 0-1.5 1.203-2.718 2.68-2.718 1.48 0 2.682 1.22 2.682 2.718 0 1.497-1.202 2.717-2.68 2.717zm4.827-13.046l-3.218-.007v-2.164h3.21v2.17zm0-3.258h-3.218c-.6 0-1.08.49-1.08 1.09v2.15c0 .61.48 1.09 1.07 1.09h3.21v7.07c0 .3-.23.53-.52.53h-.93c-.61-1.28-1.89-2.18-3.38-2.18-.58 0-1.12.14-1.61.38V43.43h5.36c.6 0 1.07.474 1.07 1.078v1.098z" stroke="#7DB00E" stroke-width=".5" fill="#7DB00E" opacity=".7"/>
    </g>
    <g transform="translate(28 509)">
      <rect fill="#FFF" width="320" height="101" rx="5"/>
      <rect fill="#9EAAB3" x="28" y="24" width="171" height="6.333" rx="3.167"/>
      <rect fill="#9EAAB3" x="28" y="44" width="119" height="6.333" rx="3.167"/>
      <path d="M244 0h71c2.76 0 5 2.24 5 5.01v90.98c0 2.768-2.233 5.01-5 5.01h-71V0z" fill="#E2EECA"/>
      <rect stroke="#E0E0E0" stroke-width="2" width="320" height="101" rx="5"/>
      <path d="M292.596 42.348h-5.365c0-2.41-1.92-4.348-4.29-4.348h-11.79c-1.19 0-2.14.972-2.14 2.17V54.3c0 2.055 1.41 3.756 3.29 4.215-.04.222-.07.45-.07.683 0 2.1 1.68 3.804 3.76 3.804s3.76-1.703 3.76-3.804c0-.186-.03-.364-.05-.544h5.47c-.02.18-.05.358-.05.544 0 2.1 1.68 3.804 3.76 3.804s3.76-1.703 3.76-3.804c0-.186-.03-.364-.05-.544h.61c.88 0 1.6-.722 1.6-1.623V44.52c0-1.196-.95-2.165-2.14-2.165zM275.97 61.913c-1.477 0-2.68-1.22-2.68-2.717 0-1.5 1.203-2.718 2.68-2.718 1.48 0 2.682 1.22 2.682 2.718 0 1.497-1.202 2.717-2.68 2.717zm3.38-4.348c-.605-1.28-1.884-2.174-3.38-2.174-1.465 0-2.72.86-3.34 2.11-1.458-.31-2.558-1.62-2.558-3.19V40.17c0-.597.482-1.083 1.073-1.083h11.79c1.778 0 3.224 1.466 3.224 3.267V56.54c-.29.296-.52.645-.7 1.025h-6.12zm9.49 4.348c-1.477 0-2.68-1.22-2.68-2.717 0-1.5 1.203-2.718 2.68-2.718 1.48 0 2.682 1.22 2.682 2.718 0 1.497-1.202 2.717-2.68 2.717zm4.827-13.046l-3.218-.007v-2.164h3.21v2.17zm0-3.258h-3.218c-.6 0-1.08.49-1.08 1.09v2.15c0 .61.48 1.09 1.07 1.09h3.21v7.07c0 .3-.23.53-.52.53h-.93c-.61-1.28-1.89-2.18-3.38-2.18-.58 0-1.12.14-1.61.38V43.43h5.36c.6 0 1.07.474 1.07 1.078v1.098z" stroke="#7DB00E" stroke-width=".5" fill="#7DB00E" opacity=".7"/>
    </g>
    <path d="M44 96.765c8.266 0 14.998-6.68 14.998-14.882 0-8.203-6.732-14.883-15-14.883C35.733 67 29 73.68 29 81.883c0 3.91 1.535 7.476 4.03 10.132.05.086.12.147.19.208 2.73 2.794 6.55 4.542 10.78 4.542z" fill="#657884"/>
    <g fill="#FFF">
      <path d="M37.262 79.766c.287-6.086 4.89-6.565 6.303-6.565h.383c1.402 0 6.015.48 6.303 6.57v.07c.02.06.6 5.69-2.09 8.65-1.06 1.17-2.49 1.76-4.35 1.77h-.07c-1.87-.02-3.28-.59-4.35-1.76-2.71-2.93-2.13-8.58-2.12-8.64v-.07z"/>
      <path d="M32.75 92.955c5.28-1.708 7.232-3.785 7.954-5.17 1.006.428 2.13.658 3.373.67h.272c1.35-.023 2.56-.29 3.62-.785.67 1.385 2.59 3.53 8.02 5.285-3.13 2.596-7.2 5.133-11.63 5.133s-8.49-2.537-11.63-5.133z"/>
    </g>
    <path d="M66.573 17.868h-3.69c-.253 0-.457.198-.457.442v8.356c0 .55-.117.984-.355 1.3-.23.314-.62.47-1.16.47-.54 0-.93-.18-1.18-.54-.19-.286-.32-.664-.38-1.135-.02-.22-.22-.39-.45-.39h-3.69c-.26 0-.47.23-.45.48.13 1.69.66 2.99 1.6 3.91 1.03 1.01 2.55 1.52 4.56 1.52 1.91 0 3.41-.49 4.49-1.46 1.09-.97 1.64-2.42 1.64-4.34v-8.16c0-.24-.2-.44-.45-.44m11.7 10.57c-1.69 0-2.53-1.18-2.53-3.54s.85-3.54 2.54-3.54 2.53 1.18 2.53 3.55c0 2.36-.84 3.54-2.53 3.54m5.44-8.97c-.61-.63-1.37-1.11-2.27-1.44-.9-.33-1.93-.5-3.11-.5-1.2 0-2.26.18-3.18.52-.92.35-1.69.85-2.31 1.5-.62.65-1.09 1.43-1.4 2.34-.31.92-.47 1.94-.47 3.08 0 1.14.15 2.17.46 3.07.31.91.77 1.68 1.39 2.31.61.63 1.37 1.11 2.27 1.45.9.337 1.93.5 3.11.5 1.2 0 2.26-.172 3.18-.52.92-.35 1.69-.84 2.3-1.486.62-.64 1.08-1.43 1.4-2.35.32-.925.48-1.96.48-3.1 0-1.14-.16-2.16-.47-3.06-.31-.9-.77-1.664-1.39-2.293m13.41 8.92c-.243.225-.71.336-1.4.336H94.3c-.25 0-.456-.2-.456-.44v-1.7c0-.245.205-.44.456-.44h1.45c.69 0 1.16.11 1.4.335.25.225.37.547.37.966 0 .41-.12.72-.36.945zm-3.304-6.86c0-.243.205-.44.456-.44h1.35c.57 0 .96.09 1.16.275.208.188.31.45.31.79s-.1.61-.305.79c-.205.187-.59.28-1.16.28H94.3c-.25 0-.454-.19-.454-.44v-1.24zm6.43 3.275c-.256-.16-.276-.52-.035-.71.333-.26.593-.56.78-.89.28-.5.42-1.08.42-1.72 0-.48-.08-.94-.24-1.38-.16-.44-.44-.83-.82-1.15-.39-.33-.9-.59-1.55-.78-.65-.19-1.46-.29-2.43-.29h-6.3c-.25 0-.46.197-.46.44V31.5c0 .242.2.44.45.44h6.12c1.05 0 1.936-.11 2.65-.335.716-.224 1.297-.526 1.74-.906.447-.38.76-.82.95-1.32.18-.5.28-1.03.28-1.58 0-1.33-.53-2.33-1.58-3zm13.05 3.59c-.24.22-.71.33-1.4.33h-1.45c-.25 0-.45-.2-.45-.44V26.6c0-.246.203-.444.454-.444h1.45c.69 0 1.157.11 1.4.335.25.23.37.55.37.97 0 .41-.12.72-.36.94zm-3.3-6.87c0-.246.204-.44.455-.44h1.345c.564 0 .95.09 1.152.27.2.186.3.448.3.79 0 .34-.1.6-.31.784-.2.18-.59.27-1.157.27h-1.35c-.25 0-.46-.193-.46-.44v-1.24zm6.43 3.27c-.257-.162-.277-.522-.036-.71.34-.26.6-.556.784-.89.28-.503.42-1.08.42-1.72 0-.485-.08-.95-.25-1.39-.16-.44-.44-.82-.82-1.15-.39-.33-.9-.586-1.55-.776-.65-.19-1.46-.29-2.43-.29h-6.3c-.25 0-.457.2-.457.44V31.5c0 .24.208.44.46.44h6.13c1.05 0 1.932-.11 2.65-.334.712-.23 1.293-.53 1.74-.91.443-.38.76-.82.95-1.32.19-.496.283-1.02.283-1.573 0-1.33-.53-2.33-1.58-3zm16.216 3.687h-5.69c-.25 0-.454-.2-.454-.44V27c0-.245.204-.443.455-.443h4.92c.25 0 .455-.198.455-.442v-2.56c0-.243-.21-.442-.46-.442h-4.926c-.25 0-.455-.2-.455-.443v-.9c0-.24.204-.44.455-.44h5.33c.25 0 .45-.2.45-.44v-2.56c0-.243-.2-.44-.45-.44h-9.85c-.25 0-.455.197-.455.44V31.5c0 .244.205.44.457.44h9.952c.236 0 .43-.17.454-.4l.255-2.557c.023-.26-.187-.485-.456-.485m11.79-4.685c-.29.25-.774.372-1.46.372h-1.08c-.25 0-.454-.2-.454-.445v-2.11c0-.244.205-.442.456-.442h1.08c.685 0 1.17.126 1.46.375.29.25.434.62.434 1.12 0 .5-.148.88-.437 1.12m5.28 7.48l-2.44-4.39c-.11-.19-.06-.43.12-.56.524-.388.943-.86 1.255-1.42.37-.67.557-1.478.557-2.42 0-.63-.094-1.23-.29-1.79-.195-.568-.524-1.057-.984-1.47-.46-.415-1.066-.74-1.817-.985-.75-.244-1.68-.366-2.79-.366h-5.76c-.25 0-.454.2-.454.443v13.17c0 .244.206.44.46.44H141c.25 0 .454-.196.454-.44v-3.63c0-.245.205-.443.456-.443h.885c.17 0 .33.095.41.245l2.06 4.015c.076.15.23.245.406.245h3.66c.35 0 .57-.357.4-.652" fill="#FFF"/>
    <g transform="translate(29 15.188)">
      <mask id="d" fill="#fff">
        <use xlink:href="#c"/>
      </mask>
      <path d="M18.42 12.296c0 3.144-2.626 5.693-5.865 5.693H4.242c-.106 0-.19-.09-.19-.19V7.15c0-1.722 1.437-3.12 3.21-3.12h5.578c.133 0 .226.13.18.252l-.325.84c-.027.073-.1.12-.18.12h-4.98c-1.23 0-2.23.97-2.23 2.166v9.167c0 .1.086.185.19.185h7.06c2.548 0 4.61-2.007 4.61-4.48V2.87c0-.164.208-.247.328-.13l.872.846c.035.035.056.082.056.13v8.58zm-11.717.358V7.42c0-.445.372-.807.83-.807h5.39c.107 0 .192.083.192.186v5.23c0 .44-.372.8-.83.8h-5.39c-.107 0-.192-.09-.192-.19zm-4.05-5.497v9.425c0 .165-.207.248-.327.13l-.87-.845c-.037-.035-.057-.082-.057-.13v-8.58c0-3.144 2.62-5.694 5.86-5.694h8.31c.1 0 .19.083.19.186v10.64c0 1.72-1.44 3.12-3.21 3.12H6.97c-.134 0-.226-.13-.18-.26l.325-.85c.03-.07.1-.12.18-.12h4.982c1.23 0 2.23-.97 2.23-2.17V2.86c0-.102-.088-.186-.193-.186H7.26c-2.545 0-4.61 2.006-4.61 4.48zm14.27-6.89c-.106-.103-.252-.162-.404-.162H7.26C3.252.105 0 3.262 0 7.157v8.987c0 .148.06.29.168.394l2.726 2.647c.108.104.253.163.405.163h9.25c4.01 0 7.26-3.158 7.26-7.052V3.31c0-.15-.06-.29-.17-.395L16.92.268z" fill="#FFF" mask="url(#d)"/>
    </g>
  </g>
</svg>
