<svg viewBox="0 0 283 245" xmlns="http://www.w3.org/2000/svg" xmlns:xlink="http://www.w3.org/1999/xlink"><title>Group 6</title><defs><path d="M44.95 234.387a6.848 6.848 0 0 1-3.191-4.145L3.325 87.309c-.981-3.644 1.188-7.39 4.84-8.366l101.453-27.12c3.669-.98 7.413 1.186 8.391 4.828l38.437 142.932a6.82 6.82 0 0 1-.682 5.184 6.86 6.86 0 0 1-4.16 3.182L50.15 235.068a6.891 6.891 0 0 1-5.2-.68z" id="a"/><mask id="d" x="-4" y="-4" width="161.591" height="191.713"><path fill="#fff" d="M-.911 47.588H160.68v191.713H-.911z"/><use xlink:href="#a"/></mask><path d="M89.478 190.127c-3.784 0-6.85-3.057-6.85-6.83V35.318c0-3.772 3.066-6.83 6.85-6.83h105.036c3.784 0 6.85 3.058 6.85 6.83v147.98c0 3.772-3.066 6.829-6.85 6.829H89.478z" id="b"/><mask id="e" x="-4" y="-4" width="126.736" height="169.638"><path fill="#fff" d="M78.628 24.489h126.736v169.638H78.628z"/><use xlink:href="#b"/></mask><path d="M230.864 183.462L129.405 156.37a6.832 6.832 0 0 1-4.159-3.18 6.805 6.805 0 0 1-.684-5.183L162.96 5.064a6.845 6.845 0 0 1 8.389-4.828l101.46 27.092a6.83 6.83 0 0 1 4.842 8.364l-38.398 142.94c-.818 3.051-3.588 5.066-6.612 5.066a6.843 6.843 0 0 1-1.777-.236z" id="c"/><mask id="f" x="-4" y="-4" width="161.557" height="191.698"><path fill="#fff" d="M120.328-4h161.557v191.698H120.328z"/><use xlink:href="#c"/></mask></defs><g transform="translate(1 4)" fill="none" fill-rule="evenodd"><use stroke="#012939" mask="url(#d)" stroke-width="8" xlink:href="#a"/><path d="M41.861 239.777a6.848 6.848 0 0 1-3.191-4.146L.236 92.7c-.98-3.644 1.188-7.39 4.84-8.366l101.453-27.12c3.67-.98 7.413 1.186 8.391 4.827l38.437 142.933a6.82 6.82 0 0 1-.682 5.184 6.86 6.86 0 0 1-4.16 3.182L47.062 240.458a6.891 6.891 0 0 1-5.2-.68z" fill-opacity=".15" fill="#012939"/><path fill="#FFF" d="M149.83 201.211l-101.455 27.12L9.941 85.398 111.393 58.28z"/><path d="M19.677 100.844a6.85 6.85 0 0 1-6.451-4.536c-1.274-3.552.583-7.46 4.147-8.729 19.088-6.796 38.521-11.874 59.096-17.252 13.908-3.632 28.289-7.39 42.664-11.752 3.622-1.1 7.448.938 8.547 4.547 1.102 3.608-.94 7.423-4.56 8.522-14.63 4.44-29.142 8.23-43.177 11.899-20.28 5.297-39.435 10.304-57.963 16.9-.76.271-1.539.4-2.303.4" fill-opacity=".2" fill="#557F00"/><path d="M18.332 90.524l34.886 129.738 88.221-23.583-34.888-129.736-88.22 23.581zm30.043 144.933a6.848 6.848 0 0 1-6.616-5.06L3.325 87.467c-.981-3.645 1.188-7.39 4.84-8.367l101.453-27.12c3.669-.98 7.413 1.186 8.391 4.828l38.437 142.932a6.82 6.82 0 0 1-.682 5.184 6.86 6.86 0 0 1-4.16 3.182L50.15 235.224a6.894 6.894 0 0 1-1.775.233z" fill="#7DB00E"/><path d="M91.652 111.265l-29.094 7.796c-4 1.071-6.388 5.255-5.305 9.296l7.873 29.383c1.082 4.039 5.242 6.467 9.242 5.395l29.093-7.796c4-1.071 6.389-5.254 5.307-9.293l-7.873-29.383c-1.083-4.041-5.244-6.47-9.243-5.398zm8.376 33.904c.344 1.284-.417 2.611-1.689 2.952l-23.146 6.202c-1.272.34-2.594-.428-2.938-1.712l-6.263-23.376c-.344-1.285.415-2.615 1.687-2.956l23.146-6.202c1.272-.34 2.595.432 2.939 1.716l6.264 23.376zm-9.813-4.89a1.379 1.379 0 0 1-.963 1.69l-9.257 2.48a1.377 1.377 0 0 1-1.679-.981l-2.505-9.349a1.378 1.378 0 0 1 .964-1.688l9.256-2.48a1.38 1.38 0 0 1 1.679.98l2.505 9.348z" fill="#012939"/><path d="M84.844 194.747c-3.784 0-6.85-3.057-6.85-6.83V39.938c0-3.772 3.066-6.83 6.85-6.83H189.88c3.784 0 6.85 3.058 6.85 6.83v147.98c0 3.772-3.066 6.829-6.85 6.829H84.844z" fill-opacity=".15" fill="#012939"/><path fill="#FFF" d="M89.86 183.493h105.036V35.513H89.86z"/><path d="M96.328 176.468h91.336V42.148H96.328v134.32zm98.186 13.659H89.478c-3.784 0-6.85-3.057-6.85-6.83V35.318c0-3.772 3.066-6.83 6.85-6.83h105.036c3.784 0 6.85 3.058 6.85 6.83v147.98c0 3.772-3.066 6.829-6.85 6.829z" fill="#3CA2E0"/><path d="M94.247 52.253c-3.784 0-6.85-3.057-6.85-6.83 0-3.772 3.066-6.83 6.85-6.83h97.456c3.784 0 6.85 3.058 6.85 6.83 0 3.773-3.066 6.83-6.85 6.83H94.247z" fill="#3CA2E0" opacity=".2"/><g fill="#012939"><path d="M153.879 113.58c-2.408 3.501-6.174 6.023-10.308 6.879-3.709.822-7.688.264-11.058-1.494-4.528-2.298-7.913-6.777-8.871-11.81-.965-4.639.178-9.679 3.024-13.448 2.494-3.406 6.282-5.812 10.413-6.56 3.41-.647 7.028-.192 10.16 1.324 4.64 2.173 8.2 6.59 9.288 11.648 1.079 4.592.065 9.625-2.648 13.46m8.184-18.356c-1.939-5.106-5.709-9.47-10.437-12.122-4.405-2.518-9.634-3.49-14.643-2.817-7.65.987-14.624 6.051-17.968 13.065-2.738 5.547-3.15 12.19-1.196 18.054 1.473 4.533 4.392 8.545 8.147 11.412 4.072 3.129 9.183 4.85 14.3 4.772 5.096.025 10.167-1.762 14.199-4.893 4.103-3.178 7.142-7.757 8.43-12.816 1.265-4.81.978-10.027-.832-14.655"/><path d="M138.58 98.114c-1.84.535-3.421 1.986-4.02 3.838-.613 1.893-.252 4.103 1.024 5.637 1.455 1.887 4.119 2.628 6.354 1.902 2.49-.78 4.29-3.393 4.025-6.042-.049-3.636-3.967-6.362-7.382-5.335"/></g><use stroke="#000" mask="url(#e)" stroke-width="8" xlink:href="#b"/><path d="M225.458 187.312L124 160.22a6.832 6.832 0 0 1-4.16-3.18 6.805 6.805 0 0 1-.684-5.184l38.398-142.94a6.847 6.847 0 0 1 8.39-4.83l101.459 27.093a6.83 6.83 0 0 1 4.843 8.364l-38.399 142.94c-.818 3.051-3.588 5.065-6.611 5.065a6.843 6.843 0 0 1-1.778-.235z" fill-opacity=".15" fill="#012939"/><path fill="#FFBAB0" d="M233.022 176.663l-101.46-27.093 38.4-142.94L271.42 33.721z"/><path fill="#FFF" d="M233.022 176.663l-101.46-27.093 38.4-142.94L271.42 33.721z"/><path d="M224.45 176.218c-3.655-.976-5.822-4.722-4.84-8.366l32.992-122.82c-14.346-3.807-27.697-7.275-40.665-10.641-14.945-3.882-28.065-7.895-44.99-12.415-3.655-.974-5.822-4.72-4.843-8.364a6.839 6.839 0 0 1 8.388-4.828c16.878 4.506 29.974 8.512 44.898 12.387 14.963 3.886 30.434 7.904 47.376 12.429 3.655.976 5.823 4.72 4.843 8.363L232.841 171.39c-.82 3.05-3.587 5.063-6.61 5.063a6.824 6.824 0 0 1-1.78-.236z" fill="#80456B" opacity=".2"/><path d="M224.012 90.852c-2.811 12.176-14.859 19.792-26.91 17.01-12.05-2.782-19.54-14.908-16.728-27.085 2.81-12.176 14.858-19.792 26.909-17.01 12.05 2.782 19.54 14.908 16.729 27.085zm-12.299-11.906l-1.212-.28-.735 3.185 1.212.28c2.958.682 4.78 3.632 4.09 6.62-.69 2.989-3.62 4.841-6.578 4.158l-2.91-.671 3.846-16.658c.408-1.764-.67-3.51-2.416-3.913l-5.316 23.028 6.06 1.399c4.704 1.086 9.368-1.863 10.465-6.615 1.086-4.704-1.85-9.458-6.506-10.533zm-25.01 3.257c-1.097 4.752 1.802 9.447 6.505 10.533l1.213.28.735-3.185-1.212-.28c-2.958-.683-4.78-3.632-4.09-6.62.69-2.99 3.62-4.842 6.578-4.159l2.91.672-3.846 16.658c-.408 1.764.67 3.51 2.416 3.912l5.316-23.027-6.06-1.4c-4.704-1.085-9.38 1.912-10.465 6.616z" fill="#012939"/><path d="M139.566 144.942l88.225 23.56 34.856-129.746-88.226-23.56-34.855 129.746zm91.298 38.52L129.405 156.37a6.832 6.832 0 0 1-4.159-3.18 6.805 6.805 0 0 1-.684-5.183L162.96 5.064a6.845 6.845 0 0 1 8.389-4.828l101.46 27.092a6.83 6.83 0 0 1 4.842 8.364l-38.398 142.94c-.818 3.051-3.588 5.066-6.612 5.066a6.843 6.843 0 0 1-1.777-.236z" fill="#B36096"/><use stroke="#012939" mask="url(#f)" stroke-width="8" xlink:href="#c"/></g></svg>